<svg width="1448" height="2392" viewBox="0 0 1448 2392" fill="none" xmlns="http://www.w3.org/2000/svg">
<g clip-path="url(#clip0_0_3)" filter="url(#filter0_d_0_3)">
<rect width="2160" height="2384" transform="translate(4)" fill="#373A37"/>
<g filter="url(#filter1_f_0_3)">
<path d="M594 2190.5C594 2367.51 462.372 2511 300 2511C137.628 2511 6 2367.51 6 2190.5C6 2013.49 137.628 1870 300 1870C462.372 1870 594 2013.49 594 2190.5Z" fill="#1D40BB"/>
</g>
<g filter="url(#filter2_f_0_3)">
<ellipse cx="1171" cy="1490.5" rx="375" ry="265.5" fill="#CC2727"/>
</g>
<g filter="url(#filter3_f_0_3)">
<path d="M632 865C632 1069.35 471.046 1235 272.5 1235C73.9536 1235 -87 1069.35 -87 865C-87 660.655 73.9536 495 272.5 495C471.046 495 632 660.655 632 865Z" fill="#1B6800"/>
</g>
<path fill-rule="evenodd" clip-rule="evenodd" d="M306.046 754.661C307.32 756.125 309.9 756.647 311.785 755.816C316.89 753.572 315.941 752 309.473 752C306.319 752 304.776 753.197 306.046 754.661ZM322.831 759.203C323.063 765.587 323.45 765.809 326.254 761.168C330.576 754.014 330.576 752 326.254 752C324.23 752 322.691 755.243 322.831 759.203ZM391.645 758.8C374.871 762.47 344.659 779.55 344.659 785.36C344.659 786.869 355.013 784.132 367.664 779.278C395.311 768.675 399.872 768.334 399.872 776.884C399.872 784.58 402.581 784.931 413.219 778.605C420.18 774.466 433 759.853 433 756.06C433 753.383 409.185 754.96 391.645 758.8ZM300.488 761.168C303.01 763.329 307.394 765.097 310.231 765.097C313.069 765.097 316.887 767.894 318.716 771.313C324.322 781.808 326.976 812.971 323.203 824.032C319.761 834.127 319.618 833.858 319.261 816.627C318.929 800.529 317.818 797.983 308.133 791.089C300.996 786.01 293.634 783.432 286.265 783.432C280.155 783.432 274.133 782.254 272.882 780.813C271.63 779.372 267.371 778.194 263.418 778.194C257.135 778.194 256.516 779.467 258.511 788.341C259.925 794.633 259.24 799.172 256.715 800.283C251.382 802.63 251.536 810.278 257.083 818.946C260.002 823.501 268.424 828.061 281.576 832.199C303.477 839.091 306.223 843.591 284.609 837.163C263.915 831.01 242.949 831.998 232.226 839.631C227.18 843.219 223.076 849.291 222.932 853.382C222.788 857.408 221.36 863.061 219.759 865.942C214.392 875.594 218.935 877.729 244.848 877.729C272.506 877.729 282.283 874.316 289.335 862.204C291.857 857.872 296.785 853.681 300.289 852.89C310.003 850.697 309.201 834.463 298.563 817.929C287.66 800.977 287.277 798.397 296.881 806.601C304.493 813.099 312.469 830.117 313.033 841.058C313.445 849.003 319.235 849.105 324.859 841.268C328.426 836.296 329.302 836.105 331.33 839.869C332.92 842.816 335.751 843.602 340.087 842.305C343.613 841.249 359.75 840.113 375.946 839.775C413.616 838.991 418.276 837.538 418.276 826.557C418.276 821.774 420.986 815.931 424.298 813.573C431.483 808.46 429.827 807.153 404.234 797.75C386.761 791.33 383.205 790.877 370.951 793.488C355.355 796.812 339.741 807.52 334.996 818.144C332.563 823.592 331.776 820.394 331.776 805.047C331.776 782.319 322.066 759.156 313.515 761.49C310.809 762.229 307.5 761.576 306.164 760.036C304.828 758.499 301.972 757.239 299.822 757.239C297.352 757.239 297.599 758.69 300.488 761.168ZM191.184 769.681C181.99 785.088 180.525 814.566 188.243 828.946C191.795 835.568 197.188 842.452 200.221 844.243C205.01 847.072 205.385 846.349 203.055 838.8C199.871 828.48 203.729 807.007 208.772 807.007C213.244 807.007 218.309 815.797 221.599 829.271L224.158 839.748L229.028 831.89C240.401 813.544 231.737 781.258 211.278 765.752C200.703 757.736 197.998 758.266 191.184 769.681ZM328.559 763.868C327.031 766.708 327.451 769.309 329.519 769.801C331.544 770.281 332.232 772.661 331.047 775.09C329.114 779.042 329.619 779.013 335.854 774.825C340.529 771.684 341.49 769.531 338.769 768.277C336.542 767.247 333.947 764.699 333.001 762.611C331.691 759.711 330.642 760.01 328.559 763.868ZM302.329 770.336C303.58 771.776 307.088 772.955 310.125 772.955C313.161 772.955 314.623 771.776 313.371 770.336C312.12 768.895 308.612 767.716 305.575 767.716C302.538 767.716 301.077 768.895 302.329 770.336ZM302.329 778.194C303.58 779.634 307.916 780.813 311.965 780.813C316.014 780.813 318.304 779.634 317.052 778.194C315.801 776.753 311.465 775.574 307.416 775.574C303.367 775.574 301.077 776.753 302.329 778.194ZM392.51 814.451C392.51 815.663 385.782 818.089 377.559 819.841C369.335 821.596 355.83 827.382 347.548 832.7L332.493 842.368L338.199 834.505C346.326 823.304 355.779 817.976 372.449 815.195C391.991 811.936 392.51 811.918 392.51 814.451ZM101.72 816.072C101.72 816.965 105.019 820.889 109.049 824.792C118.715 834.151 123.754 854.336 121.284 873.8C118.763 893.65 124.663 909.311 139.067 920.983C145.265 926.007 151.405 930.116 152.715 930.116C154.022 930.116 155.093 919.215 155.093 905.887C155.093 890.027 156.86 879.447 160.206 875.257L165.319 868.852L173.089 875.573C179.958 881.514 193.573 888.207 198.796 888.207C203.368 888.207 197.155 863.273 189.937 852.662C181.051 839.602 166.545 830.644 142.008 823.066C123.684 817.411 101.72 813.597 101.72 816.072ZM278.057 844.893C270.78 846.8 259.645 850.265 253.31 852.596C242.691 856.505 241.97 856.505 244.086 852.586C247.02 847.14 266.006 841.239 280.243 841.346L291.286 841.427L278.057 844.893ZM338.217 845.412C329.162 848.013 333.877 850.522 349.013 851.158C367.484 851.934 383.065 857.984 388.516 866.497C394.678 876.121 393.504 876.273 379.69 867.642C367.966 860.318 339.439 851.756 335.677 854.433C332.538 856.67 361.186 894.166 368.721 897.678C375.479 900.829 379.37 900.541 399.279 895.402L422.09 889.516L419.756 873.8C418.472 865.156 415.306 856.486 412.726 854.532C403.892 847.848 351.899 841.485 338.217 845.412ZM303.709 858.186C298.902 862.28 288.757 870.547 281.164 876.556C273.574 882.565 267.36 888.662 267.36 890.103C267.36 891.546 272.329 897.175 278.403 902.613C284.476 908.051 289.446 914.696 289.446 917.381C289.446 922.829 296.793 923.84 303.212 919.272C305.52 917.63 316.069 915.312 326.659 914.12C337.249 912.931 347.357 910.442 349.124 908.593C354.457 903.014 348.995 883.209 338.232 869.096C325.157 851.957 318.344 849.94 322.964 864.575C326.862 876.912 324.359 886.541 316.003 891.373C311.016 894.257 310.504 894.084 312.55 890.203C317.472 880.851 319.61 859.839 316.091 855.368C312.779 851.153 311.674 851.405 303.709 858.186ZM225.03 889.768C191.449 896.908 186.278 899.187 176.38 911.207C162.341 928.254 162.455 950.144 176.678 968.097C185.063 978.682 185.409 979.688 178.496 973.336C154.814 951.585 135.975 940.01 108.11 930.085C91.9809 924.341 75.2476 919.657 70.9262 919.678C65.0037 919.71 64.3227 920.283 68.1619 922.015C71.909 923.702 70.2048 924.786 61.7203 926.111C55.3782 927.101 50.1881 928.998 50.1881 930.323C50.1881 934.014 62.3534 933.194 70.9115 928.93C77.7248 925.532 80.0953 925.708 92.8937 930.535C132.485 945.474 186.381 986.299 186.381 1001.35C186.381 1006.88 188.151 1008.7 193.525 1008.7C204.347 1008.7 205.26 1005.23 197.35 994.186C193.389 988.659 192.116 985.537 194.523 987.25C203.972 993.974 208.348 990.802 202.757 981.278C191.155 961.52 199.039 936.801 221.581 922.258C230.382 916.579 231.339 916.407 228.785 920.949C213.288 948.502 208.466 960.93 208.466 973.299C208.466 981.073 210.123 988.161 212.147 989.052C214.171 989.942 215.828 993.12 215.828 996.114C215.828 1000.76 218.397 999.846 233.312 989.929C255.154 975.402 277.479 970.237 299.877 974.528C316.761 977.762 321.425 983.96 305.325 981.77C299.888 981.029 286.284 982.121 275.097 984.196C254.109 988.085 222.483 1000.53 225.31 1003.78C226.19 1004.79 233.941 1006.45 242.533 1007.47C251.128 1008.5 270.566 1012.82 285.735 1017.09C327.366 1028.82 341.994 1024.21 353.935 995.6C355.436 991.999 359.96 985.725 363.987 981.66L371.305 974.268L362.971 970.114C358.389 967.83 346.345 960.718 336.204 954.309C319.92 944.017 316.272 942.831 304.938 944.138C288.441 946.045 245.776 966.408 228.913 980.424C217.315 990.066 215.828 990.626 215.828 985.338C215.828 981.39 223.455 974.36 238.355 964.566C259.502 950.67 281.973 927.824 282.051 920.147C282.069 918.264 277.243 913.549 271.328 909.67C265.122 905.599 260.061 899.289 259.365 894.755C257.9 885.226 251.069 884.233 225.03 889.768ZM68.5925 905.958C68.5925 909.222 79.7493 919.639 83.2425 919.639C84.9982 919.639 83.9528 916.103 80.9235 911.781C75.8586 904.557 68.5925 901.125 68.5925 905.958ZM86.9969 910.18C86.9969 913.669 101.345 927.853 101.599 924.613C101.665 923.749 99.9021 919.327 97.6789 914.79C93.571 906.401 86.9969 903.564 86.9969 910.18ZM372.265 908.439C368.216 909.146 362.691 911.006 359.99 912.569C356.184 914.77 358.885 916.202 371.953 918.916C381.236 920.841 388.829 923.513 388.829 924.854C388.829 926.195 374.927 927.209 357.932 927.109C311.833 926.837 308.244 929.894 340.982 941.547C371.165 952.292 385.075 953.195 412.751 946.207C434.115 940.814 436.732 936.343 425.859 923.819C414.301 910.516 393.887 904.656 372.265 908.439ZM101.72 911.611C101.72 916.323 109.307 928.209 111.375 926.737C114.497 924.516 109.023 909.161 105.111 909.161C103.244 909.161 101.72 910.264 101.72 911.611ZM47.4274 917.674C48.2704 919.477 51.1709 920.949 53.869 920.949C56.5671 920.949 59.4676 919.477 60.3105 917.674C61.2234 915.726 58.6137 914.4 53.869 914.4C49.1243 914.4 46.5146 915.726 47.4274 917.674ZM75.0341 933.312C64.6172 935.863 61.1682 940.594 69.7299 940.594C75.5788 940.594 89.5625 933.632 86.9896 932C85.981 931.358 80.6033 931.95 75.0341 933.312ZM87.0522 940.473C82.0204 943.224 79.1714 946.377 80.721 947.48C82.2707 948.583 88.0055 946.304 93.468 942.419C104.857 934.313 100.649 933.037 87.0522 940.473ZM86.9969 958.154C83.9602 958.94 77.3346 962.24 72.2734 965.488C67.2122 968.736 56.8616 972.807 49.2679 974.533C31.7947 978.506 31.699 983.803 49.0029 989.686C58.0063 992.748 63.7117 996.92 66.0343 1002.15C70.9814 1013.27 82.5468 1021.42 98.0911 1024.73C109.377 1027.14 114.081 1026.74 128.219 1022.15C137.436 1019.17 152.222 1016.09 161.075 1015.31C176.251 1013.98 176.553 1014.07 166.302 1016.93C145.052 1022.86 113.669 1037.45 107.323 1044.34C96.8212 1055.74 96.3685 1068.9 106.126 1079.18C110.79 1084.08 118.855 1092.93 124.049 1098.82C135.927 1112.31 147.857 1113.24 158.642 1101.53C162.702 1097.12 172.169 1090.4 179.682 1086.59C197.011 1077.81 200.843 1066.01 193.065 1045.36C189.178 1035.03 188.645 1029.1 191.24 1024.96C196.279 1016.92 192.719 1015.44 179.799 1020.2C162.694 1026.49 151.313 1038.07 143.745 1056.87C139.913 1066.39 135.518 1074.18 133.972 1074.18C128.219 1074.18 131.433 1052.64 138.702 1042.51C145.195 1033.45 167.888 1020.03 184.121 1015.65C193.433 1013.13 167.266 999.927 136.825 991.779C119.109 987.038 106.126 982.493 107.974 981.681C113.849 979.096 137.65 984.269 158.612 992.688C169.773 997.172 179.763 1000.84 180.804 1000.84C191.276 1000.84 157.445 971.376 137.355 962.997C122.017 956.601 100.852 954.565 86.9969 958.154ZM212.28 1010.66C212.353 1011.74 220.966 1016.75 231.424 1021.79C252.07 1031.75 264.912 1044.59 263.032 1053.39C262.056 1057.94 258.994 1056.07 246.206 1043.13C226.694 1023.38 205.797 1011.25 200.762 1016.74C198.874 1018.8 198.288 1022.84 199.466 1025.72C200.644 1028.6 202.842 1043.08 204.355 1057.89C206.302 1076.96 208.808 1086.03 212.957 1088.98C216.42 1091.44 228.722 1093.87 243.092 1094.93C256.45 1095.91 269.359 1098.13 271.785 1099.86C280.788 1106.26 288.698 1103.42 291.201 1092.88C292.545 1087.22 299.991 1076.71 308.089 1069.04C316.055 1061.49 322.573 1052.61 322.573 1049.3C322.573 1042.39 303.933 1029.73 282.095 1021.8C257.915 1013.02 211.945 1005.69 212.28 1010.66ZM52.7021 1051.26C36.5173 1066.74 31.1211 1073.92 33.5579 1076.72C38.9283 1082.91 65.2429 1089.9 83.1688 1089.9C93.3722 1089.9 101.72 1089.25 101.72 1088.46C101.72 1085.32 81.0781 1074.34 75.0341 1074.26C67.4699 1074.17 66.1668 1068.94 73.7053 1068.94C82.4768 1068.94 93.663 1060.15 96.1955 1051.26L98.6248 1042.75H80.1137C63.5129 1042.75 60.6897 1043.63 52.7021 1051.26ZM314.207 1079.03C308.553 1080.6 309.105 1081.44 318.333 1085.32C328.618 1089.64 340.477 1104.22 336.189 1107.27C335.037 1108.1 330.303 1106.88 325.673 1104.57C316.467 1099.98 298.486 1098.94 295.129 1102.81C293.969 1104.14 295.942 1105.91 299.513 1106.73C303.087 1107.55 309.775 1112.17 314.38 1116.99C331.709 1135.15 360.093 1153.13 365.43 1149.33C368.099 1147.43 361.263 1118.93 353.92 1101.33C346.381 1083.27 330.69 1074.46 314.207 1079.03ZM186.469 1091.94C180.41 1095.43 178.32 1099.54 178.143 1108.31C177.801 1125.44 181.713 1132.28 191.298 1131.3C198.528 1130.57 199.268 1128.92 199.312 1113.47C199.338 1104.11 200.758 1094.38 202.466 1091.86C206.655 1085.68 197.247 1085.73 186.469 1091.94ZM92.5183 1096.15C74.0697 1101.88 55.1647 1119.06 50.5857 1134.25C47.0226 1146.07 44.8582 1171.28 47.4274 1171C47.9354 1170.94 65.7141 1164.76 86.9344 1157.25C119.694 1145.66 126.776 1142.01 133.807 1133.12C138.364 1127.35 142.118 1121.17 142.151 1119.36C142.225 1115.29 108.158 1114.86 97.7967 1118.8C89.6177 1121.92 89.3822 1121.48 94.2925 1112.28C96.2801 1108.56 102.078 1104.39 107.176 1103.01C117.696 1100.17 119.79 1092.46 110.002 1092.62C106.458 1092.68 98.5917 1094.26 92.5183 1096.15Z" fill="black" fill-opacity="0.08"/>
<path fill-rule="evenodd" clip-rule="evenodd" d="M1344.97 1277.46C1344.5 1281.75 1328.99 1302.08 1312.76 1319.66C1312.53 1319.91 1311.5 1318.14 1310.47 1315.71C1308.94 1312.11 1297.44 1301.86 1294.93 1301.86C1294.59 1301.86 1294.02 1308.36 1293.66 1316.31C1293.08 1329.17 1292.38 1332.53 1287.3 1346.82C1279.85 1367.75 1279.59 1376.96 1286 1392.43C1289.17 1400.06 1290.12 1404.04 1289.69 1407.92C1289.37 1410.78 1285.25 1421.18 1280.54 1431.03C1272.62 1447.58 1272.12 1449.11 1274.04 1451.19C1275.18 1452.43 1276.58 1453.45 1277.16 1453.45C1277.73 1453.45 1279.46 1449.26 1280.99 1444.14C1284.77 1431.5 1289.74 1422.84 1295.23 1419.3C1297.75 1417.68 1304.43 1415.2 1310.08 1413.79C1327.67 1409.4 1333.56 1402.3 1338.2 1379.89C1341.29 1364.97 1342.64 1362.16 1353.21 1348.75C1361.66 1338.02 1366.3 1330.38 1365.08 1329.18C1364.69 1328.79 1361.3 1329.97 1357.54 1331.8C1353.79 1333.64 1350.47 1334.9 1350.18 1334.61C1349.88 1334.32 1350.59 1331.73 1351.76 1328.86C1354.19 1322.88 1354.44 1320.63 1352.57 1321.77C1351.86 1322.21 1350.67 1322.19 1349.93 1321.75C1349.12 1321.25 1350.65 1317.26 1353.84 1311.56C1356.73 1306.4 1359.09 1301.82 1359.09 1301.38C1359.09 1300.93 1357.75 1300.57 1356.12 1300.57C1352.78 1300.57 1348.79 1302.94 1342.28 1308.79C1338.84 1311.89 1338.07 1312.2 1338.82 1310.21C1341.66 1302.68 1346.09 1282.71 1345.67 1279.37C1345.4 1277.25 1345.08 1276.39 1344.97 1277.46ZM1252.06 1309.15C1250.88 1311.14 1249.24 1315.38 1248.41 1318.56C1245.85 1328.47 1245.65 1328.54 1242.58 1320.51L1239.64 1312.83L1237.97 1323.4C1236.34 1333.75 1234.94 1336.3 1233.44 1331.65C1232.43 1328.49 1224.92 1321.61 1221.34 1320.55C1218.63 1319.74 1218.77 1320.34 1223.54 1329.53C1232.18 1346.19 1233.13 1354.82 1228.15 1371.23C1222.43 1390.08 1223.6 1395.83 1236.64 1412.98C1247.79 1427.65 1248.61 1429.29 1248.18 1436.15C1247.78 1442.54 1247.77 1442.52 1252.4 1443.61L1255.79 1444.41L1256.69 1433.84C1257.48 1424.48 1258.17 1422.37 1262.66 1415.55C1269.23 1405.57 1270.49 1402.07 1270.49 1393.83C1270.49 1385.51 1264.6 1373.01 1258.19 1367.71C1248.89 1360.04 1247.65 1350.82 1252.31 1324.31C1255.32 1307.24 1255.26 1303.75 1252.06 1309.15ZM858.407 1376.05C853.55 1393.66 851.825 1423.46 854.93 1436.11C857.49 1446.53 864.843 1460.44 871.707 1467.85C879.637 1476.41 887.339 1480.62 903.169 1485.05C918.562 1489.36 923.173 1491.66 930.113 1498.49C940.534 1508.74 947.822 1523.1 949.511 1536.69L950.261 1542.74L944.629 1534.38C936.008 1521.61 918.092 1504.41 910.445 1501.59C904.616 1499.43 903.333 1499.39 894.16 1501.08C877.709 1504.11 869.665 1503.57 860.496 1498.83C838.177 1487.28 831.386 1490.38 805.829 1523.77C794.619 1538.41 791.378 1541.36 777.436 1549.56C770.67 1553.54 767.391 1557.56 772.482 1555.64C778.799 1553.25 788.694 1552.13 799.377 1552.61C809.976 1553.08 812.511 1553.71 823.09 1558.53C829.604 1561.5 836.849 1563.93 839.189 1563.93C842.755 1563.93 843.28 1564.3 842.436 1566.18C840.24 1571.08 841.098 1575.97 844.467 1577.76C848.755 1580.05 866.249 1579.01 881.04 1575.58C887.079 1574.19 897.297 1572.4 903.746 1571.61C921.28 1569.47 926.821 1567.31 935.875 1559.04L943.781 1551.82L947.392 1555.81C958.341 1567.89 963.656 1606.91 958.407 1636.67C953.795 1662.81 946.664 1687.97 940.668 1699.26L938.747 1702.87L935.245 1697.65C928.942 1688.26 914.897 1674.68 907.959 1671.28C898.545 1666.65 892.143 1666.95 879.883 1672.62C874.377 1675.16 867.125 1677.62 863.766 1678.08L857.661 1678.91L866.275 1685.98C883.728 1700.29 892.073 1703.24 904.797 1699.59C913.98 1696.96 916.829 1697.04 923.659 1700.09C934.038 1704.74 936.025 1713.87 932.461 1740.49C930.3 1756.62 930.995 1764.79 936.398 1786.83C939.13 1797.97 939.747 1803.15 939.315 1811.29C938.487 1826.87 934.15 1835.12 908.655 1869.56C897.427 1884.73 891.678 1895.37 883.96 1915.24C871.15 1948.23 869.532 1971.14 880.119 1969.64C884.146 1969.07 885.739 1964.48 887.206 1949.23C891.051 1909.24 918.773 1859.65 960.419 1818.26C981.322 1797.49 1012.18 1777.36 1031.99 1771.55C1045.02 1767.74 1054.28 1769.06 1077.13 1777.97L1089.59 1782.84L1083.96 1787.3C1072.64 1796.28 1058.68 1811.33 1054.64 1818.94C1052.38 1823.18 1049.67 1829.97 1048.6 1834.03L1046.66 1841.42L1051.64 1840.63L1056.63 1839.84L1057.06 1865.37C1057.48 1890.61 1057.52 1890.95 1061.1 1896.95C1065.29 1903.99 1075.28 1910.72 1078.11 1908.41C1079.04 1907.65 1082.05 1902.97 1084.81 1898.01C1090.47 1887.82 1090.32 1887.82 1098.16 1898.35C1102.28 1903.88 1102.97 1905.78 1102.9 1911.35C1102.85 1915.15 1101.66 1920.27 1100.04 1923.65C1096.56 1930.93 1096.48 1938.06 1099.82 1944.76C1101.25 1947.63 1107.73 1955.66 1114.21 1962.6C1126.98 1976.25 1127.69 1977.44 1129.1 1987.56C1129.61 1991.27 1130.53 1994.61 1131.14 1994.98C1131.75 1995.35 1137.25 1991.02 1143.35 1985.35C1152.1 1977.22 1155.27 1975.03 1158.33 1975.03C1160.46 1975.03 1162.57 1975.61 1163.01 1976.32C1164.7 1979.02 1166.15 1977.31 1169.5 1968.66C1173.59 1958.12 1177.88 1951.45 1180.94 1950.87C1182.15 1950.64 1184.7 1951.98 1186.59 1953.85L1190.04 1957.25L1194.38 1953.09C1204.84 1943.1 1212.58 1921.35 1211.55 1904.86C1211.05 1896.93 1209.91 1893.48 1202.95 1879.01C1198.54 1869.82 1194.93 1861.64 1194.93 1860.83C1194.93 1860.02 1196.45 1857.09 1198.31 1854.32C1202.69 1847.8 1202.82 1838.65 1198.67 1830.1C1192.24 1816.82 1168.6 1797.96 1146.73 1788.65C1131.34 1782.11 1114.34 1778.91 1112.29 1782.18C1111.9 1782.81 1114.14 1785.65 1117.27 1788.49C1126.44 1796.83 1129.59 1801.8 1134.2 1815.25C1136.58 1822.23 1141.29 1834.16 1144.65 1841.76C1151.49 1857.22 1153.97 1868.14 1152.63 1876.95L1151.73 1882.88L1145.21 1876.6C1137.43 1869.1 1135 1864.9 1135 1858.94C1135 1856.49 1134.64 1853.57 1134.21 1852.45C1133.34 1850.21 1127.81 1849.67 1126.53 1851.7C1125.14 1853.92 1123.27 1853.11 1123.27 1850.28C1123.27 1848.8 1124.74 1845.86 1126.53 1843.76C1130.98 1838.55 1130.73 1833.14 1125.33 1817.32C1116.76 1792.22 1108.56 1781.56 1091.19 1772.94C1082.2 1768.47 1058.31 1760.49 1053.95 1760.49C1050.13 1760.49 1051.22 1758.54 1058.96 1751.57C1069.29 1742.25 1074.46 1739.94 1084.92 1739.94C1101.83 1739.94 1134.39 1753.55 1163.01 1772.59C1172.33 1778.79 1180.18 1784.08 1180.46 1784.35C1180.74 1784.62 1180.31 1785.62 1179.5 1786.59C1178.34 1787.97 1180.27 1790.49 1188.76 1798.63C1197.54 1807.05 1202.17 1810.27 1214.25 1816.34C1238.77 1828.67 1244.39 1836.16 1248.9 1862.53C1250.11 1869.55 1251.38 1875.76 1251.74 1876.33C1252.1 1876.9 1253.97 1876.41 1255.91 1875.23C1263.09 1870.86 1270.4 1862.7 1273.98 1855.07C1277.42 1847.73 1277.66 1846.14 1277.59 1831.15C1277.53 1817.16 1277.08 1813.87 1274.1 1805.67C1267.43 1787.31 1254.64 1771.16 1241.18 1764.12C1226.41 1756.4 1212.24 1756.93 1197.15 1765.77C1181.31 1775.05 1179.04 1774.9 1161.42 1763.47C1127.82 1741.67 1100.91 1727.89 1088.75 1726.25C1085.47 1725.8 1082.96 1725.05 1083.17 1724.58C1083.37 1724.11 1086.1 1721.46 1089.22 1718.7C1094.41 1714.12 1095.61 1713.66 1102.86 1713.43C1112.53 1713.13 1116.02 1710.15 1114.72 1703.3C1114.13 1700.21 1114.99 1696.73 1118.07 1689.81C1124.01 1676.47 1122.25 1669.99 1110.88 1663.42L1104.99 1660.01L1096.34 1667.49C1080.87 1680.89 1076.25 1690.76 1083.2 1695.56L1086.12 1697.57L1082.89 1703.66C1077.85 1713.13 1059.35 1730.48 1039.24 1744.58C1023.9 1755.34 984.575 1787.07 958.139 1810.02C951.383 1815.89 951.3 1815.92 951.3 1812.55C951.3 1810.68 949.834 1802.17 948.042 1793.64C943.841 1773.65 943.8 1763.24 947.89 1754.71C952.003 1746.13 956.047 1742.65 971.494 1734.4C979.722 1730.01 985.549 1725.97 987.31 1723.43C989.568 1720.18 994.285 1709.44 1003.05 1687.58C1004.07 1685.02 994.077 1685.61 986.011 1688.59C976.938 1691.94 968.894 1697.7 966.248 1702.74C965.104 1704.93 963.333 1711.01 962.312 1716.27C960.137 1727.49 957.298 1733.3 950.13 1741.22C946.16 1745.6 944.883 1746.42 944.841 1744.58C944.68 1737.59 949.623 1714.29 955.179 1695.83C972.421 1638.58 973.595 1620.19 963.553 1564.58C955.711 1521.15 956.837 1503.14 968.187 1490.42C972.37 1485.74 975.978 1483.51 986.457 1479.15C1005.71 1471.14 1012.47 1465.61 1016.34 1454.73C1017.21 1452.26 1018.43 1442.43 1019.03 1432.89C1020.31 1412.79 1021.75 1407.04 1026.43 1403.4C1029.33 1401.16 1029.46 1400.78 1027.37 1400.79C1026.01 1400.79 1020.22 1401.9 1014.49 1403.25C1008.75 1404.6 1000.25 1406.38 995.596 1407.2C990.938 1408.02 984.329 1410.19 980.908 1412.02C966.968 1419.48 954.884 1438.21 952.212 1456.5C950.857 1465.77 950.9 1466.04 954.976 1473.76C957.254 1478.08 959.117 1482.67 959.117 1483.98C959.117 1485.28 956.771 1491.13 953.905 1496.97C951.039 1502.82 948.694 1508.71 948.694 1510.07C948.694 1511.43 948.254 1512.53 947.717 1512.52C945.858 1512.46 934.311 1487.48 934.367 1483.64C934.399 1481.52 935.913 1476.32 937.732 1472.08C944.204 1456.99 944.944 1454.11 944.899 1444.19C944.808 1424.23 933.862 1403.67 915.545 1389.06L907.75 1382.84L904.431 1385.97L901.114 1389.1L898.03 1384.67C893.667 1378.39 888.556 1375.69 873.923 1371.94C866.881 1370.14 860.967 1368.66 860.781 1368.66C860.596 1368.66 859.528 1371.98 858.407 1376.05ZM1416.98 1396.82C1410.49 1399.68 1408.27 1402.95 1404.6 1415.04C1398.97 1433.55 1395.71 1436.97 1380.28 1440.55C1372.07 1442.46 1363.89 1448.02 1360.89 1453.74C1359.36 1456.66 1358.35 1463.25 1357.61 1475.32C1356.24 1497.22 1353.18 1509.03 1343.91 1528.14C1338.15 1540.01 1335.55 1543.98 1331.87 1546.47C1325.61 1550.72 1320.85 1552.37 1314.91 1552.37C1309.66 1552.37 1310.04 1551.98 1296.43 1571.36C1290.14 1580.32 1282.57 1583.53 1273.43 1581.11C1269.44 1580.06 1269.74 1578.51 1274.41 1576.14C1284.08 1571.2 1305.24 1545.26 1308.22 1534.68C1310.14 1527.86 1309.86 1510.84 1307.66 1500.61C1301.95 1474.06 1281.78 1454.4 1253.56 1447.89C1238.69 1444.46 1236.62 1444.18 1236.62 1445.61C1236.62 1447.57 1242.68 1450.22 1251.41 1452.07C1260.7 1454.05 1267.09 1459.29 1273.99 1470.62C1276.63 1474.95 1281.72 1482.82 1285.3 1488.1C1292.52 1498.75 1296.55 1507.99 1296.55 1513.91C1296.55 1518.83 1293.43 1524.89 1289.94 1526.73C1287.34 1528.1 1287.33 1528.04 1289.31 1524.26C1291.81 1519.48 1291.92 1512.54 1289.56 1506.99C1288.59 1504.68 1283.71 1499.06 1278.72 1494.5C1272.36 1488.69 1268.55 1483.91 1265.96 1478.5C1260.84 1467.8 1244.27 1451.77 1232.12 1445.74C1224.14 1441.78 1221.89 1441.25 1213.23 1441.26C1204.57 1441.28 1202.44 1441.79 1195.3 1445.59C1185.34 1450.9 1177.91 1457.92 1174.35 1465.39C1170.1 1474.29 1165.95 1497.59 1166.93 1506.97C1167.55 1512.92 1167.24 1515.86 1165.71 1518.79C1162.37 1525.16 1163.21 1533.33 1168.87 1549.47C1172.95 1561.11 1174.08 1566.22 1174.08 1573.02C1174.08 1581.46 1174.19 1581.74 1177.67 1582.48C1179.64 1582.89 1183.15 1582.69 1185.48 1582.03C1194.75 1579.37 1200.95 1572.6 1213.12 1551.81C1220.64 1538.97 1220.75 1537.13 1214.38 1529.98C1210.54 1525.67 1210.48 1525.42 1212.46 1521.65C1216.38 1514.17 1221.98 1513.28 1229.55 1518.93C1236.36 1524.01 1237.18 1523.8 1234.04 1517.73C1231.06 1511.97 1229.03 1510.61 1220.59 1508.75C1212.75 1507.01 1207.33 1508.23 1202.75 1512.74C1199.01 1516.43 1198.99 1516.43 1194.36 1514.25C1191.78 1513.04 1189.72 1511.12 1189.72 1509.93C1189.72 1505.76 1195.63 1499.03 1202.1 1495.84C1207.7 1493.08 1210.12 1492.68 1219.38 1492.94C1232.41 1493.31 1246.95 1496.15 1253.75 1499.65C1259.48 1502.59 1260.12 1501.51 1256.99 1494.14C1254.49 1488.23 1248.09 1483.37 1239.6 1480.94C1229.52 1478.05 1211.34 1479.01 1200.79 1482.99C1190.32 1486.94 1181.34 1495.66 1179.23 1503.92C1177.62 1510.23 1174.87 1511.87 1173.42 1507.38C1170.59 1498.58 1183.14 1484.39 1201.8 1475.28C1209.41 1471.56 1212.68 1469.35 1211.57 1468.66C1209.23 1467.19 1204.02 1467.34 1196.34 1469.09C1188.66 1470.83 1187 1469.99 1190.49 1466.12C1197.2 1458.66 1214.28 1456.11 1229.07 1460.35C1237.97 1462.9 1242.93 1466.81 1249.65 1476.58C1255.19 1484.62 1264.32 1493.14 1271.91 1497.34C1274.57 1498.82 1277.39 1501.42 1278.18 1503.13C1280.15 1507.41 1279.98 1514.13 1277.82 1517.04C1276.13 1519.32 1275.97 1519.22 1275.12 1515.4C1274.28 1511.62 1267.91 1504.84 1265.2 1504.84C1264.53 1504.84 1264.35 1508.85 1264.78 1514.15C1265.48 1522.55 1265.24 1523.91 1262.44 1527.96C1260.73 1530.43 1255.25 1535.21 1250.26 1538.57C1245.27 1541.92 1239.89 1546.11 1238.32 1547.87C1235.88 1550.59 1234.94 1550.88 1232.04 1549.79C1222.33 1546.15 1217.22 1549.95 1206.14 1569.07C1202.65 1575.08 1198.91 1581 1197.82 1582.24C1195.39 1584.98 1195.91 1585.02 1201.9 1582.56C1207.79 1580.13 1215.71 1580.13 1224.9 1582.56C1242.5 1587.22 1252.64 1583.66 1259.43 1570.44C1261.16 1567.06 1261.54 1563.98 1261.06 1557.31C1260.32 1547.11 1261.55 1544.65 1269.39 1540.71L1274.63 1538.07L1273.78 1540.72C1273.31 1542.18 1273.28 1543.38 1273.71 1543.38C1276.25 1543.38 1284.47 1538.93 1289.66 1534.75L1295.69 1529.89L1294.84 1535.03C1293.86 1541.06 1284.73 1554.38 1281.75 1554.13C1280.62 1554.03 1274.45 1559.31 1268.02 1565.86C1253.26 1580.91 1250.9 1587.5 1256.9 1596.89C1259.46 1600.9 1270.46 1604.24 1276.08 1602.71C1281.29 1601.29 1287.51 1603.05 1295.31 1608.14C1299.29 1610.74 1300.46 1612.33 1300.46 1615.13C1300.46 1619.96 1293.99 1632.45 1287.47 1640.19C1284.59 1643.62 1282.22 1647.47 1282.22 1648.74C1282.22 1651.52 1276.15 1653.86 1268.93 1653.86C1266.14 1653.86 1262.19 1654.71 1260.16 1655.74C1253.87 1658.95 1244.38 1675.49 1246.18 1680.11C1246.68 1681.4 1249.72 1681.8 1258.05 1681.66L1269.24 1681.48L1277.13 1673.53C1284.57 1666.04 1288.82 1663.8 1294.32 1664.49C1296.09 1664.71 1297.58 1662.51 1300.53 1655.32C1305.78 1642.53 1310.12 1636.94 1324.57 1624.38C1338.2 1612.52 1340.2 1608.95 1339.29 1598.15C1338.87 1593.21 1337.53 1589.82 1333.93 1584.67C1331.29 1580.88 1329.12 1577.18 1329.12 1576.45C1329.12 1575.72 1331.78 1572.07 1335.02 1568.33C1342.21 1560.02 1349.77 1547.83 1353.93 1537.83C1359.52 1524.38 1364.23 1520.45 1382.73 1513.82C1397.14 1508.64 1406.51 1498.92 1410.56 1484.92C1411.58 1481.39 1413.03 1471.38 1413.77 1462.68C1414.52 1453.98 1415.96 1445.28 1416.97 1443.35C1418.9 1439.68 1426.13 1432.86 1436.25 1425.19C1442.56 1420.4 1446.81 1415 1448.38 1409.77C1449.21 1407 1448.44 1407.39 1442.85 1412.52C1437.17 1417.75 1429.77 1422.62 1427.52 1422.62C1427.11 1422.62 1427.59 1421.03 1428.59 1419.08C1429.59 1417.14 1430.83 1414.21 1431.35 1412.57C1432.27 1409.63 1432.22 1409.62 1428.41 1411.56C1426.28 1412.64 1423.03 1415.3 1421.18 1417.47L1417.82 1421.4L1415.67 1418.17C1412.99 1414.13 1413.9 1410 1419.28 1401.69C1421.47 1398.31 1423.03 1395.31 1422.74 1395.02C1422.45 1394.74 1419.86 1395.55 1416.98 1396.82ZM1160.26 1412.13C1155.73 1414.95 1150.63 1424.14 1150.63 1429.48C1150.63 1432.09 1149.75 1433.29 1147.05 1434.29C1134.6 1438.93 1127.36 1455.86 1131.09 1471.61C1132.55 1477.76 1133.94 1479.68 1144.05 1489.42C1150.28 1495.43 1156.49 1502.03 1157.86 1504.09L1160.33 1507.83L1161.38 1502.87C1161.97 1500.09 1161.84 1493.74 1161.09 1488.43C1158.4 1469.35 1160.4 1453.92 1167.17 1441.66C1170.08 1436.38 1172 1434.74 1179.69 1430.95C1184.68 1428.49 1190.45 1426.47 1192.5 1426.47C1196.99 1426.47 1197.3 1424.3 1193.5 1419.54C1186.89 1411.24 1168.33 1407.11 1160.26 1412.13ZM1114.38 1432.22C1110.03 1436.8 1104.95 1443.11 1103.09 1446.25L1099.69 1451.97L1092.71 1451.25C1079.04 1449.86 1067.27 1459.23 1057.76 1479.06C1051.14 1492.88 1051.16 1496.37 1057.97 1509.07C1061.29 1515.27 1063.34 1520.8 1063.34 1523.57C1063.34 1529.83 1065.96 1535.32 1072.46 1542.74C1079.9 1551.21 1081.29 1554.91 1082.74 1570.11C1083.49 1577.97 1084.78 1584.19 1086.08 1586.14C1088.28 1589.45 1103.47 1600.59 1104.45 1599.62C1104.76 1599.31 1102.68 1595.97 1099.81 1592.18C1090.13 1579.39 1089.78 1571.97 1097.87 1551.8C1106.33 1530.7 1106.15 1528.94 1093.63 1510.55C1088.9 1503.6 1088.18 1497.53 1091.38 1491.49C1092.46 1489.45 1099.13 1480.2 1106.21 1470.94C1121.17 1451.38 1127.2 1440.55 1127.14 1433.38C1127.1 1428.97 1124.86 1423.9 1122.95 1423.9C1122.58 1423.9 1118.72 1427.65 1114.38 1432.22ZM1108.93 1472.43C1103.86 1477.43 1099.82 1487.42 1099.82 1494.95C1099.82 1497.03 1101.64 1506.31 1103.87 1515.59C1108.13 1533.35 1108.14 1533.68 1105.55 1562.91C1104.75 1571.94 1104.97 1573.4 1108.07 1579.67C1110.28 1584.1 1113.59 1588.09 1117.46 1590.94C1123.81 1595.64 1127.6 1600.82 1129.02 1606.74C1130.09 1611.24 1135.03 1618.88 1137.48 1619.82C1140.45 1620.97 1150.29 1609.35 1155.89 1598.06C1164.84 1580.03 1166.98 1565.45 1163.08 1549.15C1158.47 1529.89 1148.69 1514.98 1133.37 1503.86C1115.11 1490.61 1113.99 1488.12 1121.17 1476.65C1123.76 1472.51 1125.88 1468.77 1125.88 1468.35C1125.88 1467.93 1123.17 1467.58 1119.86 1467.58C1114.64 1467.58 1113.2 1468.22 1108.93 1472.43ZM1037.69 1482.36C1033.03 1486.96 1027.74 1491.08 1025.94 1491.53C1024.15 1491.97 1017.32 1491.9 1010.77 1491.37C995.874 1490.15 991.121 1490.37 985.984 1492.49C969.915 1499.13 960.28 1521.55 969.298 1531.32C977.386 1540.08 977.535 1540.52 976.611 1552.94C975.544 1567.27 976.661 1570.28 987.518 1582.33C991.86 1587.14 996.59 1593.43 998.03 1596.3C1000.42 1601.07 1000.48 1601.78 998.649 1604.53C995.395 1609.42 995.734 1621.51 999.283 1627.17C1002.88 1632.91 1022.73 1647.55 1033.88 1652.7C1046.19 1658.38 1054.29 1659.34 1084.19 1658.66C1111.63 1658.04 1122.17 1656.34 1125.88 1651.93C1127.29 1650.26 1126.5 1650 1119.85 1649.99C1105.91 1649.96 1096.5 1646.5 1083.69 1636.69C1079.47 1633.46 1069.69 1626.95 1061.97 1622.23C1048.6 1614.05 1038.88 1606.17 1035.27 1600.55C1034.36 1599.13 1032.95 1594.51 1032.14 1590.27C1031.33 1586.03 1027.9 1576.78 1024.53 1569.71C1018.93 1557.99 1018.41 1556.08 1018.55 1547.83C1018.81 1532.41 1024.77 1517.68 1030.75 1517.68C1034.05 1517.68 1039.61 1524.54 1040.62 1529.85C1041.08 1532.26 1040.45 1540.13 1039.22 1547.34C1035.32 1570.28 1037.66 1576.79 1054.89 1590.84C1060.13 1595.12 1068.97 1603.8 1074.52 1610.13C1091.09 1629.04 1100.45 1635.05 1113.5 1635.16C1124.24 1635.26 1129.5 1632.9 1130.52 1627.54C1132.2 1618.73 1126.81 1613.56 1108.55 1606.42C1096.85 1601.85 1093.05 1599.69 1087.01 1594.21C1080.93 1588.7 1079.4 1585.28 1074.96 1567.42C1071.5 1553.45 1070.27 1550.57 1063.82 1541.23C1057.74 1532.43 1056.42 1529.48 1055.65 1523.06C1054.93 1517.01 1053.85 1514.39 1050.57 1510.71C1045.29 1504.78 1045.16 1499.94 1049.9 1486.44C1052.91 1477.9 1053.15 1476.22 1051.55 1475.22C1048.04 1473.03 1046.18 1473.99 1037.69 1482.36ZM1196.58 1587.01C1184.34 1588.39 1174.56 1590.7 1168.87 1593.54C1159.62 1598.17 1151.94 1609.13 1151.94 1617.69C1151.94 1627.22 1159.15 1639.06 1168.1 1644.22C1173.44 1647.29 1186.37 1650.04 1194.93 1649.92L1199.49 1649.86L1192.76 1646.84C1186.27 1643.93 1175.2 1637.16 1176.93 1637.16C1177.4 1637.16 1180.61 1638.36 1184.07 1639.83C1196.76 1645.2 1211.55 1647.88 1228.8 1647.95C1252.14 1648.05 1266.6 1643.24 1279.96 1630.95C1285.37 1625.97 1292.64 1616.77 1292.64 1614.89C1292.64 1614.62 1287.24 1614 1280.63 1613.51C1269.78 1612.7 1242.57 1608.21 1240.36 1606.87C1239.87 1606.57 1240.11 1604.29 1240.88 1601.8C1243.73 1592.65 1235.24 1587.32 1216.43 1586.44C1210.69 1586.17 1201.76 1586.43 1196.58 1587.01ZM1141.51 1636.53C1141.51 1639.13 1147.75 1646.85 1155.73 1654.13C1172.25 1669.18 1200.56 1682.25 1217.23 1682.5C1224.79 1682.62 1226.82 1682.12 1232.27 1678.79C1239.62 1674.32 1245.15 1665.82 1243.9 1660.91C1242.46 1655.25 1239.44 1654.75 1217.56 1656.48C1206.53 1657.36 1194.07 1657.72 1189.87 1657.29C1176.92 1655.96 1161.04 1649.07 1144.45 1637.59C1142.83 1636.47 1141.51 1636 1141.51 1636.53ZM1408.98 1641.62C1387.99 1647.44 1363.68 1658.91 1353.82 1667.64C1346.4 1674.23 1344.41 1679.4 1346.24 1687.41C1347.85 1694.48 1347.33 1695.47 1341.16 1697.3C1332.96 1699.72 1317.77 1699.09 1300.46 1695.61C1283.35 1692.18 1271.56 1691.59 1263.59 1693.77C1258.99 1695.03 1258.32 1694.85 1254.1 1691.2C1248.25 1686.13 1241.73 1686.01 1226.55 1690.68C1217.09 1693.59 1214.84 1693.87 1211.29 1692.6C1205.68 1690.6 1202.73 1690.73 1200.09 1693.09C1198.07 1694.89 1197.09 1694.47 1188.84 1688.27C1169.69 1673.89 1162.05 1667.02 1155.08 1657.97C1147.51 1648.13 1141.65 1643.6 1136.47 1643.59C1133.74 1643.58 1133.59 1643.83 1135.17 1645.71C1137.56 1648.55 1137.21 1660.6 1134.34 1674.42C1129.96 1695.5 1131.53 1705.17 1141 1715.5C1157.8 1733.85 1185.27 1744.28 1196.06 1736.41L1199.96 1733.57L1210.8 1739.22C1216.76 1742.33 1225.08 1745.75 1229.28 1746.82C1233.49 1747.89 1238.3 1750.03 1239.97 1751.59L1243.02 1754.41L1249.56 1750.27C1266.68 1739.44 1274.18 1721.37 1267.33 1707.45C1266.02 1704.78 1265.17 1702.4 1265.44 1702.16C1266.17 1701.54 1301.03 1704.91 1311.2 1706.59C1316.04 1707.39 1320.33 1708.58 1320.73 1709.23C1322.04 1711.32 1316.03 1721.36 1308.02 1730.45C1297.47 1742.43 1294.22 1748.25 1291.86 1759.39C1289.34 1771.28 1290.07 1779.05 1296.36 1806.88L1301.19 1828.22L1307.16 1822.94C1310.44 1820.04 1318.8 1814.52 1325.74 1810.67C1340.27 1802.63 1348.06 1795.15 1349.44 1787.91C1349.96 1785.19 1349.7 1779.06 1348.87 1774.28C1346.65 1761.48 1346.99 1756.38 1350.61 1748.73C1352.39 1744.95 1353.86 1740.82 1353.86 1739.55C1353.89 1735.35 1350.24 1730.36 1344.3 1726.45C1337.92 1722.25 1333.69 1716.48 1334.83 1713.53C1337.69 1706.2 1364.1 1720.13 1366.19 1730.08C1366.51 1731.61 1367.65 1737.36 1368.71 1742.85C1372.42 1761.91 1384.51 1780.58 1401.43 1793.39C1418.85 1806.57 1427.27 1808.8 1463.31 1809.78C1478 1810.19 1492.25 1811.05 1494.96 1811.72C1499.02 1812.7 1499.65 1812.61 1498.47 1811.21C1497.68 1810.27 1495.33 1802.73 1493.26 1794.45C1483.74 1756.49 1459.17 1725.2 1431.07 1715.25C1420.26 1711.42 1405.6 1710.84 1390.16 1713.63L1377.36 1715.95L1364.64 1710.73C1357.65 1707.86 1350.75 1705.1 1349.32 1704.59C1347.04 1703.79 1347.28 1703.46 1351.27 1701.99C1357.98 1699.51 1362.62 1699.75 1380.97 1703.48C1400.25 1707.41 1412.48 1707.15 1424.97 1702.54C1434.3 1699.09 1441.13 1692.32 1450.67 1677.03C1454.4 1671.05 1459.35 1664.9 1461.66 1663.37L1465.87 1660.57L1461.89 1658.95C1459.7 1658.05 1454.58 1654.76 1450.51 1651.63C1446.45 1648.49 1440.78 1644.74 1437.91 1643.28C1431.22 1639.87 1418.02 1639.12 1408.98 1641.62Z" fill="black" fill-opacity="0.08"/>
</g>
<defs>
<filter id="filter0_d_0_3" x="0" y="0" width="1448" height="2392" filterUnits="userSpaceOnUse" color-interpolation-filters="sRGB">
<feFlood flood-opacity="0" result="BackgroundImageFix"/>
<feColorMatrix in="SourceAlpha" type="matrix" values="0 0 0 0 0 0 0 0 0 0 0 0 0 0 0 0 0 0 127 0" result="hardAlpha"/>
<feOffset dy="4"/>
<feGaussianBlur stdDeviation="2"/>
<feComposite in2="hardAlpha" operator="out"/>
<feColorMatrix type="matrix" values="0 0 0 0 0 0 0 0 0 0 0 0 0 0 0 0 0 0 0.25 0"/>
<feBlend mode="normal" in2="BackgroundImageFix" result="effect1_dropShadow_0_3"/>
<feBlend mode="normal" in="SourceGraphic" in2="effect1_dropShadow_0_3" result="shape"/>
</filter>
<filter id="filter1_f_0_3" x="-758" y="1106" width="2116" height="2169" filterUnits="userSpaceOnUse" color-interpolation-filters="sRGB">
<feFlood flood-opacity="0" result="BackgroundImageFix"/>
<feBlend mode="normal" in="SourceGraphic" in2="BackgroundImageFix" result="shape"/>
<feGaussianBlur stdDeviation="382" result="effect1_foregroundBlur_0_3"/>
</filter>
<filter id="filter2_f_0_3" x="-58" y="371" width="2458" height="2239" filterUnits="userSpaceOnUse" color-interpolation-filters="sRGB">
<feFlood flood-opacity="0" result="BackgroundImageFix"/>
<feBlend mode="normal" in="SourceGraphic" in2="BackgroundImageFix" result="shape"/>
<feGaussianBlur stdDeviation="427" result="effect1_foregroundBlur_0_3"/>
</filter>
<filter id="filter3_f_0_3" x="-731" y="-149" width="2007" height="2028" filterUnits="userSpaceOnUse" color-interpolation-filters="sRGB">
<feFlood flood-opacity="0" result="BackgroundImageFix"/>
<feBlend mode="normal" in="SourceGraphic" in2="BackgroundImageFix" result="shape"/>
<feGaussianBlur stdDeviation="322" result="effect1_foregroundBlur_0_3"/>
</filter>
<clipPath id="clip0_0_3">
<rect width="1440" height="2384" fill="white" transform="translate(4)"/>
</clipPath>
</defs>
</svg>
