<svg width="2160" height="2384" viewBox="0 0 2160 2384" fill="none" xmlns="http://www.w3.org/2000/svg">
<g clip-path="url(#clip0_0_1)" filter="url(#filter0_d_0_1)">
<rect width="2160" height="2384" fill="#373A37"/>
<g filter="url(#filter1_f_0_1)">
<path d="M776.5 2168C776.5 2345.01 644.872 2488.5 482.5 2488.5C320.128 2488.5 188.5 2345.01 188.5 2168C188.5 1990.99 320.128 1847.5 482.5 1847.5C644.872 1847.5 776.5 1990.99 776.5 2168Z" fill="#1D40BB"/>
</g>
<g filter="url(#filter2_f_0_1)">
<ellipse cx="1325" cy="1516.5" rx="375" ry="265.5" fill="#CC2727"/>
</g>
<g filter="url(#filter3_f_0_1)">
<path d="M760 881C760 1085.35 599.046 1251 400.5 1251C201.954 1251 41 1085.35 41 881C41 676.655 201.954 511 400.5 511C599.046 511 760 676.655 760 881Z" fill="#1B6800"/>
</g>
<path fill-rule="evenodd" clip-rule="evenodd" d="M453.069 754.661C454.98 756.125 458.85 756.647 461.677 755.816C469.335 753.572 467.911 752 458.21 752C453.478 752 451.165 753.197 453.069 754.661ZM478.247 759.203C478.595 765.587 479.174 765.809 483.382 761.168C489.864 754.014 489.864 752 483.382 752C480.345 752 478.037 755.243 478.247 759.203ZM581.468 758.8C556.307 762.47 510.988 779.55 510.988 785.36C510.988 786.869 526.52 784.132 545.496 779.278C586.967 768.675 593.808 768.334 593.808 776.884C593.808 784.58 597.872 784.931 613.828 778.605C624.269 774.466 643.5 759.853 643.5 756.06C643.5 753.383 607.777 754.96 581.468 758.8ZM444.732 761.168C448.514 763.329 455.09 765.097 459.347 765.097C463.604 765.097 469.33 767.894 472.074 771.313C480.483 781.808 484.464 812.971 478.804 824.032C473.642 834.127 473.427 833.858 472.891 816.627C472.394 800.529 470.727 797.983 456.2 791.089C445.494 786.01 434.452 783.432 423.398 783.432C414.232 783.432 405.2 782.254 403.322 780.813C401.445 779.372 395.057 778.194 389.127 778.194C379.702 778.194 378.775 779.467 381.767 788.341C383.887 794.633 382.86 799.172 379.073 800.283C371.072 802.63 371.304 810.278 379.625 818.946C384.003 823.501 396.636 828.061 416.364 832.199C449.216 839.091 453.334 843.591 420.913 837.163C389.872 831.01 358.423 831.998 342.339 839.631C334.77 843.219 328.613 849.291 328.398 853.382C328.183 857.408 326.04 863.061 323.639 865.942C315.588 875.594 322.402 877.729 361.272 877.729C402.759 877.729 417.424 874.316 428.003 862.204C431.785 857.872 439.178 853.681 444.434 852.89C459.005 850.697 457.801 834.463 441.845 817.929C425.49 800.977 424.916 798.397 439.321 806.601C450.739 813.099 462.704 830.117 463.549 841.058C464.167 849.003 472.852 849.105 481.289 841.268C486.639 836.296 487.953 836.105 490.995 839.869C493.381 842.816 497.627 843.602 504.131 842.305C509.42 841.249 533.626 840.113 557.919 839.775C614.425 838.991 621.415 837.538 621.415 826.557C621.415 821.774 625.478 815.931 630.448 813.573C641.225 808.46 638.741 807.153 600.351 797.75C574.141 791.33 568.808 790.877 550.427 793.488C527.033 796.812 503.612 807.52 496.495 818.144C492.845 823.592 491.664 820.394 491.664 805.047C491.664 782.319 477.098 759.156 464.272 761.49C460.214 762.229 455.25 761.576 453.246 760.036C451.242 758.499 446.957 757.239 443.733 757.239C440.028 757.239 440.398 758.69 444.732 761.168ZM280.777 769.681C266.984 785.088 264.787 814.566 276.365 828.946C281.693 835.568 289.782 842.452 294.331 844.243C301.515 847.072 302.078 846.349 298.583 838.8C293.807 828.48 299.593 807.007 307.157 807.007C313.866 807.007 321.463 815.797 326.399 829.271L330.237 839.748L337.541 831.89C354.602 813.544 341.605 781.258 310.917 765.752C295.055 757.736 290.997 758.266 280.777 769.681ZM486.838 763.868C484.547 766.708 485.176 769.309 488.279 769.801C491.316 770.281 492.348 772.661 490.57 775.09C487.672 779.042 488.428 779.013 497.781 774.825C504.793 771.684 506.234 769.531 502.154 768.277C498.814 767.247 494.921 764.699 493.502 762.611C491.537 759.711 489.963 760.01 486.838 763.868ZM447.493 770.336C449.37 771.776 454.632 772.955 459.187 772.955C463.742 772.955 465.934 771.776 464.057 770.336C462.18 768.895 456.918 767.716 452.363 767.716C447.808 767.716 445.616 768.895 447.493 770.336ZM447.493 778.194C449.37 779.634 455.874 780.813 461.948 780.813C468.021 780.813 471.455 779.634 469.578 778.194C467.701 776.753 461.197 775.574 455.123 775.574C449.05 775.574 445.616 776.753 447.493 778.194ZM582.765 814.451C582.765 815.663 572.672 818.089 560.338 819.841C548.003 821.596 527.745 827.382 515.322 832.7L492.74 842.368L501.298 834.505C513.489 823.304 527.668 817.976 552.674 815.195C581.987 811.936 582.765 811.918 582.765 814.451ZM146.581 816.072C146.581 816.965 151.528 820.889 157.574 824.792C172.073 834.151 179.631 854.336 175.927 873.8C172.144 893.65 180.995 909.311 202.6 920.983C211.898 926.007 221.108 930.116 223.073 930.116C225.033 930.116 226.64 919.215 226.64 905.887C226.64 890.027 229.29 879.447 234.309 875.257L241.978 868.852L253.634 875.573C263.936 881.514 284.36 888.207 292.195 888.207C299.052 888.207 289.732 863.273 278.905 852.662C265.576 839.602 243.817 830.644 207.012 823.066C179.526 817.411 146.581 813.597 146.581 816.072ZM411.085 844.893C400.17 846.8 383.468 850.265 373.965 852.596C358.036 856.505 356.954 856.505 360.129 852.586C364.53 847.14 393.009 841.239 414.365 841.346L430.929 841.427L411.085 844.893ZM501.326 845.412C487.743 848.013 494.816 850.522 517.52 851.158C545.226 851.934 568.598 857.984 576.775 866.497C586.017 876.121 584.256 876.273 563.535 867.642C545.949 860.318 503.159 851.756 497.516 854.433C492.806 856.67 535.779 894.166 547.081 897.678C557.218 900.829 563.054 900.541 592.919 895.402L627.135 889.516L623.634 873.8C621.707 865.156 616.959 856.486 613.089 854.532C599.837 847.848 521.849 841.485 501.326 845.412ZM449.563 858.186C442.353 862.28 427.136 870.547 415.745 876.556C404.36 882.565 395.04 888.662 395.04 890.103C395.04 891.546 402.494 897.175 411.604 902.613C420.715 908.051 428.168 914.696 428.168 917.381C428.168 922.829 439.189 923.84 448.818 919.272C452.28 917.63 468.104 915.312 483.989 914.12C499.874 912.931 515.035 910.442 517.686 908.593C525.686 903.014 517.492 883.209 501.348 869.096C481.736 851.957 471.516 849.94 478.446 864.575C484.293 876.912 480.538 886.541 468.005 891.373C460.523 894.257 459.756 894.084 462.826 890.203C470.208 880.851 473.416 859.839 468.137 855.368C463.168 851.153 461.512 851.405 449.563 858.186ZM331.545 889.768C281.174 896.908 273.417 899.187 258.57 911.207C237.511 928.254 237.683 950.144 259.017 968.097C271.595 978.682 272.114 979.688 261.745 973.336C226.22 951.585 197.962 940.01 156.166 930.085C131.971 924.341 106.871 919.657 100.389 919.678C91.5055 919.71 90.4841 920.283 96.2428 922.015C101.864 923.702 99.3071 924.786 86.5805 926.111C77.0672 927.101 69.2822 928.998 69.2822 930.323C69.2822 934.014 87.5301 933.194 100.367 928.93C110.587 925.532 114.143 925.708 133.341 930.535C192.728 945.474 273.571 986.299 273.571 1001.35C273.571 1006.88 276.227 1008.7 284.288 1008.7C300.521 1008.7 301.89 1005.23 290.025 994.186C284.084 988.659 282.173 985.537 285.784 987.25C299.958 993.974 306.522 990.802 298.136 981.278C280.732 961.52 292.559 936.801 326.372 922.258C339.573 916.579 341.009 916.407 337.177 920.949C313.932 948.502 306.699 960.93 306.699 973.299C306.699 981.073 309.184 988.161 312.22 989.052C315.257 989.942 317.742 993.12 317.742 996.114C317.742 1000.76 321.596 999.846 343.968 989.929C376.732 975.402 410.218 970.237 443.816 974.528C469.142 977.762 476.138 983.96 451.987 981.77C443.832 981.029 423.425 982.121 406.646 984.196C375.164 988.085 327.724 1000.53 331.965 1003.78C333.284 1004.79 344.912 1006.45 357.799 1007.47C370.691 1008.5 399.849 1012.82 422.603 1017.09C485.049 1028.82 506.991 1024.21 524.902 995.6C527.155 991.999 533.94 985.725 539.981 981.66L550.957 974.268L538.457 970.114C531.583 967.83 513.517 960.718 498.306 954.309C473.879 944.017 468.408 942.831 451.408 944.138C426.661 946.045 362.663 966.408 337.37 980.424C319.972 990.066 317.742 990.626 317.742 985.338C317.742 981.39 329.182 974.36 351.532 964.566C383.252 950.67 416.96 927.824 417.076 920.147C417.104 918.264 409.865 913.549 400.992 909.67C391.683 905.599 384.092 899.289 383.048 894.755C380.851 885.226 370.603 884.233 331.545 889.768ZM96.8888 905.958C96.8888 909.222 113.624 919.639 118.864 919.639C121.497 919.639 119.929 916.103 115.385 911.781C107.788 904.557 96.8888 901.125 96.8888 905.958ZM124.495 910.18C124.495 913.669 146.018 927.853 146.399 924.613C146.498 923.749 143.853 919.327 140.518 914.79C134.357 906.401 124.495 903.564 124.495 910.18ZM552.398 908.439C546.325 909.146 538.037 911.006 533.984 912.569C528.275 914.77 532.328 916.202 551.929 918.916C565.854 920.841 577.244 923.513 577.244 924.854C577.244 926.195 556.39 927.209 530.898 927.109C461.749 926.837 456.366 929.894 505.472 941.547C550.747 952.292 571.612 953.195 613.127 946.207C645.173 940.814 649.099 936.343 632.789 923.819C615.452 910.516 584.83 904.656 552.398 908.439ZM146.581 911.611C146.581 916.323 157.96 928.209 161.063 926.737C165.745 924.516 157.535 909.161 151.666 909.161C148.867 909.161 146.581 910.264 146.581 911.611ZM65.1412 917.674C66.4056 919.477 70.7564 920.949 74.8035 920.949C78.8506 920.949 83.2014 919.477 84.4658 917.674C85.8351 915.726 81.9205 914.4 74.8035 914.4C67.6865 914.4 63.7719 915.726 65.1412 917.674ZM106.551 933.312C90.9258 935.863 85.7523 940.594 98.5949 940.594C107.368 940.594 128.344 933.632 124.484 932C122.972 931.358 114.905 931.95 106.551 933.312ZM124.578 940.473C117.031 943.224 112.757 946.377 115.082 947.48C117.406 948.583 126.008 946.304 134.202 942.419C151.285 934.313 144.974 933.037 124.578 940.473ZM124.495 958.154C119.94 958.94 110.002 962.24 102.41 965.488C94.8183 968.736 79.2923 972.807 67.9018 974.533C41.6921 978.506 41.5486 983.803 67.5043 989.686C81.0095 992.748 89.5675 996.92 93.0515 1002.15C100.472 1013.27 117.82 1021.42 141.137 1024.73C158.065 1027.14 165.121 1026.74 186.329 1022.15C200.154 1019.17 222.333 1016.09 235.612 1015.31C258.377 1013.98 258.829 1014.07 243.452 1016.93C211.578 1022.86 164.503 1037.45 154.984 1044.34C139.232 1055.74 138.553 1068.9 153.19 1079.18C160.185 1084.08 172.282 1092.93 180.073 1098.82C197.89 1112.31 215.785 1113.24 231.962 1101.53C238.053 1097.12 252.253 1090.4 263.522 1086.59C289.517 1077.81 295.265 1066.01 283.598 1045.36C277.767 1035.03 276.967 1029.1 280.859 1024.96C288.418 1016.92 283.079 1015.44 263.699 1020.2C238.041 1026.49 220.97 1038.07 209.618 1056.87C203.87 1066.39 197.278 1074.18 194.959 1074.18C186.329 1074.18 191.149 1052.64 202.053 1042.51C211.793 1033.45 245.832 1020.03 270.181 1015.65C284.15 1013.13 244.899 999.927 199.238 991.779C172.663 987.038 153.19 982.493 155.961 981.681C164.773 979.096 200.474 984.269 231.918 992.688C248.659 997.172 263.644 1000.84 265.206 1000.84C280.915 1000.84 230.168 971.376 200.033 962.997C177.025 956.601 145.278 954.565 124.495 958.154ZM312.419 1010.66C312.53 1011.74 325.45 1016.75 341.136 1021.79C372.105 1031.75 391.369 1044.59 388.547 1053.39C387.084 1057.94 382.49 1056.07 363.309 1043.13C334.041 1023.38 302.696 1011.25 295.143 1016.74C292.311 1018.8 291.433 1022.84 293.2 1025.72C294.966 1028.6 298.263 1043.08 300.532 1057.89C303.453 1076.96 307.213 1086.03 313.435 1088.98C318.631 1091.44 337.083 1093.87 358.638 1094.93C378.675 1095.91 398.038 1098.13 401.677 1099.86C415.182 1106.26 427.047 1103.42 430.802 1092.88C432.817 1087.22 443.987 1076.71 456.134 1069.04C468.082 1061.49 477.86 1052.61 477.86 1049.3C477.86 1042.39 449.9 1029.73 417.142 1021.8C380.873 1013.02 311.917 1005.69 312.419 1010.66ZM73.0532 1051.26C48.776 1066.74 40.6817 1073.92 44.3368 1076.72C52.3924 1082.91 91.8644 1089.9 118.753 1089.9C134.058 1089.9 146.581 1089.25 146.581 1088.46C146.581 1085.32 115.617 1074.34 106.551 1074.26C95.2048 1074.17 93.2502 1068.94 104.558 1068.94C117.715 1068.94 134.495 1060.15 138.293 1051.26L141.937 1042.75H114.171C89.2693 1042.75 85.0345 1043.63 73.0532 1051.26ZM465.31 1079.03C456.83 1080.6 457.658 1081.44 471.5 1085.32C486.926 1089.64 504.716 1104.22 498.284 1107.27C496.555 1108.1 489.455 1106.88 482.509 1104.57C468.7 1099.98 441.729 1098.94 436.693 1102.81C434.954 1104.14 437.913 1105.91 443.269 1106.73C448.63 1107.55 458.663 1112.17 465.57 1116.99C491.564 1135.15 534.139 1153.13 542.145 1149.33C546.148 1147.43 535.895 1118.93 524.88 1101.33C513.572 1083.27 490.035 1074.46 465.31 1079.03ZM273.704 1091.94C264.616 1095.43 261.48 1099.54 261.214 1108.31C260.701 1125.44 266.57 1132.28 280.948 1131.3C291.792 1130.57 292.901 1128.92 292.968 1113.47C293.006 1104.11 295.138 1094.38 297.699 1091.86C303.983 1085.68 289.87 1085.73 273.704 1091.94ZM132.777 1096.15C105.105 1101.88 76.747 1119.06 69.8785 1134.25C64.5338 1146.07 61.2873 1171.28 65.1412 1171C65.9031 1170.94 92.5711 1164.76 124.402 1157.25C173.541 1145.66 184.164 1142.01 194.71 1133.12C201.546 1127.35 207.177 1121.17 207.227 1119.36C207.337 1115.29 156.238 1114.86 140.695 1118.8C128.427 1121.92 128.073 1121.48 135.439 1112.28C138.42 1108.56 147.116 1104.39 154.763 1103.01C170.543 1100.17 173.685 1092.46 159.004 1092.62C153.687 1092.68 141.888 1094.26 132.777 1096.15Z" fill="black" fill-opacity="0.08"/>
<path fill-rule="evenodd" clip-rule="evenodd" d="M2011.45 1277.46C2010.76 1281.75 1987.48 1302.08 1963.14 1319.66C1962.79 1319.91 1961.25 1318.14 1959.71 1315.71C1957.42 1312.11 1940.16 1301.86 1936.4 1301.86C1935.88 1301.86 1935.02 1308.36 1934.49 1316.31C1933.62 1329.17 1932.57 1332.53 1924.95 1346.82C1913.78 1367.75 1913.39 1376.96 1923.01 1392.43C1927.75 1400.06 1929.17 1404.04 1928.53 1407.92C1928.06 1410.78 1921.88 1421.18 1914.81 1431.03C1902.92 1447.58 1902.19 1449.11 1905.06 1451.19C1906.77 1452.43 1908.87 1453.45 1909.73 1453.45C1910.6 1453.45 1913.18 1449.26 1915.48 1444.14C1921.15 1431.5 1928.61 1422.84 1936.85 1419.3C1940.62 1417.68 1950.64 1415.2 1959.11 1413.79C1985.51 1409.4 1994.34 1402.3 2001.3 1379.89C2005.93 1364.97 2007.96 1362.16 2023.81 1348.75C2036.49 1338.02 2043.44 1330.38 2041.62 1329.18C2041.03 1328.79 2035.94 1329.97 2030.31 1331.8C2024.68 1333.64 2019.71 1334.9 2019.27 1334.61C2018.82 1334.32 2019.89 1331.73 2021.64 1328.86C2025.28 1322.88 2025.66 1320.63 2022.86 1321.77C2021.79 1322.21 2020 1322.19 2018.9 1321.75C2017.67 1321.25 2019.97 1317.26 2024.76 1311.56C2029.09 1306.4 2032.63 1301.82 2032.63 1301.38C2032.63 1300.93 2030.63 1300.57 2028.18 1300.57C2023.18 1300.57 2017.19 1302.94 2007.42 1308.79C2002.26 1311.89 2001.1 1312.2 2002.23 1310.21C2006.49 1302.68 2013.14 1282.71 2012.5 1279.37C2012.09 1277.25 2011.62 1276.39 2011.45 1277.46ZM1872.09 1309.15C1870.31 1311.14 1867.85 1315.38 1866.62 1318.56C1862.77 1328.47 1862.47 1328.54 1857.86 1320.51L1853.46 1312.83L1850.96 1323.4C1848.51 1333.75 1846.41 1336.3 1844.16 1331.65C1842.64 1328.49 1831.38 1321.61 1826.01 1320.55C1821.94 1319.74 1822.16 1320.34 1829.31 1329.53C1842.27 1346.19 1843.7 1354.82 1836.23 1371.23C1827.64 1390.08 1829.39 1395.83 1848.96 1412.98C1865.69 1427.65 1866.91 1429.29 1866.27 1436.15C1865.67 1442.54 1865.65 1442.52 1872.59 1443.61L1877.69 1444.41L1879.03 1433.84C1880.22 1424.48 1881.25 1422.37 1887.99 1415.55C1897.84 1405.57 1899.74 1402.07 1899.74 1393.83C1899.74 1385.51 1890.91 1373.01 1881.29 1367.71C1867.34 1360.04 1865.47 1350.82 1872.47 1324.31C1876.98 1307.24 1876.89 1303.75 1872.09 1309.15ZM1281.61 1376.05C1274.33 1393.66 1271.74 1423.46 1276.39 1436.11C1280.24 1446.53 1291.26 1460.44 1301.56 1467.85C1313.46 1476.41 1325.01 1480.62 1348.75 1485.05C1371.84 1489.36 1378.76 1491.66 1389.17 1498.49C1404.8 1508.74 1415.73 1523.1 1418.27 1536.69L1419.39 1542.74L1410.94 1534.38C1398.01 1521.61 1371.14 1504.41 1359.67 1501.59C1350.92 1499.43 1349 1499.39 1335.24 1501.08C1310.56 1504.11 1298.5 1503.57 1284.74 1498.83C1251.27 1487.28 1241.08 1490.38 1202.74 1523.77C1185.93 1538.41 1181.07 1541.36 1160.15 1549.56C1150.01 1553.54 1145.09 1557.56 1152.72 1555.64C1162.2 1553.25 1177.04 1552.13 1193.07 1552.61C1208.96 1553.08 1212.77 1553.71 1228.63 1558.53C1238.41 1561.5 1249.27 1563.93 1252.78 1563.93C1258.13 1563.93 1258.92 1564.3 1257.65 1566.18C1254.36 1571.08 1255.65 1575.97 1260.7 1577.76C1267.13 1580.05 1293.37 1579.01 1315.56 1575.58C1324.62 1574.19 1339.95 1572.4 1349.62 1571.61C1375.92 1569.47 1384.23 1567.31 1397.81 1559.04L1409.67 1551.82L1415.09 1555.81C1431.51 1567.89 1439.48 1606.91 1431.61 1636.67C1424.69 1662.81 1414 1687.97 1405 1699.26L1402.12 1702.87L1396.87 1697.65C1387.41 1688.26 1366.35 1674.68 1355.94 1671.28C1341.82 1666.65 1332.21 1666.95 1313.82 1672.62C1305.57 1675.16 1294.69 1677.62 1289.65 1678.08L1280.49 1678.91L1293.41 1685.98C1319.59 1700.29 1332.11 1703.24 1351.2 1699.59C1364.97 1696.96 1369.24 1697.04 1379.49 1700.09C1395.06 1704.74 1398.04 1713.87 1392.69 1740.49C1389.45 1756.62 1390.49 1764.79 1398.6 1786.83C1402.69 1797.97 1403.62 1803.15 1402.97 1811.29C1401.73 1826.87 1395.23 1835.12 1356.98 1869.56C1340.14 1884.73 1331.52 1895.37 1319.94 1915.24C1300.73 1948.23 1298.3 1971.14 1314.18 1969.64C1320.22 1969.07 1322.61 1964.48 1324.81 1949.23C1330.58 1909.24 1372.16 1859.65 1434.63 1818.26C1465.98 1797.49 1512.27 1777.36 1541.98 1771.55C1561.53 1767.74 1575.42 1769.06 1609.69 1777.97L1628.39 1782.84L1619.94 1787.3C1602.95 1796.28 1582.02 1811.33 1575.95 1818.94C1572.58 1823.18 1568.5 1829.97 1566.9 1834.03L1563.99 1841.42L1571.46 1840.63L1578.95 1839.84L1579.58 1865.37C1580.21 1890.61 1580.28 1890.95 1585.65 1896.95C1591.94 1903.99 1606.93 1910.72 1611.16 1908.41C1612.55 1907.65 1617.08 1902.97 1621.21 1898.01C1629.71 1887.82 1629.49 1887.82 1641.24 1898.35C1647.43 1903.88 1648.46 1905.78 1648.35 1911.35C1648.27 1915.15 1646.48 1920.27 1644.06 1923.65C1638.84 1930.93 1638.72 1938.06 1643.72 1944.76C1645.87 1947.63 1655.59 1955.66 1665.32 1962.6C1684.47 1976.25 1685.54 1977.44 1687.64 1987.56C1688.42 1991.27 1689.8 1994.61 1690.72 1994.98C1691.63 1995.35 1699.87 1991.02 1709.03 1985.35C1722.16 1977.22 1726.91 1975.03 1731.49 1975.03C1734.69 1975.03 1737.85 1975.61 1738.52 1976.32C1741.05 1979.02 1743.23 1977.31 1748.26 1968.66C1754.39 1958.12 1760.81 1951.45 1765.41 1950.87C1767.23 1950.64 1771.04 1951.98 1773.89 1953.85L1779.06 1957.25L1785.57 1953.09C1801.26 1943.1 1812.87 1921.35 1811.32 1904.86C1810.58 1896.93 1808.86 1893.48 1798.43 1879.01C1791.81 1869.82 1786.4 1861.64 1786.4 1860.83C1786.4 1860.02 1788.68 1857.09 1791.47 1854.32C1798.03 1847.8 1798.23 1838.65 1792.01 1830.1C1782.35 1816.82 1746.9 1797.96 1714.09 1788.65C1691.01 1782.11 1665.51 1778.91 1662.44 1782.18C1661.85 1782.81 1665.21 1785.65 1669.91 1788.49C1683.66 1796.83 1688.39 1801.8 1695.29 1815.25C1698.88 1822.23 1705.93 1834.16 1710.98 1841.76C1721.24 1857.22 1724.95 1868.14 1722.94 1876.95L1721.59 1882.88L1711.82 1876.6C1700.14 1869.1 1696.5 1864.9 1696.5 1858.94C1696.5 1856.49 1695.97 1853.57 1695.31 1852.45C1694.01 1850.21 1685.71 1849.67 1683.8 1851.7C1681.71 1853.92 1678.91 1853.11 1678.91 1850.28C1678.91 1848.8 1681.11 1845.86 1683.8 1843.76C1690.47 1838.55 1690.1 1833.14 1682 1817.32C1669.14 1792.22 1656.84 1781.56 1630.78 1772.94C1617.31 1768.47 1581.47 1760.49 1574.93 1760.49C1569.19 1760.49 1570.83 1758.54 1582.43 1751.57C1597.94 1742.25 1605.69 1739.94 1621.38 1739.94C1646.75 1739.94 1695.59 1753.55 1738.52 1772.59C1752.49 1778.79 1764.27 1784.08 1764.69 1784.35C1765.11 1784.62 1764.46 1785.62 1763.25 1786.59C1761.51 1787.97 1764.41 1790.49 1777.14 1798.63C1790.31 1807.05 1797.26 1810.27 1815.37 1816.34C1852.15 1828.67 1860.58 1836.16 1867.35 1862.53C1869.16 1869.55 1871.07 1875.76 1871.61 1876.33C1872.15 1876.9 1874.96 1876.41 1877.86 1875.23C1888.63 1870.86 1899.6 1862.7 1904.97 1855.07C1910.12 1847.73 1910.48 1846.14 1910.39 1831.15C1910.3 1817.16 1909.62 1813.87 1905.15 1805.67C1895.15 1787.31 1875.96 1771.16 1855.77 1764.12C1833.62 1756.4 1812.36 1756.93 1789.72 1765.77C1765.96 1775.05 1762.56 1774.9 1736.13 1763.47C1685.72 1741.67 1645.36 1727.89 1627.12 1726.25C1622.21 1725.8 1618.44 1725.05 1618.75 1724.58C1619.05 1724.11 1623.14 1721.46 1627.83 1718.7C1635.61 1714.12 1637.42 1713.66 1648.3 1713.43C1662.8 1713.13 1668.03 1710.15 1666.07 1703.3C1665.19 1700.21 1666.49 1696.73 1671.11 1689.81C1680.02 1676.47 1677.37 1669.99 1660.32 1663.42L1651.48 1660.01L1638.52 1667.49C1615.31 1680.89 1608.37 1690.76 1618.8 1695.56L1623.18 1697.57L1618.33 1703.66C1610.78 1713.13 1583.03 1730.48 1552.86 1744.58C1529.84 1755.34 1470.86 1787.07 1431.21 1810.02C1421.07 1815.89 1420.95 1815.92 1420.95 1812.55C1420.95 1810.68 1418.75 1802.17 1416.06 1793.64C1409.76 1773.65 1409.7 1763.24 1415.84 1754.71C1422 1746.13 1428.07 1742.65 1451.24 1734.4C1463.58 1730.01 1472.32 1725.97 1474.97 1723.43C1478.35 1720.18 1485.43 1709.44 1498.57 1687.58C1500.11 1685.02 1485.12 1685.61 1473.02 1688.59C1459.41 1691.94 1447.34 1697.7 1443.37 1702.74C1441.66 1704.93 1439 1711.01 1437.47 1716.27C1434.21 1727.49 1429.95 1733.3 1419.19 1741.22C1413.24 1745.6 1411.32 1746.42 1411.26 1744.58C1411.02 1737.59 1418.43 1714.29 1426.77 1695.83C1452.63 1638.58 1454.39 1620.19 1439.33 1564.58C1427.57 1521.15 1429.25 1503.14 1446.28 1490.42C1452.56 1485.74 1457.97 1483.51 1473.68 1479.15C1502.57 1471.14 1512.71 1465.61 1518.5 1454.73C1519.82 1452.26 1521.64 1442.43 1522.55 1432.89C1524.46 1412.79 1526.63 1407.04 1533.65 1403.4C1537.99 1401.16 1538.2 1400.78 1535.05 1400.79C1533.02 1400.79 1524.33 1401.9 1515.73 1403.25C1507.13 1404.6 1494.38 1406.38 1487.39 1407.2C1480.41 1408.02 1470.49 1410.19 1465.36 1412.02C1444.45 1419.48 1426.33 1438.21 1422.32 1456.5C1420.28 1465.77 1420.35 1466.04 1426.46 1473.76C1429.88 1478.08 1432.67 1482.67 1432.67 1483.98C1432.67 1485.28 1429.16 1491.13 1424.86 1496.97C1420.56 1502.82 1417.04 1508.71 1417.04 1510.07C1417.04 1511.43 1416.38 1512.53 1415.58 1512.52C1412.79 1512.46 1395.47 1487.48 1395.55 1483.64C1395.6 1481.52 1397.87 1476.32 1400.6 1472.08C1410.31 1456.99 1411.42 1454.11 1411.35 1444.19C1411.21 1424.23 1394.79 1403.67 1367.32 1389.06L1355.62 1382.84L1350.65 1385.97L1345.67 1389.1L1341.05 1384.67C1334.5 1378.39 1326.83 1375.69 1304.88 1371.94C1294.32 1370.14 1285.45 1368.66 1285.17 1368.66C1284.89 1368.66 1283.29 1371.98 1281.61 1376.05ZM2119.47 1396.82C2109.74 1399.68 2106.4 1402.95 2100.9 1415.04C2092.46 1433.55 2087.57 1436.97 2064.42 1440.55C2052.1 1442.46 2039.83 1448.02 2035.33 1453.74C2033.03 1456.66 2031.53 1463.25 2030.41 1475.32C2028.37 1497.22 2023.78 1509.03 2009.87 1528.14C2001.23 1540.01 1997.32 1543.98 1991.8 1546.47C1982.41 1550.72 1975.28 1552.37 1966.37 1552.37C1958.49 1552.37 1959.06 1551.98 1938.64 1571.36C1929.21 1580.32 1917.85 1583.53 1904.14 1581.11C1898.16 1580.06 1898.62 1578.51 1905.61 1576.14C1920.12 1571.2 1951.85 1545.26 1956.33 1534.68C1959.2 1527.86 1958.79 1510.84 1955.49 1500.61C1946.93 1474.06 1916.67 1454.4 1874.34 1447.89C1852.04 1444.46 1848.93 1444.18 1848.93 1445.61C1848.93 1447.57 1858.01 1450.22 1871.12 1452.07C1885.05 1454.05 1894.63 1459.29 1904.98 1470.62C1908.94 1474.95 1916.58 1482.82 1921.95 1488.1C1932.79 1498.75 1938.83 1507.99 1938.83 1513.91C1938.83 1518.83 1934.14 1524.89 1928.92 1526.73C1925.01 1528.1 1924.99 1528.04 1927.96 1524.26C1931.72 1519.48 1931.87 1512.54 1928.35 1506.99C1926.88 1504.68 1919.56 1499.06 1912.08 1494.5C1902.54 1488.69 1896.82 1483.91 1892.94 1478.5C1885.25 1467.8 1860.41 1451.77 1842.18 1445.74C1830.21 1441.78 1826.83 1441.25 1813.84 1441.26C1800.85 1441.28 1797.65 1441.79 1786.96 1445.59C1772.02 1450.9 1760.86 1457.92 1755.52 1465.39C1749.16 1474.29 1742.92 1497.59 1744.39 1506.97C1745.32 1512.92 1744.87 1515.86 1742.56 1518.79C1737.55 1525.16 1738.82 1533.33 1747.31 1549.47C1753.43 1561.11 1755.13 1566.22 1755.13 1573.02C1755.13 1581.46 1755.28 1581.74 1760.5 1582.48C1763.46 1582.89 1768.73 1582.69 1772.22 1582.03C1786.13 1579.37 1795.42 1572.6 1813.68 1551.81C1824.97 1538.97 1825.12 1537.13 1815.57 1529.98C1809.81 1525.67 1809.73 1525.42 1812.69 1521.65C1818.57 1514.17 1826.97 1513.28 1838.32 1518.93C1848.54 1524.01 1849.77 1523.8 1845.06 1517.73C1840.59 1511.97 1837.55 1510.61 1824.89 1508.75C1813.12 1507.01 1804.99 1508.23 1798.13 1512.74C1792.52 1516.43 1792.49 1516.43 1785.54 1514.25C1781.67 1513.04 1778.58 1511.12 1778.58 1509.93C1778.58 1505.76 1787.45 1499.03 1797.15 1495.84C1805.55 1493.08 1809.18 1492.68 1823.07 1492.94C1842.62 1493.31 1864.43 1496.15 1874.63 1499.65C1883.22 1502.59 1884.18 1501.51 1879.49 1494.14C1875.73 1488.23 1866.13 1483.37 1853.4 1480.94C1838.28 1478.05 1811.02 1479.01 1795.19 1482.99C1779.49 1486.94 1766.01 1495.66 1762.84 1503.92C1760.43 1510.23 1756.3 1511.87 1754.14 1507.38C1749.89 1498.58 1768.71 1484.39 1796.7 1475.28C1808.12 1471.56 1813.02 1469.35 1811.36 1468.66C1807.84 1467.19 1800.02 1467.34 1788.51 1469.09C1776.99 1470.83 1774.5 1469.99 1779.73 1466.12C1789.8 1458.66 1815.42 1456.11 1837.6 1460.35C1850.95 1462.9 1858.39 1466.81 1868.48 1476.58C1876.78 1484.62 1890.49 1493.14 1901.86 1497.34C1905.85 1498.82 1910.08 1501.42 1911.27 1503.13C1914.23 1507.41 1913.97 1514.13 1910.73 1517.04C1908.2 1519.32 1907.95 1519.22 1906.68 1515.4C1905.42 1511.62 1895.86 1504.84 1891.8 1504.84C1890.79 1504.84 1890.52 1508.85 1891.17 1514.15C1892.21 1522.55 1891.86 1523.91 1887.66 1527.96C1885.1 1530.43 1876.87 1535.21 1869.39 1538.57C1861.9 1541.92 1853.84 1546.11 1851.48 1547.87C1847.83 1550.59 1846.41 1550.88 1842.07 1549.79C1827.49 1546.15 1819.83 1549.95 1803.2 1569.07C1797.98 1575.08 1792.37 1581 1790.73 1582.24C1787.09 1584.98 1787.87 1585.02 1796.84 1582.56C1805.69 1580.13 1817.57 1580.13 1831.34 1582.56C1857.76 1587.22 1872.96 1583.66 1883.14 1570.44C1885.74 1567.06 1886.31 1563.98 1885.59 1557.31C1884.48 1547.11 1886.33 1544.65 1898.09 1540.71L1905.95 1538.07L1904.67 1540.72C1903.96 1542.18 1903.91 1543.38 1904.56 1543.38C1908.38 1543.38 1920.71 1538.93 1928.48 1534.75L1937.53 1529.89L1936.27 1535.03C1934.79 1541.06 1921.09 1554.38 1916.62 1554.13C1914.93 1554.03 1905.67 1559.31 1896.04 1565.86C1873.89 1580.91 1870.35 1587.5 1879.35 1596.89C1883.19 1600.9 1899.7 1604.24 1908.12 1602.71C1915.93 1601.29 1925.26 1603.05 1936.97 1608.14C1942.93 1610.74 1944.69 1612.33 1944.69 1615.13C1944.69 1619.96 1934.98 1632.45 1925.21 1640.19C1920.88 1643.62 1917.33 1647.47 1917.33 1648.74C1917.33 1651.52 1908.22 1653.86 1897.4 1653.86C1893.21 1653.86 1887.29 1654.71 1884.24 1655.74C1874.81 1658.95 1860.57 1675.49 1863.27 1680.11C1864.02 1681.4 1868.58 1681.8 1881.07 1681.66L1897.86 1681.48L1909.69 1673.53C1920.85 1666.04 1927.23 1663.8 1935.48 1664.49C1938.14 1664.71 1940.37 1662.51 1944.8 1655.32C1952.68 1642.53 1959.19 1636.94 1980.85 1624.38C2001.3 1612.52 2004.3 1608.95 2002.93 1598.15C2002.31 1593.21 2000.29 1589.82 1994.89 1584.67C1990.93 1580.88 1987.68 1577.18 1987.68 1576.45C1987.68 1575.72 1991.66 1572.07 1996.53 1568.33C2007.32 1560.02 2018.66 1547.83 2024.89 1537.83C2033.28 1524.38 2040.34 1520.45 2068.09 1513.82C2089.72 1508.64 2103.76 1498.92 2109.84 1484.92C2111.37 1481.39 2113.54 1471.38 2114.66 1462.68C2115.78 1453.98 2117.94 1445.28 2119.46 1443.35C2122.34 1439.68 2133.2 1432.86 2148.38 1425.19C2157.85 1420.4 2164.21 1415 2166.57 1409.77C2167.81 1407 2166.66 1407.39 2158.28 1412.52C2149.75 1417.75 2138.66 1422.62 2135.28 1422.62C2134.66 1422.62 2135.38 1421.03 2136.89 1419.08C2138.39 1417.14 2140.25 1414.21 2141.02 1412.57C2142.4 1409.63 2142.33 1409.62 2136.62 1411.56C2133.42 1412.64 2128.54 1415.3 2125.77 1417.47L2120.73 1421.4L2117.51 1418.17C2113.49 1414.13 2114.85 1410 2122.92 1401.69C2126.2 1398.31 2128.54 1395.31 2128.11 1395.02C2127.67 1394.74 2123.79 1395.55 2119.47 1396.82ZM1734.39 1412.13C1727.6 1414.95 1719.95 1424.14 1719.95 1429.48C1719.95 1432.09 1718.62 1433.29 1714.58 1434.29C1695.89 1438.93 1685.04 1455.86 1690.64 1471.61C1692.82 1477.76 1694.92 1479.68 1710.07 1489.42C1719.42 1495.43 1728.74 1502.03 1730.78 1504.09L1734.5 1507.83L1736.07 1502.87C1736.95 1500.09 1736.76 1493.74 1735.64 1488.43C1731.6 1469.35 1734.61 1453.92 1744.76 1441.66C1749.13 1436.38 1752 1434.74 1763.53 1430.95C1771.02 1428.49 1779.67 1426.47 1782.75 1426.47C1789.48 1426.47 1789.95 1424.3 1784.26 1419.54C1774.33 1411.24 1746.49 1407.11 1734.39 1412.13ZM1665.56 1432.22C1659.05 1436.8 1651.43 1443.11 1648.63 1446.25L1643.54 1451.97L1633.06 1451.25C1612.56 1449.86 1594.91 1459.23 1580.65 1479.06C1570.71 1492.88 1570.74 1496.37 1580.96 1509.07C1585.94 1515.27 1589.02 1520.8 1589.02 1523.57C1589.02 1529.83 1592.93 1535.32 1602.7 1542.74C1613.85 1551.21 1615.93 1554.91 1618.11 1570.11C1619.23 1577.97 1621.18 1584.19 1623.12 1586.14C1626.42 1589.45 1649.2 1600.59 1650.68 1599.62C1651.15 1599.31 1648.01 1595.97 1643.71 1592.18C1629.2 1579.39 1628.67 1571.97 1640.8 1551.8C1653.5 1530.7 1653.23 1528.94 1634.45 1510.55C1627.36 1503.6 1626.28 1497.53 1631.07 1491.49C1632.69 1489.45 1642.7 1480.2 1653.32 1470.94C1675.75 1451.38 1684.8 1440.55 1684.71 1433.38C1684.66 1428.97 1681.3 1423.9 1678.43 1423.9C1677.87 1423.9 1672.08 1427.65 1665.56 1432.22ZM1657.39 1472.43C1649.79 1477.43 1643.73 1487.42 1643.73 1494.95C1643.73 1497.03 1646.47 1506.31 1649.81 1515.59C1656.2 1533.35 1656.21 1533.68 1652.32 1562.91C1651.12 1571.94 1651.45 1573.4 1656.11 1579.67C1659.41 1584.1 1664.38 1588.09 1670.19 1590.94C1679.71 1595.64 1685.4 1600.82 1687.53 1606.74C1689.14 1611.24 1696.55 1618.88 1700.22 1619.82C1704.68 1620.97 1719.43 1609.35 1727.83 1598.06C1741.25 1580.03 1744.47 1565.45 1738.62 1549.15C1731.71 1529.89 1717.04 1514.98 1694.06 1503.86C1666.66 1490.61 1664.98 1488.12 1675.75 1476.65C1679.64 1472.51 1682.82 1468.77 1682.82 1468.35C1682.82 1467.93 1678.76 1467.58 1673.8 1467.58C1665.96 1467.58 1663.8 1468.22 1657.39 1472.43ZM1550.53 1482.36C1543.54 1486.96 1535.61 1491.08 1532.92 1491.53C1530.22 1491.97 1519.97 1491.9 1510.15 1491.37C1487.81 1490.15 1480.68 1490.37 1472.98 1492.49C1448.87 1499.13 1434.42 1521.55 1447.95 1531.32C1460.08 1540.08 1460.3 1540.52 1458.92 1552.94C1457.32 1567.27 1458.99 1570.28 1475.28 1582.33C1481.79 1587.14 1488.89 1593.43 1491.04 1596.3C1494.63 1601.07 1494.71 1601.78 1491.97 1604.53C1487.09 1609.42 1487.6 1621.51 1492.92 1627.17C1498.32 1632.91 1528.09 1647.55 1544.82 1652.7C1563.28 1658.38 1575.44 1659.34 1620.28 1658.66C1661.45 1658.04 1677.26 1656.34 1682.83 1651.93C1684.93 1650.26 1683.74 1650 1673.78 1649.99C1652.86 1649.96 1638.75 1646.5 1619.53 1636.69C1613.2 1633.46 1598.54 1626.95 1586.95 1622.23C1566.9 1614.05 1552.32 1606.17 1546.91 1600.55C1545.54 1599.13 1543.43 1594.51 1542.21 1590.27C1540.99 1586.03 1535.85 1576.78 1530.79 1569.71C1522.39 1557.99 1521.61 1556.08 1521.82 1547.83C1522.21 1532.41 1531.15 1517.68 1540.13 1517.68C1545.07 1517.68 1553.42 1524.54 1554.93 1529.85C1555.62 1532.26 1554.68 1540.13 1552.83 1547.34C1546.98 1570.28 1550.49 1576.79 1576.33 1590.84C1584.2 1595.12 1597.45 1603.8 1605.78 1610.13C1630.63 1629.04 1644.67 1635.05 1664.25 1635.16C1680.37 1635.26 1688.25 1632.9 1689.78 1627.54C1692.3 1618.73 1684.22 1613.56 1656.83 1606.42C1639.27 1601.85 1633.57 1599.69 1624.51 1594.21C1615.4 1588.7 1613.1 1585.28 1606.45 1567.42C1601.25 1553.45 1599.41 1550.57 1589.73 1541.23C1580.61 1532.43 1578.63 1529.48 1577.48 1523.06C1576.39 1517.01 1574.78 1514.39 1569.86 1510.71C1561.94 1504.78 1561.74 1499.94 1568.86 1486.44C1573.36 1477.9 1573.73 1476.22 1571.32 1475.22C1566.06 1473.03 1563.28 1473.99 1550.53 1482.36ZM1788.87 1587.01C1770.51 1588.39 1755.84 1590.7 1747.31 1593.54C1733.43 1598.17 1721.9 1609.13 1721.9 1617.69C1721.9 1627.22 1732.73 1639.06 1746.15 1644.22C1754.16 1647.29 1773.55 1650.04 1786.4 1649.92L1793.24 1649.86L1783.14 1646.84C1773.41 1643.93 1756.8 1637.16 1759.4 1637.16C1760.1 1637.16 1764.92 1638.36 1770.11 1639.83C1789.14 1645.2 1811.33 1647.88 1837.21 1647.95C1872.21 1648.05 1893.9 1643.24 1913.95 1630.95C1922.06 1625.97 1932.96 1616.77 1932.96 1614.89C1932.96 1614.62 1924.85 1614 1914.94 1613.51C1898.67 1612.7 1857.85 1608.21 1854.54 1606.87C1853.81 1606.57 1854.16 1604.29 1855.32 1601.8C1859.59 1592.65 1846.87 1587.32 1818.64 1586.44C1810.04 1586.17 1796.65 1586.43 1788.87 1587.01ZM1706.27 1636.53C1706.27 1639.13 1715.63 1646.85 1727.6 1654.13C1752.37 1669.18 1794.84 1682.25 1819.84 1682.5C1831.19 1682.62 1834.23 1682.12 1842.41 1678.79C1853.43 1674.32 1861.72 1665.82 1859.85 1660.91C1857.69 1655.25 1853.16 1654.75 1820.34 1656.48C1803.8 1657.36 1785.11 1657.72 1778.8 1657.29C1759.38 1655.96 1735.56 1649.07 1710.67 1637.59C1708.25 1636.47 1706.27 1636 1706.27 1636.53ZM2107.47 1641.62C2075.99 1647.44 2039.51 1658.91 2024.73 1667.64C2013.59 1674.23 2010.62 1679.4 2013.36 1687.41C2015.77 1694.48 2015 1695.47 2005.74 1697.3C1993.44 1699.72 1970.66 1699.09 1944.69 1695.61C1919.03 1692.18 1901.34 1691.59 1889.39 1693.77C1882.49 1695.03 1881.48 1694.85 1875.15 1691.2C1866.38 1686.13 1856.59 1686.01 1833.83 1690.68C1819.63 1693.59 1816.26 1693.87 1810.93 1692.6C1802.53 1690.6 1798.1 1690.73 1794.14 1693.09C1791.11 1694.89 1789.63 1694.47 1777.26 1688.27C1748.54 1673.89 1737.07 1667.02 1726.62 1657.97C1715.26 1648.13 1706.47 1643.6 1698.7 1643.59C1694.61 1643.58 1694.38 1643.83 1696.75 1645.71C1700.34 1648.55 1699.82 1660.6 1695.51 1674.42C1688.95 1695.5 1691.3 1705.17 1705.49 1715.5C1730.7 1733.85 1771.91 1744.28 1788.09 1736.41L1793.93 1733.57L1810.2 1739.22C1819.14 1742.33 1831.62 1745.75 1837.92 1746.82C1844.23 1747.89 1851.44 1750.03 1853.96 1751.59L1858.53 1754.41L1868.33 1750.27C1894.02 1739.44 1905.27 1721.37 1895 1707.45C1893.03 1704.78 1891.75 1702.4 1892.16 1702.16C1893.26 1701.54 1945.55 1704.91 1960.81 1706.59C1968.06 1707.39 1974.49 1708.58 1975.1 1709.23C1977.06 1711.32 1968.04 1721.36 1956.03 1730.45C1940.21 1742.43 1935.33 1748.25 1931.79 1759.39C1928 1771.28 1929.11 1779.05 1938.54 1806.88L1945.78 1828.22L1954.74 1822.94C1959.66 1820.04 1972.21 1814.52 1982.62 1810.67C2004.41 1802.63 2016.09 1795.15 2018.16 1787.91C2018.94 1785.19 2018.56 1779.06 2017.31 1774.28C2013.97 1761.48 2014.49 1756.38 2019.91 1748.73C2022.59 1744.95 2024.79 1740.82 2024.8 1739.55C2024.83 1735.35 2019.36 1730.36 2010.44 1726.45C2000.88 1722.25 1994.53 1716.48 1996.25 1713.53C2000.53 1706.2 2040.16 1720.13 2043.28 1730.08C2043.77 1731.61 2045.47 1737.36 2047.07 1742.85C2052.63 1761.91 2070.76 1780.58 2096.15 1793.39C2122.27 1806.57 2134.91 1808.8 2188.97 1809.78C2211.01 1810.19 2232.37 1811.05 2236.45 1811.72C2242.53 1812.7 2243.47 1812.61 2241.71 1811.21C2240.52 1810.27 2237 1802.73 2233.89 1794.45C2219.61 1756.49 2182.76 1725.2 2140.61 1715.25C2124.39 1711.42 2102.4 1710.84 2079.24 1713.63L2060.04 1715.95L2040.96 1710.73C2030.47 1707.86 2020.12 1705.1 2017.97 1704.59C2014.56 1703.79 2014.92 1703.46 2020.91 1701.99C2030.97 1699.51 2037.93 1699.75 2065.45 1703.48C2094.38 1707.41 2112.71 1707.15 2131.46 1702.54C2145.46 1699.09 2155.69 1692.32 2170 1677.03C2175.6 1671.05 2183.02 1664.9 2186.49 1663.37L2192.8 1660.57L2186.83 1658.95C2183.54 1658.05 2175.87 1654.76 2169.77 1651.63C2163.67 1648.49 2155.16 1644.74 2150.86 1643.28C2140.82 1639.87 2121.03 1639.12 2107.47 1641.62Z" fill="black" fill-opacity="0.08"/>
</g>
<defs>
<filter id="filter0_d_0_1" x="-4" y="0" width="2168" height="2392" filterUnits="userSpaceOnUse" color-interpolation-filters="sRGB">
<feFlood flood-opacity="0" result="BackgroundImageFix"/>
<feColorMatrix in="SourceAlpha" type="matrix" values="0 0 0 0 0 0 0 0 0 0 0 0 0 0 0 0 0 0 127 0" result="hardAlpha"/>
<feOffset dy="4"/>
<feGaussianBlur stdDeviation="2"/>
<feComposite in2="hardAlpha" operator="out"/>
<feColorMatrix type="matrix" values="0 0 0 0 0 0 0 0 0 0 0 0 0 0 0 0 0 0 0.25 0"/>
<feBlend mode="normal" in2="BackgroundImageFix" result="effect1_dropShadow_0_1"/>
<feBlend mode="normal" in="SourceGraphic" in2="effect1_dropShadow_0_1" result="shape"/>
</filter>
<filter id="filter1_f_0_1" x="-575.5" y="1083.5" width="2116" height="2169" filterUnits="userSpaceOnUse" color-interpolation-filters="sRGB">
<feFlood flood-opacity="0" result="BackgroundImageFix"/>
<feBlend mode="normal" in="SourceGraphic" in2="BackgroundImageFix" result="shape"/>
<feGaussianBlur stdDeviation="382" result="effect1_foregroundBlur_0_1"/>
</filter>
<filter id="filter2_f_0_1" x="96" y="397" width="2458" height="2239" filterUnits="userSpaceOnUse" color-interpolation-filters="sRGB">
<feFlood flood-opacity="0" result="BackgroundImageFix"/>
<feBlend mode="normal" in="SourceGraphic" in2="BackgroundImageFix" result="shape"/>
<feGaussianBlur stdDeviation="427" result="effect1_foregroundBlur_0_1"/>
</filter>
<filter id="filter3_f_0_1" x="-603" y="-133" width="2007" height="2028" filterUnits="userSpaceOnUse" color-interpolation-filters="sRGB">
<feFlood flood-opacity="0" result="BackgroundImageFix"/>
<feBlend mode="normal" in="SourceGraphic" in2="BackgroundImageFix" result="shape"/>
<feGaussianBlur stdDeviation="322" result="effect1_foregroundBlur_0_1"/>
</filter>
<clipPath id="clip0_0_1">
<rect width="2160" height="2384" fill="white"/>
</clipPath>
</defs>
</svg>
