<svg width="3840" height="2384" viewBox="0 0 3840 2384" fill="none" xmlns="http://www.w3.org/2000/svg">
<g clip-path="url(#clip0_0_1)" filter="url(#filter0_d_0_1)">
<rect width="3840" height="2384" fill="#373A37"/>
<g filter="url(#filter1_f_0_1)">
<path d="M1750 2021.5C1750 2198.51 1618.37 2342 1456 2342C1293.63 2342 1162 2198.51 1162 2021.5C1162 1844.49 1293.63 1701 1456 1701C1618.37 1701 1750 1844.49 1750 2021.5Z" fill="#1D40BB"/>
</g>
<g filter="url(#filter2_f_0_1)">
<ellipse cx="2129" cy="1413.5" rx="375" ry="265.5" fill="#CC2727"/>
</g>
<g filter="url(#filter3_f_0_1)">
<path d="M1898 780C1898 984.345 1737.05 1150 1538.5 1150C1339.95 1150 1179 984.345 1179 780C1179 575.655 1339.95 410 1538.5 410C1737.05 410 1898 575.655 1898 780Z" fill="#1B6800"/>
</g>
<path fill-rule="evenodd" clip-rule="evenodd" d="M1367.42 831.661C1368.9 833.125 1371.9 833.647 1374.09 832.816C1380.02 830.572 1378.92 829 1371.4 829C1367.73 829 1365.94 830.197 1367.42 831.661ZM1386.93 836.203C1387.2 842.587 1387.65 842.809 1390.91 838.168C1395.93 831.014 1395.93 829 1390.91 829C1388.55 829 1386.77 832.243 1386.93 836.203ZM1466.93 835.8C1447.43 839.47 1412.3 856.55 1412.3 862.36C1412.3 863.869 1424.34 861.132 1439.05 856.278C1471.19 845.675 1476.49 845.334 1476.49 853.884C1476.49 861.58 1479.64 861.931 1492 855.605C1500.1 851.466 1515 836.853 1515 833.06C1515 830.383 1487.31 831.96 1466.93 835.8ZM1360.96 838.168C1363.89 840.329 1368.98 842.097 1372.28 842.097C1375.58 842.097 1380.02 844.894 1382.14 848.313C1388.66 858.808 1391.75 889.971 1387.36 901.032C1383.36 911.127 1383.19 910.858 1382.78 893.627C1382.39 877.529 1381.1 874.983 1369.84 868.089C1361.55 863.01 1352.99 860.432 1344.42 860.432C1337.32 860.432 1330.32 859.254 1328.86 857.813C1327.41 856.372 1322.46 855.194 1317.86 855.194C1310.56 855.194 1309.84 856.467 1312.16 865.341C1313.8 871.633 1313 876.172 1310.07 877.283C1303.87 879.63 1304.05 887.278 1310.5 895.946C1313.89 900.501 1323.68 905.061 1338.97 909.199C1364.43 916.091 1367.62 920.591 1342.5 914.163C1318.44 908.01 1294.07 908.998 1281.6 916.631C1275.73 920.219 1270.96 926.291 1270.8 930.382C1270.63 934.408 1268.97 940.061 1267.11 942.942C1260.87 952.594 1266.15 954.729 1296.27 954.729C1328.43 954.729 1339.79 951.316 1347.99 939.204C1350.92 934.872 1356.65 930.681 1360.72 929.89C1372.02 927.697 1371.08 911.463 1358.72 894.929C1346.04 877.977 1345.6 875.397 1356.76 883.601C1365.61 890.099 1374.88 907.117 1375.54 918.058C1376.02 926.003 1382.75 926.105 1389.29 918.268C1393.43 913.296 1394.45 913.105 1396.81 916.869C1398.66 919.816 1401.95 920.602 1406.99 919.305C1411.09 918.249 1429.85 917.113 1448.68 916.775C1492.47 915.991 1497.88 914.538 1497.88 903.557C1497.88 898.774 1501.03 892.931 1504.88 890.573C1513.24 885.46 1511.31 884.153 1481.56 874.75C1461.25 868.33 1457.11 867.877 1442.87 870.488C1424.74 873.812 1406.59 884.52 1401.07 895.144C1398.24 900.592 1397.33 897.394 1397.33 882.047C1397.33 859.319 1386.04 836.156 1376.1 838.49C1372.95 839.229 1369.11 838.576 1367.55 837.036C1366 835.499 1362.68 834.239 1360.18 834.239C1357.31 834.239 1357.6 835.69 1360.96 838.168ZM1233.89 846.681C1223.2 862.088 1221.5 891.566 1230.47 905.946C1234.6 912.568 1240.87 919.452 1244.39 921.243C1249.96 924.072 1250.4 923.349 1247.69 915.8C1243.99 905.48 1248.47 884.007 1254.33 884.007C1259.53 884.007 1265.42 892.797 1269.25 906.271L1272.22 916.748L1277.88 908.89C1291.1 890.544 1281.03 858.258 1257.25 842.752C1244.95 834.736 1241.81 835.266 1233.89 846.681ZM1393.59 840.868C1391.81 843.708 1392.3 846.309 1394.7 846.801C1397.06 847.281 1397.86 849.661 1396.48 852.09C1394.23 856.042 1394.82 856.013 1402.07 851.825C1407.5 848.684 1408.62 846.531 1405.46 845.277C1402.87 844.247 1399.85 841.699 1398.75 839.611C1397.23 836.711 1396.01 837.01 1393.59 840.868ZM1363.09 847.336C1364.55 848.776 1368.63 849.955 1372.16 849.955C1375.69 849.955 1377.39 848.776 1375.93 847.336C1374.48 845.895 1370.4 844.716 1366.87 844.716C1363.34 844.716 1361.64 845.895 1363.09 847.336ZM1363.09 855.194C1364.55 856.634 1369.59 857.813 1374.3 857.813C1379 857.813 1381.67 856.634 1380.21 855.194C1378.76 853.753 1373.72 852.574 1369.01 852.574C1364.3 852.574 1361.64 853.753 1363.09 855.194ZM1467.93 891.451C1467.93 892.663 1460.11 895.089 1450.55 896.841C1440.99 898.596 1425.29 904.382 1415.66 909.7L1398.16 919.368L1404.79 911.505C1414.24 900.304 1425.23 894.976 1444.61 892.195C1467.33 888.936 1467.93 888.918 1467.93 891.451ZM1129.89 893.072C1129.89 893.965 1133.72 897.889 1138.41 901.792C1149.64 911.151 1155.5 931.336 1152.63 950.8C1149.7 970.65 1156.56 986.311 1173.3 997.983C1180.51 1003.01 1187.65 1007.12 1189.17 1007.12C1190.69 1007.12 1191.93 996.215 1191.93 982.887C1191.93 967.027 1193.99 956.447 1197.88 952.257L1203.82 945.852L1212.85 952.573C1220.84 958.514 1236.67 965.207 1242.74 965.207C1248.05 965.207 1240.83 940.273 1232.44 929.662C1222.11 916.602 1205.25 907.644 1176.72 900.066C1155.42 894.411 1129.89 890.597 1129.89 893.072ZM1334.88 921.893C1326.42 923.8 1313.47 927.265 1306.11 929.596C1293.77 933.505 1292.93 933.505 1295.39 929.586C1298.8 924.14 1320.87 918.239 1337.42 918.346L1350.26 918.427L1334.88 921.893ZM1404.82 922.412C1394.29 925.013 1399.77 927.522 1417.37 928.158C1438.84 928.934 1456.95 934.984 1463.29 943.497C1470.45 953.121 1469.09 953.273 1453.03 944.642C1439.4 937.318 1406.24 928.756 1401.86 931.433C1398.21 933.67 1431.52 971.166 1440.28 974.678C1448.13 977.829 1452.65 977.541 1475.8 972.402L1502.32 966.516L1499.6 950.8C1498.11 942.156 1494.43 933.486 1491.43 931.532C1481.16 924.848 1420.72 918.485 1404.82 922.412ZM1364.7 935.186C1359.11 939.28 1347.32 947.547 1338.49 953.556C1329.67 959.565 1322.44 965.662 1322.44 967.103C1322.44 968.546 1328.22 974.175 1335.28 979.613C1342.34 985.051 1348.12 991.696 1348.12 994.381C1348.12 999.829 1356.66 1000.84 1364.12 996.272C1366.8 994.63 1379.07 992.312 1391.38 991.12C1403.69 989.931 1415.44 987.442 1417.49 985.593C1423.69 980.014 1417.34 960.209 1404.83 946.096C1389.63 928.957 1381.71 926.94 1387.08 941.575C1391.61 953.912 1388.7 963.541 1378.99 968.373C1373.19 971.257 1372.6 971.084 1374.98 967.203C1380.7 957.851 1383.18 936.839 1379.09 932.368C1375.24 928.153 1373.96 928.405 1364.7 935.186ZM1273.23 966.768C1234.2 973.908 1228.19 976.187 1216.68 988.207C1200.36 1005.25 1200.49 1027.14 1217.03 1045.1C1226.77 1055.68 1227.18 1056.69 1219.14 1050.34C1191.61 1028.58 1169.71 1017.01 1137.32 1007.08C1118.57 1001.34 1099.11 996.657 1094.09 996.678C1087.2 996.71 1086.41 997.283 1090.88 999.015C1095.23 1000.7 1093.25 1001.79 1083.39 1003.11C1076.01 1004.1 1069.98 1006 1069.98 1007.32C1069.98 1011.01 1084.12 1010.19 1094.07 1005.93C1101.99 1002.53 1104.75 1002.71 1119.63 1007.54C1165.65 1022.47 1228.31 1063.3 1228.31 1078.35C1228.31 1083.88 1230.36 1085.7 1236.61 1085.7C1249.19 1085.7 1250.25 1082.23 1241.06 1071.19C1236.45 1065.66 1234.97 1062.54 1237.77 1064.25C1248.75 1070.97 1253.84 1067.8 1247.34 1058.28C1233.86 1038.52 1243.02 1013.8 1269.23 999.258C1279.46 993.579 1280.57 993.407 1277.6 997.949C1259.58 1025.5 1253.98 1037.93 1253.98 1050.3C1253.98 1058.07 1255.9 1065.16 1258.26 1066.05C1260.61 1066.94 1262.54 1070.12 1262.54 1073.11C1262.54 1077.76 1265.52 1076.85 1282.86 1066.93C1308.25 1052.4 1334.21 1047.24 1360.24 1051.53C1379.87 1054.76 1385.29 1060.96 1366.58 1058.77C1360.26 1058.03 1344.44 1059.12 1331.44 1061.2C1307.04 1065.09 1270.27 1077.53 1273.56 1080.78C1274.58 1081.79 1283.59 1083.45 1293.58 1084.47C1303.57 1085.5 1326.17 1089.82 1343.8 1094.09C1392.2 1105.82 1409.21 1101.21 1423.09 1072.6C1424.83 1069 1430.09 1062.73 1434.77 1058.66L1443.28 1051.27L1433.59 1047.11C1428.26 1044.83 1414.26 1037.72 1402.47 1031.31C1383.54 1021.02 1379.3 1019.83 1366.13 1021.14C1346.95 1023.04 1297.35 1043.41 1277.75 1057.42C1264.27 1067.07 1262.54 1067.63 1262.54 1062.34C1262.54 1058.39 1271.4 1051.36 1288.73 1041.57C1313.31 1027.67 1339.43 1004.82 1339.52 997.147C1339.54 995.264 1333.93 990.549 1327.06 986.67C1319.84 982.599 1313.96 976.289 1313.15 971.755C1311.45 962.226 1303.5 961.233 1273.23 966.768ZM1091.38 982.958C1091.38 986.222 1104.35 996.639 1108.41 996.639C1110.45 996.639 1109.23 993.103 1105.71 988.781C1099.82 981.557 1091.38 978.125 1091.38 982.958ZM1112.77 987.18C1112.77 990.669 1129.45 1004.85 1129.75 1001.61C1129.82 1000.75 1127.77 996.327 1125.19 991.79C1120.41 983.401 1112.77 980.564 1112.77 987.18ZM1444.4 985.439C1439.69 986.146 1433.27 988.006 1430.13 989.569C1425.7 991.77 1428.84 993.202 1444.03 995.916C1454.82 997.841 1463.65 1000.51 1463.65 1001.85C1463.65 1003.2 1447.49 1004.21 1427.73 1004.11C1374.14 1003.84 1369.97 1006.89 1408.03 1018.55C1443.12 1029.29 1459.29 1030.2 1491.46 1023.21C1516.3 1017.81 1519.34 1013.34 1506.7 1000.82C1493.26 987.516 1469.53 981.656 1444.4 985.439ZM1129.89 988.611C1129.89 993.323 1138.71 1005.21 1141.11 1003.74C1144.74 1001.52 1138.38 986.161 1133.83 986.161C1131.66 986.161 1129.89 987.264 1129.89 988.611ZM1066.77 994.674C1067.75 996.477 1071.12 997.949 1074.26 997.949C1077.4 997.949 1080.77 996.477 1081.75 994.674C1082.81 992.726 1079.78 991.4 1074.26 991.4C1068.74 991.4 1065.71 992.726 1066.77 994.674ZM1098.86 1010.31C1086.75 1012.86 1082.75 1017.59 1092.7 1017.59C1099.5 1017.59 1115.75 1010.63 1112.76 1009C1111.59 1008.36 1105.34 1008.95 1098.86 1010.31ZM1112.84 1017.47C1106.99 1020.22 1103.67 1023.38 1105.48 1024.48C1107.28 1025.58 1113.94 1023.3 1120.29 1019.42C1133.53 1011.31 1128.64 1010.04 1112.84 1017.47ZM1112.77 1035.15C1109.24 1035.94 1101.54 1039.24 1095.66 1042.49C1089.77 1045.74 1077.74 1049.81 1068.91 1051.53C1048.6 1055.51 1048.49 1060.8 1068.6 1066.69C1079.07 1069.75 1085.7 1073.92 1088.4 1079.15C1094.15 1090.27 1107.6 1098.42 1125.67 1101.73C1138.79 1104.14 1144.26 1103.74 1160.69 1099.15C1171.41 1096.17 1188.6 1093.09 1198.89 1092.31C1216.53 1090.98 1216.88 1091.07 1204.96 1093.93C1180.26 1099.86 1143.78 1114.45 1136.4 1121.34C1124.19 1132.74 1123.67 1145.9 1135.01 1156.18C1140.43 1161.08 1149.81 1169.93 1155.84 1175.82C1169.65 1189.31 1183.52 1190.24 1196.06 1178.53C1200.78 1174.12 1211.78 1167.4 1220.52 1163.59C1240.66 1154.81 1245.12 1143.01 1236.08 1122.36C1231.56 1112.03 1230.94 1106.1 1233.95 1101.96C1239.81 1093.92 1235.67 1092.44 1220.65 1097.2C1200.77 1103.49 1187.54 1115.07 1178.74 1133.87C1174.29 1143.39 1169.18 1151.18 1167.38 1151.18C1160.69 1151.18 1164.43 1129.64 1172.88 1119.51C1180.43 1110.45 1206.81 1097.03 1225.68 1092.65C1236.5 1090.13 1206.08 1076.93 1170.7 1068.78C1150.1 1064.04 1135.01 1059.49 1137.16 1058.68C1143.99 1056.1 1171.66 1061.27 1196.02 1069.69C1209 1074.17 1220.61 1077.84 1221.82 1077.84C1234 1077.84 1194.67 1048.38 1171.31 1040C1153.48 1033.6 1128.88 1031.57 1112.77 1035.15ZM1258.41 1087.66C1258.5 1088.74 1268.51 1093.75 1280.67 1098.79C1304.67 1108.75 1319.6 1121.59 1317.41 1130.39C1316.28 1134.94 1312.72 1133.07 1297.85 1120.13C1275.17 1100.38 1250.88 1088.25 1245.02 1093.74C1242.83 1095.8 1242.15 1099.84 1243.52 1102.72C1244.89 1105.6 1247.44 1120.08 1249.2 1134.89C1251.46 1153.96 1254.38 1163.03 1259.2 1165.98C1263.23 1168.44 1277.53 1170.87 1294.23 1171.93C1309.76 1172.91 1324.77 1175.13 1327.59 1176.86C1338.05 1183.26 1347.25 1180.42 1350.16 1169.88C1351.72 1164.22 1360.38 1153.71 1369.79 1146.04C1379.05 1138.49 1386.63 1129.61 1386.63 1126.3C1386.63 1119.39 1364.96 1106.73 1339.57 1098.8C1311.46 1090.02 1258.02 1082.69 1258.41 1087.66ZM1072.9 1128.26C1054.09 1143.74 1047.82 1150.92 1050.65 1153.72C1056.89 1159.91 1087.48 1166.9 1108.32 1166.9C1120.18 1166.9 1129.89 1166.25 1129.89 1165.46C1129.89 1162.32 1105.89 1151.34 1098.86 1151.26C1090.07 1151.17 1088.56 1145.94 1097.32 1145.94C1107.52 1145.94 1120.52 1137.15 1123.46 1128.26L1126.29 1119.75H1104.77C1085.47 1119.75 1082.19 1120.63 1072.9 1128.26ZM1376.9 1156.03C1370.33 1157.6 1370.97 1158.44 1381.7 1162.32C1393.66 1166.64 1407.44 1181.22 1402.46 1184.27C1401.12 1185.1 1395.62 1183.88 1390.23 1181.57C1379.53 1176.98 1358.63 1175.94 1354.72 1179.81C1353.38 1181.14 1355.67 1182.91 1359.82 1183.73C1363.98 1184.55 1371.75 1189.17 1377.1 1193.99C1397.25 1212.15 1430.25 1230.13 1436.45 1226.33C1439.55 1224.43 1431.61 1195.93 1423.07 1178.33C1414.31 1160.27 1396.06 1151.46 1376.9 1156.03ZM1228.41 1168.94C1221.36 1172.43 1218.93 1176.54 1218.73 1185.31C1218.33 1202.44 1222.88 1209.28 1234.02 1208.3C1242.43 1207.57 1243.29 1205.92 1243.34 1190.47C1243.37 1181.11 1245.02 1171.38 1247 1168.86C1251.87 1162.68 1240.94 1162.73 1228.41 1168.94ZM1119.19 1173.15C1097.74 1178.88 1075.77 1196.06 1070.44 1211.25C1066.3 1223.07 1063.79 1248.28 1066.77 1248C1067.36 1247.94 1088.03 1241.76 1112.7 1234.25C1150.78 1222.66 1159.01 1219.01 1167.19 1210.12C1172.49 1204.35 1176.85 1198.17 1176.89 1196.36C1176.97 1192.29 1137.37 1191.86 1125.33 1195.8C1115.82 1198.92 1115.54 1198.48 1121.25 1189.28C1123.56 1185.56 1130.3 1181.39 1136.23 1180.01C1148.46 1177.17 1150.89 1169.46 1139.52 1169.62C1135.39 1169.68 1126.25 1171.26 1119.19 1173.15Z" fill="black" fill-opacity="0.08"/>
<path fill-rule="evenodd" clip-rule="evenodd" d="M2736.27 1094.45C2735.71 1098.67 2717.01 1118.69 2697.44 1136.01C2697.16 1136.25 2695.92 1134.5 2694.68 1132.12C2692.84 1128.57 2678.97 1118.47 2675.94 1118.47C2675.53 1118.47 2674.84 1124.88 2674.41 1132.71C2673.71 1145.37 2672.87 1148.68 2666.74 1162.75C2657.76 1183.36 2657.45 1192.43 2665.18 1207.66C2668.99 1215.17 2670.14 1219.1 2669.62 1222.91C2669.24 1225.73 2664.27 1235.98 2658.59 1245.67C2649.03 1261.97 2648.44 1263.47 2650.75 1265.52C2652.12 1266.75 2653.82 1267.75 2654.51 1267.75C2655.2 1267.75 2657.28 1263.62 2659.13 1258.57C2663.69 1246.14 2669.68 1237.61 2676.3 1234.12C2679.34 1232.53 2687.39 1230.09 2694.2 1228.7C2715.42 1224.37 2722.52 1217.38 2728.11 1195.31C2731.84 1180.62 2733.47 1177.86 2746.21 1164.65C2756.4 1154.09 2761.99 1146.56 2760.53 1145.38C2760.05 1145 2755.96 1146.16 2751.43 1147.96C2746.91 1149.77 2742.91 1151.01 2742.56 1150.72C2742.2 1150.44 2743.06 1147.89 2744.46 1145.07C2747.39 1139.18 2747.7 1136.96 2745.44 1138.08C2744.58 1138.51 2743.15 1138.5 2742.26 1138.06C2741.28 1137.57 2743.12 1133.65 2746.97 1128.03C2750.45 1122.95 2753.3 1118.44 2753.3 1118C2753.3 1117.57 2751.69 1117.21 2749.72 1117.21C2745.7 1117.21 2740.88 1119.54 2733.03 1125.31C2728.89 1128.35 2727.95 1128.66 2728.86 1126.7C2732.29 1119.29 2737.63 1099.63 2737.12 1096.34C2736.79 1094.25 2736.41 1093.4 2736.27 1094.45ZM2624.25 1125.66C2622.82 1127.62 2620.84 1131.79 2619.85 1134.92C2616.76 1144.68 2616.52 1144.75 2612.81 1136.84L2609.27 1129.28L2607.26 1139.69C2605.29 1149.88 2603.61 1152.39 2601.8 1147.81C2600.58 1144.7 2591.53 1137.93 2587.21 1136.88C2583.94 1136.09 2584.11 1136.68 2589.86 1145.73C2600.28 1162.13 2601.43 1170.62 2595.42 1186.79C2588.52 1205.35 2589.93 1211.01 2605.65 1227.9C2619.1 1242.34 2620.09 1243.95 2619.57 1250.71C2619.09 1257.01 2619.07 1256.98 2624.65 1258.06L2628.75 1258.85L2629.83 1248.44C2630.78 1239.23 2631.61 1237.15 2637.03 1230.43C2644.95 1220.6 2646.48 1217.15 2646.48 1209.04C2646.48 1200.85 2639.38 1188.54 2631.64 1183.32C2620.43 1175.76 2618.93 1166.69 2624.56 1140.59C2628.18 1123.78 2628.11 1120.34 2624.25 1125.66ZM2149.6 1191.53C2143.74 1208.87 2141.66 1238.22 2145.41 1250.67C2148.49 1260.93 2157.36 1274.63 2165.63 1281.93C2175.2 1290.35 2184.48 1294.5 2203.57 1298.86C2222.13 1303.1 2227.69 1305.37 2236.06 1312.09C2248.62 1322.19 2257.41 1336.33 2259.45 1349.72L2260.35 1355.66L2253.56 1347.44C2243.17 1334.86 2221.56 1317.93 2212.34 1315.14C2205.32 1313.02 2203.77 1312.98 2192.71 1314.64C2172.87 1317.63 2163.17 1317.1 2152.12 1312.43C2125.2 1301.06 2117.02 1304.11 2086.2 1336.99C2072.68 1351.41 2068.78 1354.31 2051.97 1362.38C2043.81 1366.3 2039.85 1370.27 2045.99 1368.37C2053.61 1366.02 2065.54 1364.92 2078.42 1365.38C2091.2 1365.85 2094.26 1366.47 2107.01 1371.22C2114.87 1374.14 2123.6 1376.54 2126.43 1376.54C2130.73 1376.54 2131.36 1376.89 2130.34 1378.75C2127.69 1383.57 2128.73 1388.39 2132.79 1390.15C2137.96 1392.41 2159.05 1391.38 2176.89 1388.01C2184.17 1386.64 2196.49 1384.88 2204.27 1384.1C2225.41 1381.99 2232.09 1379.86 2243.01 1371.72L2252.54 1364.61L2256.89 1368.54C2270.09 1380.43 2276.5 1418.86 2270.17 1448.16C2264.61 1473.9 2256.01 1498.68 2248.79 1509.79L2246.47 1513.35L2242.25 1508.21C2234.65 1498.96 2217.71 1485.59 2209.35 1482.23C2197.99 1477.68 2190.28 1477.98 2175.49 1483.56C2168.85 1486.06 2160.11 1488.48 2156.06 1488.93L2148.7 1489.76L2159.08 1496.71C2180.13 1510.81 2190.19 1513.71 2205.53 1510.12C2216.61 1507.53 2220.04 1507.6 2228.28 1510.61C2240.79 1515.19 2243.19 1524.17 2238.89 1550.39C2236.28 1566.28 2237.12 1574.32 2243.64 1596.02C2246.93 1606.98 2247.67 1612.09 2247.15 1620.11C2246.16 1635.45 2240.93 1643.57 2210.18 1677.49C2196.65 1692.42 2189.71 1702.9 2180.41 1722.46C2164.96 1754.94 2163.01 1777.5 2175.78 1776.03C2180.63 1775.47 2182.55 1770.95 2184.32 1755.93C2188.96 1716.55 2222.38 1667.72 2272.6 1626.97C2297.8 1606.52 2335.01 1586.69 2358.9 1580.98C2374.61 1577.22 2385.77 1578.52 2413.32 1587.3L2428.35 1592.09L2421.56 1596.49C2407.91 1605.32 2391.08 1620.15 2386.2 1627.64C2383.49 1631.82 2380.21 1638.5 2378.92 1642.5L2376.58 1649.77L2382.59 1649L2388.61 1648.22L2389.12 1673.35C2389.63 1698.21 2389.68 1698.55 2394 1704.46C2399.05 1711.39 2411.1 1718.01 2414.51 1715.73C2415.62 1714.99 2419.26 1710.38 2422.58 1705.5C2429.41 1695.46 2429.23 1695.46 2438.69 1705.83C2443.66 1711.28 2444.49 1713.15 2444.4 1718.63C2444.33 1722.38 2442.9 1727.42 2440.95 1730.74C2436.75 1737.91 2436.66 1744.93 2440.68 1751.53C2442.4 1754.36 2450.22 1762.26 2458.04 1769.09C2473.43 1782.53 2474.29 1783.71 2475.98 1793.67C2476.61 1797.32 2477.72 1800.61 2478.45 1800.98C2479.19 1801.34 2485.81 1797.08 2493.18 1791.49C2503.73 1783.49 2507.55 1781.34 2511.23 1781.34C2513.8 1781.34 2516.34 1781.91 2516.88 1782.6C2518.92 1785.26 2520.67 1783.58 2524.71 1775.07C2529.63 1764.68 2534.8 1758.12 2538.5 1757.54C2539.96 1757.32 2543.02 1758.64 2545.31 1760.48L2549.47 1763.82L2554.7 1759.74C2567.31 1749.9 2576.65 1728.48 2575.4 1712.24C2574.8 1704.44 2573.42 1701.03 2565.04 1686.79C2559.72 1677.74 2555.36 1669.69 2555.36 1668.89C2555.36 1668.09 2557.2 1665.2 2559.44 1662.47C2564.72 1656.05 2564.88 1647.05 2559.88 1638.63C2552.12 1625.55 2523.62 1606.98 2497.24 1597.81C2478.69 1591.37 2458.2 1588.22 2455.72 1591.44C2455.25 1592.06 2457.95 1594.85 2461.73 1597.66C2472.78 1605.86 2476.58 1610.76 2482.13 1624.01C2485.01 1630.88 2490.69 1642.62 2494.74 1650.11C2502.99 1665.33 2505.97 1676.08 2504.36 1684.76L2503.27 1690.59L2495.42 1684.42C2486.03 1677.03 2483.1 1672.89 2483.1 1667.02C2483.1 1664.61 2482.67 1661.74 2482.15 1660.64C2481.1 1658.43 2474.43 1657.9 2472.89 1659.9C2471.22 1662.08 2468.96 1661.28 2468.96 1658.5C2468.96 1657.04 2470.73 1654.15 2472.89 1652.08C2478.25 1646.95 2477.96 1641.62 2471.44 1626.04C2461.11 1601.33 2451.22 1590.83 2430.28 1582.34C2419.44 1577.95 2390.64 1570.08 2385.38 1570.08C2380.77 1570.08 2382.09 1568.16 2391.41 1561.3C2403.88 1552.12 2410.11 1549.84 2422.72 1549.84C2443.11 1549.84 2482.37 1563.25 2516.88 1582C2528.11 1588.1 2537.58 1593.31 2537.92 1593.57C2538.25 1593.84 2537.73 1594.83 2536.76 1595.78C2535.36 1597.14 2537.69 1599.62 2547.92 1607.63C2558.51 1615.93 2564.09 1619.1 2578.66 1625.08C2608.22 1637.22 2615 1644.59 2620.44 1670.56C2621.89 1677.47 2623.43 1683.59 2623.86 1684.15C2624.29 1684.71 2626.56 1684.22 2628.89 1683.06C2637.55 1678.76 2646.36 1670.72 2650.68 1663.21C2654.82 1655.99 2655.11 1654.42 2655.03 1639.66C2654.96 1625.89 2654.42 1622.65 2650.83 1614.57C2642.79 1596.49 2627.36 1580.59 2611.13 1573.66C2593.32 1566.05 2576.23 1566.57 2558.04 1575.28C2538.94 1584.42 2536.21 1584.27 2514.96 1573.02C2474.44 1551.55 2441.99 1537.98 2427.33 1536.36C2423.38 1535.93 2420.35 1535.19 2420.6 1534.72C2420.85 1534.26 2424.14 1531.65 2427.91 1528.93C2434.16 1524.43 2435.61 1523.97 2444.35 1523.74C2456.01 1523.45 2460.22 1520.51 2458.65 1513.77C2457.93 1510.72 2458.98 1507.3 2462.69 1500.48C2469.86 1487.35 2467.73 1480.97 2454.02 1474.5L2446.91 1471.14L2436.49 1478.51C2417.84 1491.7 2412.26 1501.42 2420.64 1506.14L2424.17 1508.13L2420.27 1514.12C2414.19 1523.45 2391.89 1540.53 2367.64 1554.42C2349.14 1565.01 2301.73 1596.26 2269.85 1618.86C2261.7 1624.64 2261.6 1624.67 2261.6 1621.35C2261.6 1619.5 2259.84 1611.12 2257.68 1602.73C2252.61 1583.04 2252.56 1572.79 2257.49 1564.39C2262.45 1555.94 2267.33 1552.52 2285.95 1544.4C2295.88 1540.07 2302.9 1536.09 2305.02 1533.59C2307.75 1530.39 2313.43 1519.81 2324 1498.29C2325.24 1495.77 2313.18 1496.35 2303.46 1499.28C2292.52 1502.58 2282.82 1508.25 2279.63 1513.22C2278.25 1515.37 2276.11 1521.36 2274.88 1526.54C2272.26 1537.59 2268.84 1543.31 2260.19 1551.11C2255.41 1555.43 2253.87 1556.23 2253.82 1554.42C2253.62 1547.54 2259.58 1524.59 2266.28 1506.42C2287.07 1450.04 2288.49 1431.93 2276.38 1377.17C2266.92 1334.41 2268.28 1316.67 2281.97 1304.15C2287.01 1299.54 2291.36 1297.35 2304 1293.05C2327.21 1285.17 2335.37 1279.72 2340.02 1269.01C2341.08 1266.58 2342.54 1256.9 2343.27 1247.51C2344.81 1227.71 2346.55 1222.04 2352.2 1218.47C2355.69 1216.26 2355.85 1215.88 2353.32 1215.89C2351.69 1215.89 2344.71 1216.99 2337.79 1218.32C2330.88 1219.65 2320.63 1221.4 2315.01 1222.21C2309.4 1223.02 2301.43 1225.15 2297.3 1226.95C2280.5 1234.3 2265.93 1252.74 2262.7 1270.75C2261.07 1279.88 2261.12 1280.14 2266.04 1287.75C2268.78 1292 2271.03 1296.52 2271.03 1297.81C2271.03 1299.09 2268.2 1304.85 2264.75 1310.6C2261.29 1316.36 2258.46 1322.16 2258.46 1323.5C2258.46 1324.84 2257.93 1325.92 2257.28 1325.91C2255.04 1325.85 2241.12 1301.25 2241.19 1297.47C2241.23 1295.39 2243.05 1290.26 2245.24 1286.09C2253.05 1271.24 2253.94 1268.4 2253.89 1258.63C2253.78 1238.97 2240.58 1218.73 2218.49 1204.34L2209.09 1198.21L2205.09 1201.3L2201.09 1204.39L2197.37 1200.02C2192.11 1193.83 2185.95 1191.18 2168.31 1187.49C2159.82 1185.71 2152.68 1184.26 2152.46 1184.26C2152.24 1184.26 2150.95 1187.53 2149.6 1191.53ZM2823.1 1211.98C2815.28 1214.8 2812.6 1218.02 2808.17 1229.93C2801.39 1248.15 2797.46 1251.52 2778.85 1255.05C2768.95 1256.92 2759.09 1262.4 2755.47 1268.04C2753.62 1270.91 2752.41 1277.4 2751.51 1289.28C2749.87 1310.85 2746.18 1322.47 2735 1341.29C2728.06 1352.98 2724.91 1356.88 2720.48 1359.34C2712.93 1363.52 2707.2 1365.15 2700.03 1365.15C2693.7 1365.15 2694.16 1364.77 2677.75 1383.85C2670.16 1392.67 2661.04 1395.83 2650.01 1393.45C2645.21 1392.41 2645.57 1390.89 2651.19 1388.55C2662.86 1383.7 2688.37 1358.15 2691.96 1347.73C2694.28 1341.02 2693.94 1324.26 2691.29 1314.19C2684.41 1288.04 2660.08 1268.68 2626.06 1262.27C2608.13 1258.89 2605.63 1258.62 2605.63 1260.02C2605.63 1261.96 2612.93 1264.57 2623.47 1266.39C2634.67 1268.33 2642.37 1273.5 2650.69 1284.65C2653.87 1288.92 2660.01 1296.67 2664.33 1301.87C2673.04 1312.36 2677.9 1321.45 2677.9 1327.28C2677.9 1332.12 2674.13 1338.09 2669.93 1339.9C2666.79 1341.25 2666.77 1341.19 2669.16 1337.47C2672.18 1332.76 2672.31 1325.93 2669.47 1320.46C2668.29 1318.19 2662.41 1312.66 2656.39 1308.17C2648.73 1302.44 2644.13 1297.74 2641.01 1292.41C2634.83 1281.88 2614.86 1266.09 2600.21 1260.15C2590.59 1256.26 2587.87 1255.73 2577.43 1255.74C2566.99 1255.76 2564.41 1256.27 2555.82 1260.01C2543.81 1265.23 2534.84 1272.15 2530.55 1279.5C2525.43 1288.27 2520.42 1311.21 2521.6 1320.45C2522.35 1326.31 2521.98 1329.2 2520.13 1332.09C2516.1 1338.36 2517.12 1346.4 2523.95 1362.3C2528.87 1373.76 2530.23 1378.79 2530.23 1385.49C2530.23 1393.8 2530.35 1394.07 2534.55 1394.8C2536.93 1395.21 2541.17 1395.01 2543.97 1394.35C2555.15 1391.74 2562.62 1385.07 2577.3 1364.6C2586.37 1351.95 2586.5 1350.15 2578.82 1343.11C2574.19 1338.86 2574.12 1338.61 2576.5 1334.9C2581.23 1327.54 2587.98 1326.66 2597.11 1332.23C2605.32 1337.23 2606.3 1337.01 2602.52 1331.04C2598.92 1325.37 2596.48 1324.03 2586.31 1322.2C2576.85 1320.49 2570.31 1321.69 2564.79 1326.13C2560.28 1329.76 2560.26 1329.76 2554.68 1327.62C2551.57 1326.42 2549.08 1324.53 2549.08 1323.36C2549.08 1319.26 2556.21 1312.63 2564.01 1309.49C2570.76 1306.77 2573.68 1306.37 2584.85 1306.63C2600.56 1307 2618.09 1309.79 2626.29 1313.24C2633.2 1316.14 2633.97 1315.07 2630.2 1307.81C2627.18 1301.99 2619.46 1297.21 2609.23 1294.81C2597.07 1291.97 2575.15 1292.91 2562.43 1296.83C2549.81 1300.72 2538.98 1309.31 2536.43 1317.45C2534.49 1323.66 2531.18 1325.27 2529.43 1320.85C2526.02 1312.18 2541.14 1298.21 2563.65 1289.24C2572.83 1285.58 2576.77 1283.4 2575.43 1282.72C2572.6 1281.28 2566.32 1281.42 2557.06 1283.14C2547.81 1284.86 2545.8 1284.03 2550.01 1280.22C2558.1 1272.88 2578.69 1270.36 2596.53 1274.54C2607.25 1277.05 2613.24 1280.9 2621.35 1290.52C2628.02 1298.44 2639.04 1306.83 2648.18 1310.97C2651.39 1312.42 2654.79 1314.98 2655.74 1316.67C2658.12 1320.88 2657.91 1327.5 2655.31 1330.37C2653.28 1332.61 2653.08 1332.51 2652.05 1328.75C2651.04 1325.03 2643.36 1318.35 2640.09 1318.35C2639.28 1318.35 2639.06 1322.3 2639.59 1327.52C2640.42 1335.78 2640.15 1337.13 2636.77 1341.12C2634.71 1343.55 2628.09 1348.25 2622.08 1351.56C2616.06 1354.87 2609.58 1358.99 2607.68 1360.72C2604.74 1363.4 2603.61 1363.69 2600.12 1362.62C2588.4 1359.03 2582.24 1362.77 2568.88 1381.6C2564.68 1387.51 2560.17 1393.34 2558.85 1394.56C2555.92 1397.27 2556.55 1397.31 2563.76 1394.88C2570.88 1392.49 2580.42 1392.49 2591.5 1394.88C2612.73 1399.47 2624.95 1395.96 2633.13 1382.94C2635.22 1379.62 2635.68 1376.58 2635.1 1370.01C2634.21 1359.97 2635.7 1357.55 2645.15 1353.67L2651.47 1351.07L2650.44 1353.68C2649.87 1355.12 2649.83 1356.3 2650.35 1356.3C2653.42 1356.3 2663.33 1351.92 2669.58 1347.8L2676.85 1343.01L2675.84 1348.07C2674.65 1354.01 2663.64 1367.13 2660.05 1366.88C2658.69 1366.79 2651.24 1371.99 2643.5 1378.43C2625.7 1393.25 2622.85 1399.74 2630.09 1408.99C2633.17 1412.94 2646.44 1416.23 2653.21 1414.72C2659.49 1413.33 2666.99 1415.06 2676.4 1420.07C2681.2 1422.63 2682.61 1424.19 2682.61 1426.95C2682.61 1431.71 2674.81 1444.01 2666.95 1451.63C2663.47 1455.01 2660.62 1458.79 2660.62 1460.04C2660.62 1462.78 2653.3 1465.09 2644.59 1465.09C2641.22 1465.09 2636.46 1465.92 2634.02 1466.94C2626.43 1470.1 2614.99 1486.38 2617.16 1490.93C2617.76 1492.2 2621.43 1492.6 2631.47 1492.46L2644.96 1492.29L2654.47 1484.46C2663.44 1477.08 2668.57 1474.87 2675.21 1475.55C2677.34 1475.77 2679.14 1473.6 2682.7 1466.53C2689.03 1453.93 2694.26 1448.43 2711.68 1436.05C2728.11 1424.38 2730.52 1420.87 2729.43 1410.23C2728.93 1405.37 2727.3 1402.03 2722.96 1396.95C2719.78 1393.22 2717.17 1389.58 2717.17 1388.87C2717.17 1388.15 2720.37 1384.55 2724.28 1380.86C2732.95 1372.68 2742.07 1360.68 2747.08 1350.83C2753.82 1337.59 2759.5 1333.73 2781.8 1327.19C2799.19 1322.09 2810.48 1312.52 2815.36 1298.74C2816.59 1295.26 2818.34 1285.41 2819.24 1276.84C2820.13 1268.27 2821.87 1259.71 2823.09 1257.8C2825.41 1254.19 2834.14 1247.47 2846.34 1239.92C2853.95 1235.2 2859.07 1229.89 2860.96 1224.74C2861.96 1222.01 2861.04 1222.39 2854.3 1227.45C2847.45 1232.59 2838.53 1237.39 2835.81 1237.39C2835.31 1237.39 2835.89 1235.82 2837.1 1233.91C2838.31 1231.99 2839.81 1229.11 2840.43 1227.49C2841.54 1224.6 2841.48 1224.58 2836.89 1226.5C2834.32 1227.57 2830.4 1230.18 2828.17 1232.32L2824.12 1236.19L2821.53 1233C2818.3 1229.03 2819.39 1224.96 2825.87 1216.78C2828.52 1213.45 2830.39 1210.5 2830.04 1210.21C2829.7 1209.93 2826.57 1210.73 2823.1 1211.98ZM2513.56 1227.06C2508.1 1229.83 2501.95 1238.89 2501.95 1244.14C2501.95 1246.72 2500.88 1247.89 2497.63 1248.88C2482.62 1253.45 2473.89 1270.12 2478.39 1285.63C2480.14 1291.68 2481.83 1293.57 2494.01 1303.17C2501.53 1309.08 2509.02 1315.58 2510.66 1317.61L2513.65 1321.29L2514.91 1316.41C2515.62 1313.67 2515.46 1307.42 2514.56 1302.19C2511.32 1283.4 2513.73 1268.21 2521.89 1256.14C2525.41 1250.94 2527.72 1249.32 2536.99 1245.59C2543.01 1243.17 2549.96 1241.18 2552.43 1241.18C2557.84 1241.18 2558.22 1239.05 2553.64 1234.36C2545.66 1226.19 2523.29 1222.11 2513.56 1227.06ZM2458.24 1246.84C2453 1251.35 2446.88 1257.57 2444.62 1260.66L2440.53 1266.28L2432.11 1265.59C2415.63 1264.22 2401.44 1273.44 2389.97 1292.97C2381.98 1306.58 2382.01 1310.01 2390.23 1322.52C2394.23 1328.62 2396.7 1334.06 2396.7 1336.79C2396.7 1342.96 2399.85 1348.36 2407.7 1355.66C2416.66 1364.01 2418.34 1367.65 2420.09 1382.62C2420.99 1390.36 2422.55 1396.48 2424.12 1398.4C2426.77 1401.67 2445.08 1412.64 2446.27 1411.68C2446.65 1411.38 2444.13 1408.08 2440.67 1404.35C2429 1391.76 2428.57 1384.45 2438.33 1364.59C2448.54 1343.81 2448.32 1342.08 2433.23 1323.98C2427.52 1317.13 2426.65 1311.15 2430.51 1305.21C2431.81 1303.2 2439.86 1294.09 2448.39 1284.97C2466.42 1265.7 2473.7 1255.04 2473.63 1247.98C2473.58 1243.64 2470.88 1238.65 2468.58 1238.65C2468.13 1238.65 2463.47 1242.34 2458.24 1246.84ZM2451.66 1286.44C2445.56 1291.36 2440.69 1301.19 2440.69 1308.61C2440.69 1310.66 2442.88 1319.8 2445.57 1328.94C2450.71 1346.42 2450.72 1346.75 2447.59 1375.53C2446.62 1384.42 2446.89 1385.86 2450.63 1392.03C2453.29 1396.4 2457.28 1400.32 2461.95 1403.13C2469.61 1407.76 2474.18 1412.86 2475.89 1418.69C2477.19 1423.12 2483.14 1430.64 2486.09 1431.57C2489.68 1432.7 2501.53 1421.26 2508.29 1410.14C2519.08 1392.39 2521.66 1378.03 2516.96 1361.98C2511.41 1343.02 2499.61 1328.33 2481.14 1317.39C2459.11 1304.34 2457.77 1301.88 2466.42 1290.59C2469.55 1286.51 2472.11 1282.84 2472.11 1282.42C2472.11 1282 2468.84 1281.66 2464.85 1281.66C2458.56 1281.66 2456.81 1282.29 2451.66 1286.44ZM2365.77 1296.22C2360.15 1300.74 2353.78 1304.8 2351.61 1305.24C2349.44 1305.68 2341.2 1305.61 2333.31 1305.08C2315.35 1303.88 2309.62 1304.1 2303.42 1306.19C2284.05 1312.73 2272.43 1334.8 2283.31 1344.42C2293.06 1353.05 2293.24 1353.48 2292.12 1365.71C2290.84 1379.82 2292.18 1382.79 2305.28 1394.65C2310.51 1399.39 2316.21 1405.59 2317.95 1408.41C2320.83 1413.11 2320.9 1413.8 2318.7 1416.51C2314.77 1421.33 2315.18 1433.23 2319.46 1438.81C2323.79 1444.45 2347.73 1458.87 2361.18 1463.94C2376.02 1469.53 2385.79 1470.48 2421.84 1469.81C2454.93 1469.21 2467.63 1467.53 2472.11 1463.19C2473.81 1461.54 2472.85 1461.29 2464.84 1461.28C2448.02 1461.25 2436.68 1457.84 2421.23 1448.18C2416.14 1445 2404.36 1438.59 2395.04 1433.94C2378.92 1425.89 2367.21 1418.12 2362.85 1412.59C2361.76 1411.2 2360.06 1406.64 2359.08 1402.47C2358.1 1398.29 2353.97 1389.19 2349.9 1382.23C2343.15 1370.68 2342.52 1368.8 2342.69 1360.68C2343 1345.49 2350.19 1331 2357.4 1331C2361.38 1331 2368.09 1337.75 2369.31 1342.97C2369.86 1345.35 2369.1 1353.1 2367.62 1360.2C2362.91 1382.78 2365.73 1389.19 2386.51 1403.03C2392.83 1407.24 2403.48 1415.79 2410.17 1422.03C2430.15 1440.64 2441.44 1446.56 2457.18 1446.68C2470.13 1446.77 2476.47 1444.45 2477.7 1439.17C2479.73 1430.5 2473.23 1425.4 2451.21 1418.37C2437.1 1413.87 2432.52 1411.75 2425.24 1406.35C2417.91 1400.92 2416.06 1397.56 2410.71 1379.97C2406.54 1366.22 2405.06 1363.38 2397.28 1354.18C2389.95 1345.51 2388.35 1342.62 2387.43 1336.29C2386.56 1330.33 2385.26 1327.76 2381.3 1324.13C2374.94 1318.29 2374.78 1313.53 2380.5 1300.23C2384.12 1291.82 2384.41 1290.17 2382.48 1289.18C2378.25 1287.03 2376.01 1287.97 2365.77 1296.22ZM2557.36 1399.27C2542.6 1400.62 2530.8 1402.89 2523.95 1405.69C2512.79 1410.25 2503.52 1421.04 2503.52 1429.47C2503.52 1438.85 2512.23 1450.51 2523.01 1455.59C2529.45 1458.62 2545.04 1461.33 2555.36 1461.21L2560.86 1461.15L2552.75 1458.18C2544.93 1455.31 2531.57 1448.64 2533.66 1448.64C2534.22 1448.64 2538.1 1449.82 2542.27 1451.27C2557.57 1456.56 2575.4 1459.2 2596.21 1459.27C2624.35 1459.36 2641.78 1454.63 2657.89 1442.53C2664.42 1437.63 2673.18 1428.56 2673.18 1426.71C2673.18 1426.45 2666.66 1425.84 2658.7 1425.35C2645.62 1424.56 2612.81 1420.14 2610.14 1418.81C2609.55 1418.52 2609.84 1416.27 2610.77 1413.82C2614.2 1404.81 2603.97 1399.56 2581.28 1398.7C2574.37 1398.44 2563.6 1398.69 2557.36 1399.27ZM2490.96 1448.02C2490.96 1450.58 2498.48 1458.18 2508.1 1465.35C2528.01 1480.18 2562.15 1493.04 2582.25 1493.29C2591.37 1493.4 2593.81 1492.91 2600.39 1489.64C2609.25 1485.23 2615.92 1476.86 2614.41 1472.03C2612.67 1466.46 2609.03 1465.96 2582.65 1467.67C2569.36 1468.53 2554.33 1468.89 2549.26 1468.47C2533.65 1467.15 2514.5 1460.37 2494.49 1449.06C2492.55 1447.97 2490.96 1447.5 2490.96 1448.02ZM2813.46 1453.04C2788.15 1458.76 2758.83 1470.06 2746.95 1478.66C2738 1485.14 2735.6 1490.23 2737.81 1498.12C2739.75 1505.08 2739.13 1506.06 2731.68 1507.86C2721.8 1510.24 2703.48 1509.62 2682.61 1506.2C2661.98 1502.82 2647.76 1502.24 2638.15 1504.39C2632.61 1505.63 2631.79 1505.45 2626.71 1501.85C2619.66 1496.86 2611.79 1496.74 2593.5 1501.34C2582.08 1504.2 2579.37 1504.48 2575.09 1503.24C2568.33 1501.27 2564.77 1501.39 2561.59 1503.71C2559.16 1505.49 2557.97 1505.07 2548.02 1498.97C2524.93 1484.81 2515.72 1478.05 2507.32 1469.13C2498.18 1459.44 2491.12 1454.98 2484.87 1454.97C2481.59 1454.97 2481.4 1455.21 2483.3 1457.06C2486.19 1459.86 2485.77 1471.72 2482.31 1485.33C2477.03 1506.09 2478.92 1515.61 2490.33 1525.78C2510.6 1543.85 2543.72 1554.12 2556.73 1546.37L2561.43 1543.58L2574.5 1549.14C2581.69 1552.2 2591.72 1555.57 2596.78 1556.62C2601.85 1557.67 2607.65 1559.79 2609.68 1561.31L2613.35 1564.09L2621.23 1560.02C2641.88 1549.35 2650.92 1531.57 2642.67 1517.86C2641.08 1515.22 2640.05 1512.88 2640.38 1512.65C2641.27 1512.03 2683.3 1515.36 2695.56 1517.01C2701.39 1517.8 2706.56 1518.97 2707.05 1519.61C2708.63 1521.66 2701.38 1531.55 2691.72 1540.5C2679.01 1552.3 2675.09 1558.03 2672.24 1569C2669.19 1580.71 2670.08 1588.36 2677.67 1615.77L2683.48 1636.78L2690.68 1631.58C2694.64 1628.72 2704.73 1623.28 2713.1 1619.5C2730.62 1611.58 2740.01 1604.21 2741.67 1597.08C2742.29 1594.41 2741.98 1588.37 2740.98 1583.66C2738.3 1571.06 2738.72 1566.04 2743.07 1558.51C2745.22 1554.79 2746.99 1550.72 2747 1549.46C2747.03 1545.33 2742.63 1540.41 2735.46 1536.56C2727.78 1532.43 2722.67 1526.74 2724.05 1523.84C2727.49 1516.62 2759.35 1530.35 2761.86 1540.14C2762.25 1541.65 2763.62 1547.31 2764.91 1552.71C2769.38 1571.49 2783.95 1589.87 2804.35 1602.48C2825.36 1615.46 2835.51 1617.65 2878.97 1618.62C2896.68 1619.02 2913.86 1619.87 2917.13 1620.52C2922.02 1621.49 2922.78 1621.4 2921.36 1620.03C2920.41 1619.1 2917.58 1611.67 2915.08 1603.52C2903.6 1566.14 2873.98 1535.33 2840.1 1525.54C2827.06 1521.76 2809.39 1521.19 2790.77 1523.94L2775.33 1526.23L2760 1521.08C2751.56 1518.26 2743.25 1515.54 2741.52 1515.04C2738.77 1514.25 2739.07 1513.93 2743.87 1512.48C2751.96 1510.04 2757.56 1510.27 2779.68 1513.95C2802.94 1517.81 2817.67 1517.56 2832.74 1513.02C2843.99 1509.63 2852.22 1502.96 2863.72 1487.9C2868.22 1482.01 2874.19 1475.96 2876.98 1474.45L2882.05 1471.7L2877.25 1470.1C2874.61 1469.22 2868.44 1465.97 2863.53 1462.89C2858.63 1459.8 2851.8 1456.11 2848.34 1454.67C2840.27 1451.32 2824.36 1450.57 2813.46 1453.04Z" fill="black" fill-opacity="0.08"/>
</g>
<defs>
<filter id="filter0_d_0_1" x="-4" y="0" width="3848" height="2392" filterUnits="userSpaceOnUse" color-interpolation-filters="sRGB">
<feFlood flood-opacity="0" result="BackgroundImageFix"/>
<feColorMatrix in="SourceAlpha" type="matrix" values="0 0 0 0 0 0 0 0 0 0 0 0 0 0 0 0 0 0 127 0" result="hardAlpha"/>
<feOffset dy="4"/>
<feGaussianBlur stdDeviation="2"/>
<feComposite in2="hardAlpha" operator="out"/>
<feColorMatrix type="matrix" values="0 0 0 0 0 0 0 0 0 0 0 0 0 0 0 0 0 0 0.25 0"/>
<feBlend mode="normal" in2="BackgroundImageFix" result="effect1_dropShadow_0_1"/>
<feBlend mode="normal" in="SourceGraphic" in2="effect1_dropShadow_0_1" result="shape"/>
</filter>
<filter id="filter1_f_0_1" x="398" y="937" width="2116" height="2169" filterUnits="userSpaceOnUse" color-interpolation-filters="sRGB">
<feFlood flood-opacity="0" result="BackgroundImageFix"/>
<feBlend mode="normal" in="SourceGraphic" in2="BackgroundImageFix" result="shape"/>
<feGaussianBlur stdDeviation="382" result="effect1_foregroundBlur_0_1"/>
</filter>
<filter id="filter2_f_0_1" x="900" y="294" width="2458" height="2239" filterUnits="userSpaceOnUse" color-interpolation-filters="sRGB">
<feFlood flood-opacity="0" result="BackgroundImageFix"/>
<feBlend mode="normal" in="SourceGraphic" in2="BackgroundImageFix" result="shape"/>
<feGaussianBlur stdDeviation="427" result="effect1_foregroundBlur_0_1"/>
</filter>
<filter id="filter3_f_0_1" x="535" y="-234" width="2007" height="2028" filterUnits="userSpaceOnUse" color-interpolation-filters="sRGB">
<feFlood flood-opacity="0" result="BackgroundImageFix"/>
<feBlend mode="normal" in="SourceGraphic" in2="BackgroundImageFix" result="shape"/>
<feGaussianBlur stdDeviation="322" result="effect1_foregroundBlur_0_1"/>
</filter>
<clipPath id="clip0_0_1">
<rect width="3840" height="2384" fill="white"/>
</clipPath>
</defs>
</svg>
