<svg width="400" height="419" viewBox="0 0 400 419" fill="none" xmlns="http://www.w3.org/2000/svg">
<path fill-rule="evenodd" clip-rule="evenodd" d="M273.046 2.66127C274.32 4.12549 276.9 4.64674 278.785 3.81641C283.89 1.57162 282.941 0 276.473 0C273.319 0 271.776 1.19705 273.046 2.66127ZM289.831 7.20323C290.063 13.5866 290.45 13.8093 293.254 9.16775C297.576 2.01429 297.576 0 293.254 0C291.23 0 289.691 3.24277 289.831 7.20323ZM358.645 6.79985C341.871 10.4696 311.659 27.5504 311.659 33.3601C311.659 34.8689 322.013 32.1317 334.664 27.278C362.311 16.6748 366.872 16.3343 366.872 24.8839C366.872 32.5796 369.581 32.9306 380.219 26.6048C387.18 22.4662 400 7.85283 400 4.06C400 1.38302 376.185 2.95988 358.645 6.79985ZM267.488 9.16775C270.01 11.3287 274.394 13.0968 277.231 13.0968C280.069 13.0968 283.887 15.8943 285.716 19.3125C291.322 29.8083 293.976 60.9708 290.203 72.0323C286.761 82.1273 286.618 81.8576 286.261 64.6274C285.929 48.5288 284.818 45.9828 275.133 39.0887C267.996 34.0097 260.634 31.4323 253.265 31.4323C247.155 31.4323 241.133 30.2536 239.882 28.8129C238.63 27.3723 234.371 26.1936 230.418 26.1936C224.135 26.1936 223.516 27.4666 225.511 36.341C226.925 42.6327 226.24 47.172 223.715 48.2826C218.382 50.6296 218.536 58.2781 224.083 66.9455C227.002 71.5006 235.424 76.0609 248.576 80.1995C270.477 87.091 273.223 91.5911 251.609 85.1632C230.915 79.0103 209.949 79.9978 199.226 87.6306C194.18 91.2191 190.076 97.2908 189.932 101.382C189.788 105.408 188.36 111.061 186.759 113.942C181.392 123.594 185.935 125.729 211.848 125.729C239.506 125.729 249.283 122.316 256.335 110.204C258.857 105.872 263.785 101.681 267.289 100.89C277.003 98.6974 276.201 82.4626 265.563 65.9292C254.66 48.9767 254.277 46.3967 263.881 54.6005C271.493 61.0991 279.469 78.1171 280.033 89.0582C280.445 97.0027 286.235 97.1048 291.859 89.2677C295.426 84.2962 296.302 84.105 298.33 87.869C299.92 90.8158 302.751 91.6016 307.087 90.305C310.613 89.2494 326.75 88.1126 342.946 87.7747C380.616 86.9915 385.276 85.5378 385.276 74.5574C385.276 69.7745 387.986 63.9307 391.298 61.5732C398.483 56.4603 396.827 55.1532 371.234 45.7497C353.761 39.3297 350.205 38.8765 337.951 41.488C322.355 44.812 306.741 55.5199 301.996 66.144C299.563 71.5923 298.776 68.394 298.776 53.0472C298.776 30.3191 289.066 7.15609 280.515 9.48994C277.809 10.2286 274.5 9.57637 273.164 8.03619C271.828 6.49863 268.972 5.23872 266.822 5.23872C264.352 5.23872 264.599 6.68984 267.488 9.16775ZM158.184 17.6807C148.99 33.0877 147.525 62.566 155.243 76.9463C158.795 83.568 164.188 90.4517 167.221 92.2433C172.01 95.0722 172.385 94.3493 170.055 86.8003C166.871 76.48 170.729 55.0065 175.772 55.0065C180.244 55.0065 185.309 63.7971 188.599 77.2711L191.158 87.7485L196.028 79.8904C207.401 61.5444 198.737 29.2582 178.278 13.7516C167.703 5.73639 164.998 6.2655 158.184 17.6807ZM295.559 11.8683C294.031 14.7077 294.451 17.3087 296.519 17.8012C298.544 18.2805 299.232 20.6615 298.047 23.0896C296.114 27.0422 296.619 27.0134 302.854 22.8251C307.529 19.6845 308.49 17.5314 305.769 16.2767C303.542 15.2473 300.947 12.6986 300.001 10.611C298.691 7.71139 297.642 8.00999 295.559 11.8683ZM269.329 18.3355C270.58 19.7762 274.088 20.9549 277.125 20.9549C280.161 20.9549 281.623 19.7762 280.371 18.3355C279.12 16.8949 275.612 15.7161 272.575 15.7161C269.538 15.7161 268.077 16.8949 269.329 18.3355ZM269.329 26.1936C270.58 27.6342 274.916 28.8129 278.965 28.8129C283.014 28.8129 285.304 27.6342 284.052 26.1936C282.801 24.7529 278.465 23.5742 274.416 23.5742C270.367 23.5742 268.077 24.7529 269.329 26.1936ZM359.51 62.4507C359.51 63.6635 352.782 66.089 344.559 67.8414C336.335 69.5963 322.83 75.3825 314.548 80.6998L299.493 90.3678L305.199 82.5045C313.326 71.3042 322.779 65.9764 339.449 63.1946C358.991 59.9361 359.51 59.9178 359.51 62.4507ZM68.7205 64.0721C68.7205 64.9653 72.0185 68.8891 76.0491 72.792C85.7151 82.1509 90.7543 102.336 88.2844 121.8C85.763 141.65 91.6634 157.311 106.067 168.983C112.265 174.007 118.405 178.116 119.715 178.116C121.022 178.116 122.093 167.215 122.093 153.887C122.093 138.027 123.86 127.447 127.206 123.257L132.319 116.852L140.089 123.573C146.958 129.514 160.573 136.207 165.796 136.207C170.368 136.207 164.155 111.273 156.937 100.662C148.051 87.6018 133.545 78.6436 109.008 71.0658C90.6843 65.4106 68.7205 61.5968 68.7205 64.0721ZM245.057 92.8929C237.78 94.7998 226.645 98.2652 220.31 100.596C209.691 104.505 208.97 104.505 211.086 100.586C214.02 95.1403 233.006 89.2389 247.243 89.3463L258.286 89.4275L245.057 92.8929ZM305.217 93.4115C296.162 96.0126 300.877 98.5219 316.013 99.1584C334.484 99.9337 350.065 105.984 355.516 114.497C361.678 124.121 360.504 124.273 346.69 115.642C334.966 108.318 306.439 99.7556 302.677 102.433C299.538 104.67 328.186 142.166 335.721 145.678C342.479 148.829 346.37 148.541 366.279 143.402L389.09 137.516L386.756 121.8C385.472 113.156 382.306 104.486 379.726 102.532C370.892 95.8475 318.899 89.4851 305.217 93.4115ZM270.709 106.186C265.902 110.28 255.757 118.547 248.164 124.556C240.574 130.565 234.36 136.662 234.36 138.103C234.36 139.546 239.329 145.175 245.403 150.613C251.476 156.051 256.446 162.696 256.446 165.381C256.446 170.829 263.793 171.84 270.212 167.272C272.52 165.63 283.069 163.312 293.659 162.12C304.249 160.931 314.357 158.442 316.124 156.593C321.457 151.014 315.995 131.209 305.232 117.096C292.157 99.9573 285.344 97.9404 289.964 112.575C293.862 124.912 291.359 134.541 283.003 139.373C278.016 142.257 277.504 142.084 279.55 138.203C284.472 128.851 286.61 107.839 283.091 103.368C279.779 99.1532 278.674 99.4046 270.709 106.186ZM192.03 137.768C158.449 144.908 153.278 147.187 143.38 159.207C129.341 176.254 129.455 198.144 143.678 216.097C152.063 226.682 152.409 227.688 145.496 221.336C121.814 199.585 102.975 188.01 75.1105 178.085C58.9809 172.341 42.2476 167.657 37.9262 167.678C32.0037 167.71 31.3227 168.283 35.1619 170.015C38.909 171.702 37.2048 172.786 28.7203 174.111C22.3782 175.101 17.1881 176.998 17.1881 178.323C17.1881 182.014 29.3534 181.194 37.9115 176.93C44.7248 173.532 47.0953 173.708 59.8937 178.535C99.4853 193.474 153.381 234.299 153.381 249.347C153.381 254.877 155.151 256.697 160.525 256.697C171.347 256.697 172.26 253.229 164.35 242.186C160.389 236.659 159.116 233.537 161.523 235.25C170.972 241.974 175.348 238.802 169.757 229.278C158.155 209.52 166.039 184.801 188.581 170.258C197.382 164.579 198.339 164.407 195.785 168.949C180.288 196.502 175.466 208.93 175.466 221.299C175.466 229.073 177.123 236.161 179.147 237.052C181.171 237.942 182.828 241.12 182.828 244.114C182.828 248.755 185.397 247.846 200.312 237.929C222.154 223.402 244.479 218.237 266.877 222.528C283.761 225.762 288.425 231.96 272.325 229.77C266.888 229.029 253.284 230.121 242.097 232.196C221.109 236.085 189.483 248.527 192.31 251.781C193.19 252.794 200.941 254.455 209.533 255.474C218.128 256.495 237.566 260.823 252.735 265.095C294.366 276.822 308.994 272.209 320.935 243.6C322.436 239.999 326.96 233.725 330.987 229.66L338.305 222.268L329.971 218.114C325.389 215.83 313.345 208.718 303.204 202.309C286.92 192.017 283.272 190.831 271.938 192.138C255.441 194.045 212.776 214.408 195.913 228.424C184.315 238.066 182.828 238.626 182.828 233.338C182.828 229.39 190.455 222.36 205.355 212.566C226.502 198.67 248.973 175.824 249.051 168.147C249.069 166.264 244.243 161.549 238.328 157.67C232.122 153.599 227.061 147.289 226.365 142.755C224.9 133.226 218.069 132.233 192.03 137.768ZM35.5925 153.958C35.5925 157.222 46.7493 167.639 50.2425 167.639C51.9982 167.639 50.9528 164.103 47.9235 159.781C42.8586 152.557 35.5925 149.125 35.5925 153.958ZM53.9969 158.18C53.9969 161.669 68.345 175.853 68.599 172.613C68.6653 171.749 66.9021 167.327 64.6789 162.79C60.571 154.401 53.9969 151.564 53.9969 158.18ZM339.265 156.439C335.216 157.146 329.691 159.006 326.99 160.569C323.184 162.77 325.885 164.202 338.953 166.916C348.236 168.841 355.829 171.513 355.829 172.854C355.829 174.195 341.927 175.209 324.932 175.109C278.833 174.837 275.244 177.894 307.982 189.547C338.165 200.292 352.075 201.195 379.751 194.207C401.115 188.814 403.732 184.343 392.859 171.819C381.301 158.516 360.887 152.656 339.265 156.439ZM68.7205 159.611C68.7205 164.323 76.3068 176.209 78.3754 174.737C81.4968 172.516 76.0233 157.161 72.1106 157.161C70.2444 157.161 68.7205 158.264 68.7205 159.611ZM14.4274 165.674C15.2704 167.477 18.1709 168.949 20.869 168.949C23.5671 168.949 26.4676 167.477 27.3105 165.674C28.2234 163.726 25.6137 162.4 20.869 162.4C16.1243 162.4 13.5146 163.726 14.4274 165.674ZM42.0341 181.312C31.6172 183.863 28.1682 188.594 36.7299 188.594C42.5788 188.594 56.5625 181.632 53.9896 180C52.981 179.358 47.6033 179.95 42.0341 181.312ZM54.0522 188.473C49.0204 191.224 46.1714 194.377 47.721 195.48C49.2707 196.583 55.0055 194.304 60.468 190.419C71.8566 182.313 67.6493 181.037 54.0522 188.473ZM53.9969 206.154C50.9602 206.94 44.3346 210.24 39.2734 213.488C34.2122 216.736 23.8616 220.807 16.2679 222.533C-1.20526 226.506 -1.30096 231.803 16.0029 237.686C25.0063 240.748 30.7117 244.92 33.0343 250.149C37.9814 261.27 49.5468 269.419 65.0911 272.733C76.3767 275.14 81.0809 274.737 95.2191 270.153C104.436 267.167 119.222 264.086 128.075 263.308C143.251 261.98 143.553 262.072 133.302 264.935C112.052 270.863 80.6686 285.447 74.3228 292.339C63.8212 303.743 63.3685 316.9 73.1265 327.176C77.7902 332.085 85.855 340.925 91.0487 346.821C102.927 360.306 114.857 361.238 125.642 349.527C129.702 345.121 139.169 338.4 146.682 334.594C164.011 325.811 167.843 314.014 160.065 293.358C156.178 283.032 155.645 277.097 158.24 272.958C163.279 264.924 159.719 263.442 146.799 268.196C129.694 274.493 118.313 286.068 110.745 304.875C106.913 314.394 102.518 322.181 100.972 322.181C95.2192 322.181 98.4326 300.645 105.702 290.51C112.195 281.45 134.888 268.031 151.121 263.646C160.433 261.132 134.266 247.927 103.825 239.779C86.109 235.038 73.1265 230.493 74.9743 229.681C80.849 227.096 104.65 232.269 125.612 240.688C136.773 245.172 146.763 248.839 147.804 248.839C158.276 248.839 124.445 219.376 104.355 210.997C89.0169 204.601 67.8518 202.565 53.9969 206.154ZM179.28 258.662C179.353 259.741 187.966 264.752 198.424 269.794C219.07 279.75 231.912 292.59 230.032 301.386C229.056 305.938 225.994 304.071 213.206 291.131C193.694 271.384 172.797 259.248 167.762 264.739C165.874 266.8 165.288 270.842 166.466 273.723C167.644 276.604 169.842 291.079 171.355 305.886C173.302 324.963 175.808 334.026 179.957 336.975C183.42 339.443 195.722 341.871 210.092 342.929C223.45 343.914 236.359 346.13 238.785 347.856C247.788 354.263 255.698 351.421 258.201 340.875C259.545 335.22 266.991 324.706 275.089 317.037C283.055 309.493 289.573 300.613 289.573 297.305C289.573 290.393 270.933 277.725 249.095 269.796C224.915 261.019 178.945 253.687 179.28 258.662ZM19.7021 299.262C3.51731 314.739 -1.87887 321.916 0.557875 324.722C5.92828 330.909 32.2429 337.897 50.1688 337.897C60.3722 337.897 68.7205 337.25 68.7205 336.462C68.7205 333.324 48.0781 322.341 42.0341 322.265C34.4699 322.165 33.1668 316.942 40.7053 316.942C49.4768 316.942 60.663 308.149 63.1955 299.262L65.6248 290.749H47.1137C30.5129 290.749 27.6897 291.626 19.7021 299.262ZM281.207 327.029C275.553 328.598 276.105 329.437 285.333 333.316C295.618 337.64 307.477 352.222 303.189 355.274C302.037 356.096 297.303 354.878 292.673 352.571C283.467 347.982 265.486 346.942 262.129 350.805C260.969 352.141 262.942 353.909 266.513 354.729C270.087 355.552 276.775 360.172 281.38 364.994C298.709 383.154 327.093 401.131 332.43 397.33C335.099 395.431 328.263 366.928 320.92 349.331C313.381 331.268 297.69 322.456 281.207 327.029ZM153.469 339.94C147.41 343.432 145.32 347.539 145.143 356.311C144.801 373.439 148.713 380.276 158.298 379.304C165.528 378.573 166.268 376.92 166.312 361.471C166.338 352.107 167.758 342.384 169.466 339.862C173.655 333.683 164.247 333.73 153.469 339.94ZM59.5183 344.152C41.0697 349.881 22.1647 367.058 17.5857 382.251C14.0226 394.069 11.8582 419.275 14.4274 418.998C14.9354 418.943 32.7141 412.756 53.9344 405.246C86.6942 393.655 93.7763 390.012 100.807 381.117C105.364 375.354 109.118 369.167 109.151 367.365C109.225 363.289 75.1583 362.857 64.7967 366.802C56.6177 369.919 56.3822 369.479 61.2925 360.285C63.2801 356.563 69.0775 352.39 74.1756 351.012C84.6955 348.165 86.7899 340.464 77.0025 340.619C73.4578 340.676 65.5917 342.264 59.5183 344.152Z" fill="black" fill-opacity="0.08"/>
</svg>
