<svg width="39" height="36" viewBox="0 0 39 36" fill="none" xmlns="http://www.w3.org/2000/svg">
<path fill-rule="evenodd" clip-rule="evenodd" d="M13.4931 0.524921C10.409 1.45016 8.14004 2.85177 5.46042 5.48672C-0.0972261 10.9519 -1.53031 18.3339 1.70482 24.8334C3.39041 28.2206 7.63813 32.2624 11.2072 33.8754C13.8064 35.0499 14.6464 35.1822 19.5099 35.1822C24.3719 35.1822 25.2139 35.0499 27.8111 33.8763C31.022 32.4259 35.3398 28.5277 36.9038 25.6676C40.6367 18.8397 39.3211 11.1007 33.4594 5.39951C29.6054 1.65161 26.0502 0.200706 20.2829 0.0224834C17.3549 -0.0675761 14.852 0.117283 13.4931 0.524921ZM15.356 7.29692C17.1694 8.46532 24.9294 8.49281 26.0683 7.33484C27.4488 5.93086 28.1527 6.35366 28.4367 8.75683C28.5825 9.99491 28.9906 12.0923 29.3431 13.4167C29.9146 15.5644 29.8775 16.0265 28.9984 17.6827C28.3217 18.9577 27.3468 19.8375 25.8895 20.4883L23.7669 21.4363L24.0307 25.1097L24.2951 28.7832H20.8719H17.4487V27.3612C17.4487 26.0677 17.2946 25.9392 15.7435 25.9392C13.7142 25.9392 12.9505 25.4131 11.099 22.7397C9.42421 20.3209 10.3775 19.9294 12.6557 22.1008C15.055 24.3874 16.9308 24.4495 17.6718 22.2658C17.9552 21.4291 17.8315 21.1988 17.0967 21.1959C15.8048 21.1917 13.2746 19.5867 12.4774 18.2652C11.5648 16.7527 11.6174 12.9095 12.5743 11.2079C13.0108 10.431 13.221 9.57637 13.0412 9.30856C12.6428 8.71607 13.1917 6.50534 13.7369 6.50534C13.9517 6.50534 14.6804 6.86132 15.356 7.29692Z" fill="black"/>
</svg>
