<svg width="40" height="36" viewBox="0 0 40 36" fill="none" xmlns="http://www.w3.org/2000/svg">
<path fill-rule="evenodd" clip-rule="evenodd" d="M1.35875 1.27205C0.0318749 2.51497 0 2.89702 0 17.668C0 32.7655 0.00249952 32.7935 1.44625 33.987C2.85937 35.154 3.29375 35.1821 20.0875 35.1821C37.2525 35.1821 37.2844 35.1799 38.6412 33.91C39.9681 32.6671 40 32.285 40 17.5141C40 2.41657 39.9975 2.38853 38.5537 1.19509C37.1406 0.0280356 36.7063 0 19.9125 0C2.7475 0 2.71562 0.00219846 1.35875 1.27205ZM15 11.2693C15.6206 11.9273 15.6206 12.2604 15 12.9184C13.4381 14.5736 11.2119 13.3071 12.1012 11.2693C12.2987 10.8157 12.8569 10.4447 13.3413 10.4447C13.8256 10.4447 14.5719 10.8157 15 11.2693ZM15.625 19.515V24.7374H13.75H11.875V19.515V14.2927H13.75H15.625V19.515ZM20.625 14.9524C20.625 15.4653 20.7919 15.4653 21.375 14.9524C21.7875 14.5896 23.0369 14.2927 24.1519 14.2927C27.1494 14.2927 28.125 15.8748 28.125 20.7371V24.7374H26.2787C24.4344 24.7374 24.4319 24.733 24.2475 21.0323C24.0919 17.9154 23.8762 17.2964 22.8875 17.1304C21.2112 16.8489 20.6456 17.9659 20.6344 21.5765C20.6256 24.5796 20.5469 24.7374 19.0625 24.7374C17.5056 24.7374 17.5 24.7192 17.5 19.515C17.5 14.3108 17.5056 14.2927 19.0625 14.2927C19.9219 14.2927 20.625 14.5896 20.625 14.9524Z" fill="#0076B4"/>
</svg>
