<svg width="674" height="718" viewBox="0 0 674 718" fill="none" xmlns="http://www.w3.org/2000/svg">
<path fill-rule="evenodd" clip-rule="evenodd" d="M574.965 0.456696C574.504 4.74628 558.99 25.0778 542.763 42.6588C542.53 42.9119 541.498 41.1352 540.471 38.711C538.944 35.11 527.443 24.8556 524.931 24.8556C524.588 24.8556 524.016 31.36 523.659 39.3083C523.08 52.1733 522.381 55.5263 517.299 69.8198C509.854 90.7538 509.593 99.9587 516.004 115.426C519.168 123.06 520.116 127.044 519.688 130.916C519.37 133.782 515.255 144.184 510.54 154.031C502.616 170.581 502.125 172.106 504.039 174.192C505.179 175.433 506.58 176.449 507.156 176.449C507.731 176.449 509.456 172.259 510.989 167.135C514.769 154.503 519.738 145.84 525.231 142.305C527.749 140.683 534.43 138.204 540.076 136.795C557.671 132.401 563.559 125.303 568.198 102.888C571.287 87.9673 572.641 85.1603 583.208 71.7468C591.658 61.0222 596.296 53.3757 595.081 52.1771C594.689 51.7904 591.296 52.9723 587.541 54.8043C583.785 56.6376 580.472 57.8991 580.178 57.6075C579.883 57.3172 580.595 54.7311 581.759 51.8611C584.185 45.8834 584.443 43.6288 582.574 44.7683C581.857 45.2051 580.668 45.1948 579.932 44.7465C579.116 44.2493 580.645 40.2629 583.84 34.5563C586.726 29.3995 589.088 24.8196 589.088 24.3764C589.088 23.9332 587.752 23.5709 586.121 23.5709C582.785 23.5709 578.792 25.9424 572.281 31.7942C568.842 34.8852 568.068 35.2012 568.821 33.2061C571.66 25.6829 576.093 5.71366 575.666 2.37346C575.395 0.253715 575.08 -0.608313 574.965 0.456696ZM482.058 32.1488C480.875 34.1439 479.235 38.3769 478.412 41.5566C475.845 51.4705 475.646 51.5373 472.576 43.5093L469.638 35.8255L467.971 46.3999C466.337 56.7545 464.939 59.2994 463.442 54.6463C462.427 51.4937 454.922 44.6103 451.338 43.5465C448.626 42.741 448.774 43.3423 453.539 52.5317C462.181 69.1929 463.135 77.8157 458.153 94.2289C452.429 113.084 453.597 118.832 466.638 135.981C477.793 150.651 478.609 152.287 478.18 159.151C477.781 165.545 477.768 165.52 482.396 166.612L485.792 167.414L486.687 156.838C487.478 147.485 488.167 145.374 492.658 138.553C499.23 128.571 500.495 125.065 500.495 116.833C500.495 108.513 494.605 96.0095 488.192 90.714C478.894 83.0367 477.646 73.8216 482.314 47.3145C485.319 30.2436 485.261 26.7492 482.058 32.1488ZM88.4072 99.0465C83.5503 116.661 81.8253 146.461 84.93 159.106C87.49 169.53 94.8433 183.444 101.707 190.849C109.637 199.405 117.339 203.615 133.169 208.047C148.562 212.358 153.173 214.659 160.113 221.488C170.534 231.745 177.822 246.099 179.511 259.695L180.261 265.735L174.629 257.385C166.008 244.606 148.092 227.414 140.445 224.585C134.616 222.428 133.333 222.389 124.16 224.077C107.709 227.106 99.6651 226.568 90.4957 221.826C68.1768 210.284 61.3864 213.382 35.8286 246.768C24.619 261.412 21.3775 264.356 7.43586 272.56C0.670221 276.54 -2.60902 280.564 2.48247 278.637C8.79863 276.248 18.6937 275.133 29.377 275.607C39.9755 276.078 42.5109 276.712 53.0899 281.533C59.6041 284.503 66.8492 286.933 69.1891 286.933C72.7549 286.933 73.28 287.296 72.4358 289.181C70.2405 294.078 71.0977 298.968 74.4669 300.762C78.7545 303.048 96.249 302.006 111.04 298.585C117.079 297.188 127.297 295.401 133.746 294.614C151.28 292.474 156.821 290.305 165.875 282.039L173.781 274.822L177.392 278.807C188.341 290.891 193.656 329.913 188.407 359.671C183.795 385.812 176.664 410.974 170.668 422.258L168.747 425.872L165.245 420.654C158.942 411.261 144.897 397.683 137.959 394.275C128.545 389.649 122.143 389.955 109.883 395.616C104.377 398.16 97.1245 400.616 93.7658 401.076L87.6607 401.913L96.2751 408.978C113.728 423.293 122.073 426.242 134.797 422.595C143.98 419.963 146.829 420.038 153.659 423.095C164.038 427.74 166.025 436.865 162.461 463.494C160.3 479.624 160.995 487.792 166.398 509.827C169.13 520.966 169.747 526.148 169.315 534.294C168.487 549.872 164.15 558.116 138.655 592.564C127.427 607.733 121.678 618.369 113.96 638.241C101.15 671.225 99.5322 694.139 110.119 692.642C114.146 692.073 115.739 687.482 117.206 672.229C121.051 632.236 148.773 582.647 190.419 541.264C211.322 520.495 242.179 500.356 261.988 494.554C275.018 490.74 284.277 492.056 307.128 500.974L319.595 505.84L313.961 510.303C302.635 519.276 288.679 534.335 284.635 541.944C282.384 546.184 279.666 552.974 278.598 557.034L276.657 564.417L281.643 563.631L286.63 562.845L287.056 588.365C287.476 613.607 287.521 613.954 291.099 619.954C295.294 626.993 305.284 633.72 308.109 631.407C309.036 630.648 312.051 625.969 314.809 621.009C320.473 610.822 320.324 610.818 328.163 621.348C332.284 626.883 332.975 628.779 332.898 634.347C332.846 638.152 331.656 643.272 330.042 646.646C326.558 653.926 326.481 661.058 329.817 667.759C331.247 670.632 337.726 678.66 344.214 685.598C356.979 699.246 357.695 700.444 359.097 710.559C359.611 714.268 360.532 717.606 361.143 717.978C361.753 718.35 367.248 714.016 373.354 708.345C382.103 700.218 385.275 698.034 388.33 698.034C390.461 698.034 392.568 698.612 393.011 699.319C394.703 702.019 396.153 700.311 399.504 691.665C403.591 681.117 407.876 674.448 410.94 673.866C412.152 673.637 414.695 674.978 416.591 676.847L420.038 680.246L424.383 676.094C434.84 666.101 442.582 644.347 441.549 627.86C441.053 619.933 439.905 616.478 432.953 602.009C428.54 592.824 424.93 584.645 424.93 583.833C424.93 583.021 426.452 580.089 428.312 577.317C432.686 570.8 432.823 561.654 428.675 553.099C422.236 539.821 398.6 520.962 376.725 511.652C361.34 505.106 344.343 501.911 342.294 505.181C341.902 505.807 344.143 508.646 347.273 511.492C356.443 519.826 359.59 524.804 364.196 538.253C366.584 545.229 371.29 557.157 374.652 564.759C381.492 580.218 383.966 591.139 382.626 599.952L381.726 605.877L375.214 599.604C367.43 592.105 365 587.901 365 581.938C365 579.488 364.644 576.569 364.209 575.451C363.337 573.21 357.805 572.671 356.531 574.704C355.142 576.92 353.274 576.105 353.274 573.283C353.274 571.795 354.74 568.861 356.531 566.762C360.979 561.548 360.734 556.139 355.331 540.319C346.761 515.222 338.56 504.562 321.188 495.935C312.204 491.475 288.315 483.491 283.95 483.491C280.126 483.491 281.222 481.535 288.956 474.566C299.292 465.251 304.462 462.936 314.923 462.936C331.831 462.936 364.394 476.553 393.011 495.591C402.326 501.788 410.178 507.079 410.46 507.347C410.74 507.617 410.309 508.624 409.499 509.585C408.337 510.966 410.275 513.487 418.76 521.625C427.541 530.05 432.17 533.267 444.249 539.341C468.767 551.67 474.386 559.162 478.903 585.534C480.105 592.549 481.381 598.758 481.739 599.33C482.098 599.902 483.972 599.406 485.906 598.229C493.088 593.856 500.401 585.696 503.977 578.066C507.416 570.73 507.655 569.138 507.591 554.149C507.532 540.165 507.081 536.872 504.101 528.667C497.433 510.307 484.637 494.157 471.181 487.12C456.412 479.396 442.239 479.927 427.145 488.769C411.309 498.046 409.042 497.9 391.417 486.469C357.816 464.674 330.906 450.89 318.748 449.247C315.471 448.804 312.959 448.055 313.165 447.581C313.37 447.107 316.096 444.46 319.223 441.698C324.406 437.122 325.614 436.656 332.864 436.43C342.531 436.13 346.019 433.149 344.716 426.303C344.127 423.208 344.992 419.731 348.073 412.808C354.013 399.465 352.248 392.987 340.883 386.421L334.986 383.012L326.345 390.493C310.871 403.89 306.25 413.758 313.2 418.557L316.121 420.574L312.886 426.66C307.851 436.134 289.352 453.478 269.241 467.58C253.896 478.34 214.575 510.07 188.139 533.024C181.383 538.892 181.3 538.922 181.3 535.554C181.3 533.68 179.834 525.17 178.042 516.643C173.841 496.647 173.8 486.24 177.89 477.709C182.003 469.132 186.047 465.651 201.494 457.404C209.722 453.009 215.549 448.968 217.31 446.434C219.568 443.183 224.285 432.438 233.048 410.584C234.075 408.024 224.077 408.614 216.011 411.589C206.938 414.937 198.894 420.697 196.248 425.742C195.104 427.925 193.333 434.013 192.312 439.271C190.137 450.487 187.298 456.3 180.13 464.22C176.16 468.605 174.883 469.418 174.841 467.585C174.68 460.594 179.623 437.291 185.179 418.835C202.421 361.578 203.595 343.189 193.553 287.575C185.711 244.149 186.837 226.137 198.187 213.424C202.37 208.737 205.978 206.511 216.457 202.151C235.711 194.139 242.474 188.613 246.336 177.734C247.214 175.261 248.427 165.433 249.032 155.894C250.306 135.79 251.751 130.037 256.433 126.404C259.329 124.158 259.465 123.778 257.366 123.786C256.015 123.791 250.22 124.9 244.487 126.25C238.755 127.6 230.254 129.378 225.596 130.2C220.938 131.024 214.329 133.194 210.908 135.023C196.968 142.481 184.884 161.208 182.212 179.502C180.857 188.773 180.9 189.039 184.976 196.763C187.254 201.077 189.117 205.673 189.117 206.976C189.117 208.279 186.771 214.127 183.905 219.971C181.039 225.816 178.694 231.71 178.694 233.071C178.694 234.431 178.254 235.531 177.717 235.515C175.858 235.458 164.311 210.479 164.367 206.639C164.399 204.52 165.913 199.317 167.732 195.077C174.204 179.994 174.944 177.115 174.899 167.194C174.808 147.23 163.862 126.671 145.545 112.057L137.75 105.836L134.431 108.971L131.114 112.104L128.03 107.667C123.667 101.387 118.556 98.6894 103.923 94.9406C96.8809 93.1357 90.9673 91.6595 90.781 91.6595C90.596 91.6595 89.5277 94.9843 88.4072 99.0465ZM646.978 119.816C640.494 122.678 638.27 125.953 634.597 138.041C628.973 156.551 625.715 159.969 610.282 163.551C602.069 165.456 593.889 171.021 590.887 176.745C589.356 179.664 588.354 186.251 587.605 198.321C586.244 220.224 583.185 232.028 573.912 251.137C568.154 263.008 565.547 266.975 561.866 269.471C555.608 273.717 550.854 275.37 544.911 275.37C539.662 275.37 540.037 274.984 526.429 294.362C520.139 303.318 512.57 306.526 503.426 304.109C499.441 303.056 499.744 301.513 504.407 299.136C514.081 294.203 535.235 268.262 538.217 257.676C540.136 250.864 539.858 233.838 537.661 223.614C531.955 197.061 511.777 177.396 483.558 170.888C468.693 167.46 466.621 167.181 466.621 168.606C466.621 170.573 472.675 173.221 481.411 175.075C490.7 177.045 497.085 182.289 503.985 193.617C506.626 197.952 511.718 205.821 515.299 211.101C522.525 221.753 526.552 230.988 526.552 236.907C526.552 241.826 523.427 247.887 519.945 249.725C517.342 251.099 517.326 251.036 519.307 247.258C521.812 242.48 521.916 235.537 519.565 229.987C518.589 227.683 513.708 222.065 508.72 217.503C502.359 211.686 498.548 206.907 495.96 201.501C490.836 190.803 474.273 174.768 462.121 168.738C454.143 164.78 451.889 164.247 443.23 164.261C434.569 164.275 432.436 164.791 425.304 168.589C415.344 173.897 407.907 180.923 404.348 188.389C400.103 197.292 395.946 220.587 396.927 229.975C397.549 235.921 397.245 238.863 395.708 241.794C392.37 248.159 393.213 256.326 398.874 272.471C402.954 284.11 404.085 289.219 404.085 296.024C404.085 304.464 404.188 304.736 407.668 305.476C409.638 305.895 413.154 305.693 415.48 305.026C424.751 302.372 430.948 295.597 443.122 274.81C450.644 261.967 450.75 260.134 444.383 252.983C440.541 248.668 440.484 248.419 442.461 244.647C446.382 237.173 451.977 236.284 459.549 241.933C466.361 247.015 467.177 246.795 464.038 240.726C461.057 234.966 459.031 233.613 450.591 231.747C442.749 230.014 437.325 231.228 432.751 235.739C429.011 239.427 428.993 239.43 424.361 237.252C421.783 236.04 419.719 234.118 419.719 232.928C419.719 228.761 425.633 222.033 432.097 218.844C437.699 216.082 440.117 215.676 449.382 215.941C462.412 216.314 476.951 219.152 483.755 222.649C489.483 225.593 490.118 224.512 486.992 217.137C484.488 211.228 478.086 206.367 469.603 203.936C459.522 201.046 441.343 202.007 430.793 205.988C420.323 209.939 411.339 218.66 409.23 226.925C407.618 233.234 404.869 234.869 403.424 230.378C400.592 221.577 413.137 207.386 431.803 198.277C439.413 194.563 442.679 192.351 441.574 191.66C439.228 190.192 434.016 190.337 426.337 192.085C418.662 193.832 417 192.988 420.486 189.118C427.201 181.662 444.279 179.109 459.069 183.349C467.966 185.899 472.926 189.81 479.653 199.58C485.189 207.618 494.325 216.141 501.908 220.345C504.566 221.818 507.387 224.422 508.178 226.132C510.153 230.408 509.98 237.13 507.819 240.044C506.134 242.318 505.969 242.218 505.117 238.398C504.277 234.62 497.906 227.837 495.2 227.837C494.525 227.837 494.345 231.854 494.782 237.151C495.475 245.546 495.243 246.908 492.442 250.961C490.733 253.434 485.249 258.206 480.258 261.565C475.265 264.925 469.893 269.113 468.317 270.873C465.884 273.594 464.943 273.882 462.044 272.795C452.328 269.153 447.222 272.951 436.136 292.071C432.655 298.077 428.912 304.002 427.817 305.24C425.39 307.984 425.914 308.025 431.895 305.561C437.795 303.13 445.711 303.13 454.896 305.561C472.503 310.22 482.641 306.663 489.426 293.44C491.159 290.064 491.542 286.98 491.058 280.309C490.318 270.112 491.554 267.651 499.393 263.707L504.633 261.071L503.779 263.725C503.309 265.184 503.276 266.378 503.706 266.378C506.251 266.378 514.47 261.931 519.656 257.75L525.685 252.888L524.845 258.027C523.86 264.06 514.728 277.376 511.749 277.127C510.623 277.033 504.448 282.312 498.025 288.858C483.262 303.906 480.902 310.495 486.901 319.894C489.461 323.904 500.464 327.242 506.08 325.714C511.289 324.294 517.507 326.05 525.31 331.143C529.289 333.739 530.46 335.328 530.46 338.133C530.46 342.965 523.989 355.453 517.475 363.191C514.585 366.623 512.22 370.47 512.22 371.737C512.22 374.519 506.149 376.861 498.933 376.861C496.138 376.861 492.191 377.708 490.161 378.743C483.871 381.951 474.38 398.489 476.177 403.11C476.679 404.399 479.722 404.797 488.046 404.663L499.24 404.482L507.126 396.535C514.566 389.037 518.818 386.8 524.321 387.489C526.092 387.71 527.582 385.511 530.533 378.324C535.784 365.533 540.125 359.943 554.568 347.376C568.197 335.517 570.197 331.955 569.289 321.154C568.873 316.212 567.526 312.822 563.927 307.665C561.285 303.877 559.123 300.18 559.123 299.453C559.123 298.725 561.775 295.067 565.018 291.326C572.214 283.021 579.771 270.833 583.929 260.83C589.518 247.382 594.229 243.455 612.728 236.816C627.144 231.642 636.51 221.92 640.559 207.924C641.581 204.391 643.027 194.384 643.772 185.684C644.517 176.985 645.957 168.284 646.972 166.346C648.896 162.679 656.132 155.862 666.251 148.186C672.565 143.397 676.808 138.004 678.379 132.77C679.209 130.004 678.443 130.385 672.854 135.523C667.17 140.748 659.772 145.617 657.518 145.617C657.106 145.617 657.588 144.027 658.592 142.084C659.594 140.14 660.834 137.208 661.348 135.568C662.267 132.632 662.22 132.616 658.411 134.558C656.282 135.644 653.029 138.303 651.181 140.468L647.822 144.403L645.671 141.165C642.993 137.134 643.897 133 649.278 124.692C651.469 121.309 653.026 118.308 652.737 118.023C652.449 117.739 649.857 118.546 646.978 119.816ZM390.258 135.132C385.734 137.947 380.634 147.142 380.634 152.477C380.634 155.094 379.745 156.289 377.051 157.292C364.596 161.932 357.359 178.857 361.091 194.615C362.545 200.757 363.944 202.68 374.049 212.421C380.279 218.427 386.493 225.026 387.855 227.085L390.335 230.829L391.381 225.866C391.966 223.086 391.838 216.736 391.09 211.43C388.399 192.347 390.404 176.918 397.171 164.658C400.084 159.381 402 157.742 409.688 153.949C414.681 151.486 420.446 149.471 422.499 149.471C426.987 149.471 427.301 147.303 423.504 142.542C416.885 134.245 398.326 130.108 390.258 135.132ZM344.376 155.222C340.035 159.8 334.955 166.114 333.088 169.255L329.694 174.965L322.706 174.255C309.043 172.864 297.27 182.233 287.764 202.063C281.137 215.883 281.162 219.375 287.972 232.074C291.294 238.27 293.344 243.798 293.344 246.568C293.344 252.831 295.956 258.321 302.464 265.735C309.899 274.207 311.288 277.906 312.739 293.108C313.489 300.971 314.784 307.191 316.079 309.139C318.283 312.453 333.466 323.594 334.453 322.62C334.765 322.313 332.675 318.965 329.809 315.178C320.133 302.389 319.777 294.972 327.869 274.796C336.332 253.698 336.151 251.94 323.635 233.554C318.904 226.604 318.185 220.531 321.378 214.493C322.457 212.453 329.134 203.203 336.215 193.938C351.168 174.376 357.201 163.546 357.141 156.377C357.105 151.971 354.865 146.901 352.954 146.901C352.578 146.901 348.718 150.646 344.376 155.222ZM338.926 195.434C333.863 200.427 329.823 210.418 329.823 217.949C329.823 220.026 331.644 229.314 333.871 238.591C338.131 256.347 338.143 256.683 335.546 285.908C334.745 294.936 334.965 296.403 338.073 302.665C340.276 307.105 343.588 311.086 347.457 313.945C353.808 318.638 357.602 323.82 359.017 329.739C360.095 334.243 365.034 341.88 367.48 342.825C370.455 343.973 380.286 332.349 385.889 321.059C394.836 303.032 396.979 288.45 393.08 272.147C388.473 252.89 378.691 237.98 363.371 226.863C345.105 213.608 343.988 211.118 351.166 199.651C353.759 195.509 355.88 191.774 355.88 191.35C355.88 190.928 353.173 190.581 349.863 190.581C344.642 190.581 343.198 191.221 338.926 195.434ZM267.689 205.362C263.028 209.959 257.742 214.084 255.944 214.529C254.146 214.973 247.316 214.9 240.765 214.366C225.874 213.15 221.121 213.366 215.984 215.488C199.915 222.13 190.28 244.551 199.298 254.321C207.386 263.081 207.535 263.522 206.611 275.941C205.544 290.27 206.661 293.279 217.518 305.327C221.86 310.145 226.59 316.434 228.03 319.303C230.422 324.072 230.475 324.78 228.649 327.528C225.395 332.424 225.734 344.51 229.283 350.172C232.878 355.905 252.726 370.549 263.883 375.697C276.188 381.376 284.294 382.337 314.189 381.662C341.632 381.043 352.171 379.341 355.884 374.93C357.29 373.26 356.496 373.005 349.85 372.992C335.907 372.963 326.501 369.504 313.686 359.687C309.468 356.456 299.695 349.949 291.968 345.226C278.597 337.052 268.883 329.166 265.27 323.546C264.361 322.133 262.952 317.508 262.139 313.269C261.328 309.029 257.903 299.78 254.529 292.714C248.93 280.986 248.409 279.079 248.548 270.828C248.807 255.405 254.768 240.684 260.752 240.684C264.047 240.684 269.612 247.543 270.622 252.847C271.081 255.257 270.451 263.127 269.223 270.337C265.317 293.278 267.659 299.786 284.89 313.839C290.133 318.116 298.965 326.797 304.517 333.132C321.086 352.036 330.45 358.048 343.503 358.164C354.244 358.259 359.503 355.903 360.523 350.538C362.199 341.733 356.813 336.557 338.553 329.42C326.847 324.847 323.047 322.692 317.01 317.213C310.935 311.7 309.399 308.282 304.965 290.416C301.499 276.451 300.275 273.574 293.82 264.227C287.743 255.427 286.42 252.484 285.652 246.055C284.929 240.011 283.852 237.394 280.571 233.708C275.294 227.783 275.163 222.942 279.905 209.441C282.907 200.901 283.153 199.22 281.549 198.22C278.039 196.03 276.184 196.986 267.689 205.362ZM426.582 310.015C414.341 311.392 404.559 313.697 398.874 316.542C389.619 321.175 381.937 332.127 381.937 340.687C381.937 350.215 389.153 362.058 398.1 367.216C403.441 370.294 416.368 373.044 424.93 372.924L429.49 372.859L422.762 369.843C416.273 366.933 405.199 360.16 406.932 360.16C407.397 360.16 410.611 361.36 414.074 362.826C426.757 368.196 441.551 370.884 458.804 370.953C482.141 371.048 496.598 366.243 509.964 353.95C515.375 348.974 522.643 339.766 522.643 337.887C522.643 337.622 517.236 337.002 510.628 336.51C499.782 335.702 472.57 331.214 470.36 329.867C469.872 329.569 470.106 327.287 470.881 324.796C473.729 315.646 465.244 310.317 446.427 309.439C440.695 309.172 431.764 309.432 426.582 310.015ZM371.514 359.531C371.514 362.13 377.753 369.849 385.734 377.128C402.247 392.185 430.559 405.249 447.226 405.502C454.79 405.618 456.817 405.118 462.271 401.794C469.622 397.316 475.148 388.817 473.899 383.91C472.459 378.254 469.438 377.746 447.562 379.485C436.533 380.362 424.07 380.724 419.866 380.291C406.921 378.957 391.04 372.068 374.445 360.589C372.832 359.474 371.514 358.998 371.514 359.531ZM638.981 364.623C617.991 370.436 593.675 381.907 583.821 390.643C576.396 397.226 574.413 402.398 576.238 410.412C577.848 417.475 577.335 418.472 571.158 420.298C562.962 422.718 547.772 422.09 530.46 418.614C513.353 415.178 501.562 414.589 493.591 416.771C488.995 418.03 488.317 417.847 484.1 414.196C478.254 409.133 471.73 409.011 456.554 413.675C447.086 416.586 444.842 416.87 441.289 415.602C435.684 413.605 432.732 413.733 430.091 416.089C428.074 417.89 427.089 417.469 418.842 411.272C399.692 396.886 392.048 390.024 385.08 380.967C377.507 371.125 371.646 366.596 366.469 366.589C363.741 366.584 363.587 366.833 365.167 368.709C367.559 371.552 367.213 383.598 364.343 397.416C359.964 418.499 361.53 428.172 370.995 438.502C387.803 456.847 415.271 467.277 426.062 459.409L429.957 456.57L440.798 462.224C446.761 465.334 455.078 468.753 459.282 469.821C463.486 470.889 468.297 473.033 469.973 474.585L473.019 477.408L479.556 473.272C496.682 462.436 504.181 444.373 497.334 430.451C496.018 427.776 495.166 425.397 495.439 425.164C496.173 424.536 531.031 427.911 541.203 429.594C546.038 430.394 550.327 431.581 550.735 432.231C552.043 434.318 546.029 444.355 538.021 453.452C527.473 465.432 524.222 471.253 521.859 482.387C519.335 494.281 520.071 502.048 526.363 529.883L531.187 551.225L537.157 545.942C540.44 543.036 548.804 537.516 555.744 533.673C570.275 525.629 578.063 518.146 579.443 510.906C579.96 508.193 579.704 502.06 578.872 497.277C576.65 484.479 576.995 479.385 580.606 471.734C582.391 467.955 583.857 463.822 583.863 462.55C583.887 458.353 580.239 453.356 574.295 449.446C567.919 445.25 563.686 439.476 564.83 436.533C567.686 429.196 594.104 443.135 596.188 453.078C596.51 454.613 597.646 460.361 598.715 465.851C602.422 484.914 614.508 503.583 631.43 516.388C648.849 529.569 657.271 531.8 693.315 532.784C708.004 533.185 722.247 534.053 724.965 534.715C729.019 535.702 729.648 535.611 728.471 534.212C727.681 533.272 725.335 525.729 723.258 517.446C713.738 479.489 689.171 448.199 661.075 438.25C650.257 434.419 635.603 433.841 620.163 436.634L607.361 438.95L594.642 433.729C587.646 430.858 580.75 428.096 579.317 427.591C577.038 426.788 577.283 426.462 581.271 424.99C587.978 422.513 592.62 422.747 610.965 426.481C630.255 430.408 642.476 430.146 654.971 425.536C664.305 422.093 671.126 415.321 680.667 400.032C684.398 394.05 689.346 387.901 691.66 386.367L695.868 383.575L691.886 381.949C689.696 381.053 684.577 377.759 680.512 374.627C676.447 371.495 670.776 367.74 667.91 366.28C661.216 362.875 648.023 362.119 638.981 364.623Z" fill="black" fill-opacity="0.08"/>
</svg>
